<svg xmlns="http://www.w3.org/2000/svg" viewBox="0 0 63.1 42.4" enable-background="new 0 0 63.1 42.4"><g fill="#38b49b"><path d="m0 0c2.2.4 7.1 0 9.2.6l.5 2.1c-2.1.5-4.8 1-6.9 1 .3 7.6 1.2 26 1.5 35.8 1.6.2 5 .1 6.6.6l.3 2.2c-3.6-.3-6.2 0-10.1.1l-1.1-42.4"/><path d="m43 33.2c-9.9-3.3-17.8-5.8-28.2-11.9 0-1.1.1-2.3.4-3.6 10.7-3.2 17.1-7.4 27.4-10.7l.7 2.7c-8.4 3.6-15.6 7.9-23.8 10.6 4.1 3.1 21.4 9.4 23.3 9.9l.2 3"/><path d="m18.7 18.8c15.5-.2 23.4 0 41.8-.4 2.9.2 3.8 3 .4 3.3-14 0-24.5-.4-41.8-.4l-.4-2.5"/></g></svg>