<?xml version="1.0" encoding="utf-8"?>
<!-- Generator: Adobe Illustrator 16.0.0, SVG Export Plug-In . SVG Version: 6.00 Build 0)  -->
<!DOCTYPE svg PUBLIC "-//W3C//DTD SVG 1.1//EN" "http://www.w3.org/Graphics/SVG/1.1/DTD/svg11.dtd">
<svg version="1.1" id="Layer_1" xmlns="http://www.w3.org/2000/svg" xmlns:xlink="http://www.w3.org/1999/xlink" x="0px" y="0px"
	 width="106px" height="81px" viewBox="0 0 106 81" enable-background="new 0 0 106 81" xml:space="preserve">
<path fill="#FFFFFF" d="M1.962-0.014c1.192,0.226,4.039,0.363,8.541,0.411c4.501,0.048,7.456,0.276,8.862,0.684l0.879,3.927
	c-4.6,1.193-8.921,1.79-12.964,1.79C7.396,9.64,7.843,19.769,8.62,37.186c0.776,17.417,1.267,29.641,1.472,36.672
	c0.703,0.088,2.659,0.22,5.867,0.396s5.383,0.41,6.526,0.703l0.571,3.955c-3.105,0.205-5.171,0.314-6.196,0.33
	c-1.026,0.014-3.009,0.094-5.949,0.241c-2.94,0.146-5.205,0.249-6.793,0.308L1.962-0.014z"/>
<g>
	<path fill="#FFFFFF" d="M35.887,41.646c0-1.805,0.199-3.586,0.598-5.344c3.586-1.055,7.254-2.326,11.004-3.814
		c3.75-1.488,6.99-2.865,9.721-4.131s5.947-2.66,9.65-4.184c3.703-1.523,7.254-2.824,10.652-3.902l1.09,4.008
		c-2.578,1.078-7.98,3.609-16.207,7.594c-8.227,3.985-14.708,6.738-19.441,8.262c2.625,1.969,8.425,4.74,17.402,8.314
		c8.977,3.574,14.836,5.748,17.578,6.521l0.246,4.535c-4.992-1.641-8.666-2.871-11.021-3.691s-5.508-1.992-9.457-3.516
		c-3.95-1.523-7.635-3.135-11.057-4.834C43.222,45.766,39.636,43.826,35.887,41.646z"/>
	<path fill="#FFFFFF" d="M42.324,37.99c5.203-0.07,13.804-0.135,25.805-0.193c12-0.058,22.839-0.181,32.52-0.369
		c0.796,0.047,1.494,0.233,2.092,0.559s1.007,0.71,1.23,1.152c0.223,0.442,0.311,0.89,0.264,1.344
		c-0.048,0.454-0.347,0.856-0.896,1.205c-0.551,0.35-1.283,0.57-2.197,0.663c-6.141,0-15.281-0.1-27.422-0.299
		c-12.142-0.199-22.43-0.299-30.868-0.299L42.324,37.99z"/>
</g>
</svg>
