<!-- Generator: Adobe Illustrator 18.1.1, SVG Export Plug-In  -->
<svg version="1.1"
	 xmlns="http://www.w3.org/2000/svg" xmlns:xlink="http://www.w3.org/1999/xlink" xmlns:a="http://ns.adobe.com/AdobeSVGViewerExtensions/3.0/"
	 x="0px" y="0px" width="63.1px" height="42.4px" viewBox="0 0 63.1 42.4" enable-background="new 0 0 63.1 42.4"
	 xml:space="preserve">
<defs>
</defs>
<path fill="#38B49B" d="M0,0c2.2,0.4,7.1,0,9.2,0.6l0.5,2.1c-2.1,0.5-4.8,1-6.9,1c0.3,7.6,1.2,26,1.5,35.8c1.6,0.2,5,0.1,6.6,0.6
	l0.3,2.2C7.6,42,5,42.3,1.1,42.4L0,0z"/>
<path fill="#38B49B" d="M43,33.2c-9.9-3.3-17.8-5.8-28.2-11.9c0-1.1,0.1-2.3,0.4-3.6C25.9,14.5,32.3,10.3,42.6,7l0.7,2.7
	c-8.4,3.6-15.6,7.9-23.8,10.6c4.1,3.1,21.4,9.4,23.3,9.9L43,33.2z"/>
<path fill="#38B49B" d="M18.7,18.8c15.5-0.2,23.4,0,41.8-0.4c2.9,0.2,3.8,3,0.4,3.3c-14,0-24.5-0.4-41.8-0.4L18.7,18.8z"/>
</svg>
