<?xml version="1.0" encoding="utf-8"?>
<!-- Generator: Adobe Illustrator 16.0.0, SVG Export Plug-In . SVG Version: 6.00 Build 0)  -->
<!DOCTYPE svg PUBLIC "-//W3C//DTD SVG 1.1//EN" "http://www.w3.org/Graphics/SVG/1.1/DTD/svg11.dtd">
<svg version="1.1" id="Layer_1" xmlns="http://www.w3.org/2000/svg" xmlns:xlink="http://www.w3.org/1999/xlink" x="0px" y="0px"
	 width="200px" height="200px" viewBox="0 0 200 200" enable-background="new 0 0 200 200" xml:space="preserve">
<g>
	<g opacity="0.31">
		<circle cx="100.026" cy="110.867" r="78.587"/>
	</g>
	<g>
		<circle fill="#FFFFFF" cx="93.026" cy="103.867" r="78.587"/>
	</g>
</g>
<g>
	<g opacity="0.31">
		<path fill="none" stroke="#000000" stroke-width="15" stroke-miterlimit="10" d="M-53.055,114.861"/>
		<path fill="none" stroke="#000000" stroke-width="15" stroke-miterlimit="10" d="M79.153,112.212
			c-4.37,0.651-8.142-0.343-11.341-2.972c-3.205-2.644-5.883-6.496-8.039-11.569c-0.789-1.792-1.463-3.663-2.039-5.603
			c-0.572-1.938-1.109-3.875-1.607-5.807c-0.5-1.937-0.973-3.859-1.418-5.758c-0.444-1.895-0.9-3.74-1.361-5.52
			c-1.269,0.483-2.195,1.654-2.773,3.52c-0.579,1.862-0.921,4.06-1.044,6.6c-0.119,2.544-0.071,5.249,0.14,8.127
			c0.216,2.877,0.449,5.589,0.7,8.132c0.25,2.543,0.482,4.752,0.692,6.617c0.201,1.859,0.237,3.014,0.117,3.461
			c-0.118,0.676-0.444,1.26-0.978,1.748c-0.529,0.491-1.144,0.858-1.85,1.094c-0.702,0.229-1.439,0.337-2.208,0.308
			c-0.769-0.023-1.425-0.227-1.973-0.604c-1.32-0.891-2.481-2.219-3.496-3.99c-1.01-1.768-1.784-3.601-2.328-5.5
			c-1.256-4.593-2.708-9.241-4.342-13.954c-1.636-4.706-3.477-9.172-5.527-13.393c-0.252,0.292-0.512,0.598-0.788,0.911
			c-0.269,0.321-0.515,0.749-0.736,1.28c-0.221,0.538-0.433,1.22-0.626,2.05c-0.198,0.829-0.353,1.879-0.469,3.15
			c-0.093,0.994-0.082,2.326,0.04,3.999c0.114,1.681,0.305,3.528,0.569,5.536c0.263,2.016,0.573,4.107,0.921,6.281
			c0.35,2.183,0.692,4.254,1.042,6.222c0.349,1.968,0.672,3.739,0.969,5.309c0.299,1.562,0.522,2.767,0.676,3.604
			c0.109,0.669-0.109,1.282-0.64,1.85c-0.537,0.561-1.217,0.959-2.037,1.199c-0.823,0.242-1.682,0.283-2.595,0.132
			c-0.91-0.156-1.664-0.605-2.252-1.341c-0.901-1.086-1.615-2.354-2.14-3.825c-0.532-1.464-0.946-2.99-1.246-4.582
			c-0.304-1.587-0.519-3.172-0.636-4.76c-0.121-1.584-0.225-3.081-0.325-4.489c-0.102-1.214-0.196-2.792-0.282-4.735
			c-0.081-1.936-0.094-3.989-0.024-6.151c0.068-2.158,0.269-4.31,0.594-6.458c0.329-2.152,0.865-4.067,1.627-5.744
			c0.757-1.673,1.798-2.993,3.116-3.948c1.321-0.95,2.979-1.317,4.964-1.094c1.285,0.163,2.512,0.887,3.693,2.176
			c1.172,1.297,2.275,2.925,3.29,4.898c1.017,1.976,1.956,4.163,2.82,6.567c0.862,2.402,1.637,4.765,2.318,7.093
			c0.689,2.331,1.272,4.498,1.768,6.502c0.493,2.005,0.898,3.592,1.221,4.76c0.132-1.001,0.24-2.35,0.323-4.052
			c0.092-1.703,0.197-3.592,0.331-5.675c0.134-2.084,0.315-4.247,0.553-6.491c0.235-2.245,0.561-4.421,0.992-6.527
			c0.43-2.102,0.962-4.038,1.611-5.809c0.649-1.762,1.446-3.174,2.399-4.225c0.951-1.049,2.084-1.672,3.396-1.868
			c1.312-0.191,2.854,0.224,4.611,1.238c1.177,0.693,2.321,1.979,3.434,3.861c1.108,1.882,2.192,4.058,3.257,6.528
			c1.062,2.47,2.101,5.087,3.118,7.842c1.012,2.759,2,5.339,2.956,7.74c0.953,2.406,1.873,4.482,2.738,6.241
			c0.875,1.754,1.738,2.873,2.591,3.365c1.293,0.805,2.458,1.233,3.479,1.292c1.028,0.058,1.924,0.024,2.673-0.11
			c0.755-0.13,1.405-0.256,1.953-0.385c0.544-0.127,0.981,0.02,1.312,0.455c0.265,0.346,0.315,0.787,0.139,1.312
			c-0.177,0.53-0.528,1.048-1.051,1.56c-0.528,0.516-1.221,1-2.079,1.454C81.187,111.745,80.22,112.052,79.153,112.212"/>
		<path fill="none" stroke="#000000" stroke-width="15" stroke-miterlimit="10" d="M90.424,74.791
			c0.004,0.597-0.256,1.158-0.781,1.671c-0.525,0.513-1.14,1.06-1.829,1.639c-0.697,0.579-1.4,1.201-2.119,1.877
			c-0.715,0.674-1.269,1.476-1.645,2.392c-0.579,1.473-0.839,3.125-0.779,4.955c0.064,1.83,0.287,3.536,0.681,5.125
			c0.399,1.586,0.919,2.922,1.563,3.995c0.644,1.07,1.247,1.539,1.818,1.405c0.695-0.163,1.354-0.665,1.962-1.502
			c0.608-0.835,1.117-1.746,1.528-2.744c0.415-0.998,0.715-1.982,0.896-2.974c0.185-0.99,0.223-1.721,0.108-2.207
			c-0.111-0.476-0.291-1.133-0.534-1.98c-0.246-0.838-0.429-1.684-0.562-2.528c-0.128-0.842-0.165-1.599-0.112-2.256
			c0.056-0.657,0.313-1.063,0.783-1.218c0.471-0.158,1.019-0.402,1.661-0.74c0.636-0.327,1.278-0.503,1.92-0.515
			c0.64-0.013,1.232,0.296,1.772,0.935c0.541,0.63,0.975,1.83,1.294,3.597c0.701,3.576,1.499,6.21,2.405,7.906
			c0.907,1.702,2.098,2.542,3.571,2.519c0.994-0.049,1.811-0.485,2.423-1.293c0.616-0.813,1.133-1.687,1.564-2.616
			c0.429-0.934,0.788-1.762,1.073-2.495c0.286-0.735,0.576-1.071,0.873-1.002c0.335,0.057,0.572,0.582,0.712,1.562
			c0.139,0.982,0.061,2.139-0.224,3.473c-0.288,1.331-0.844,2.736-1.679,4.197c-0.828,1.465-2.046,2.727-3.642,3.788
			c-0.834,0.569-1.643,0.942-2.432,1.127c-0.783,0.184-1.521,0.244-2.203,0.172c-0.688-0.074-1.317-0.246-1.889-0.525
			c-0.57-0.281-1.116-0.615-1.621-1.004c-1.126-0.881-2.143-2.079-3.049-3.57c-0.191,1.147-0.59,2.21-1.188,3.18
			c-0.487,0.855-1.192,1.699-2.102,2.538c-0.911,0.832-2.123,1.474-3.633,1.919c-1.517,0.402-3.069,0.256-4.656-0.427
			c-1.596-0.688-2.994-1.791-4.199-3.303c-1.21-1.517-2.109-3.389-2.701-5.623c-0.595-2.233-0.664-4.72-0.198-7.456
			c0.326-1.784,0.922-3.37,1.788-4.776c0.872-1.401,1.867-2.614,2.985-3.634c1.119-1.025,2.286-1.853,3.498-2.479
			c1.21-0.634,2.323-1.087,3.337-1.371c1.02-0.288,1.868-0.405,2.545-0.359C90.091,74.21,90.434,74.422,90.424,74.791"/>
		<path fill="none" stroke="#000000" stroke-width="15" stroke-miterlimit="10" d="M136.902,85.182
			c0.866-0.615,1.57-0.963,2.105-1.042c0.537-0.083,0.906,0.006,1.099,0.257c0.197,0.257,0.231,0.626,0.092,1.123
			c-0.137,0.495-0.424,0.996-0.858,1.516c-0.366,0.404-0.801,0.945-1.312,1.616c-0.513,0.671-1.034,1.385-1.577,2.133
			c-0.538,0.748-1.057,1.488-1.557,2.199c-0.501,0.717-0.93,1.304-1.287,1.753c0.79,1.98,1.454,4.027,1.995,6.136
			c0.54,2.109,0.887,4.174,1.036,6.186c0.153,2.019,0.068,3.926-0.243,5.731c-0.32,1.8-0.942,3.365-1.878,4.686
			c-1.312,1.874-2.79,3.122-4.442,3.743c-1.654,0.617-3.228,0.682-4.727,0.21c-1.495-0.483-2.805-1.453-3.929-2.916
			c-1.129-1.466-1.799-3.349-2.017-5.649c-0.183-2.351,0.057-4.528,0.717-6.527c0.659-2,1.443-3.73,2.346-5.181
			c1.069-1.729,2.292-3.279,3.676-4.668c-0.125-0.336-0.325-0.794-0.603-1.379c-0.21-0.501-0.52-1.132-0.925-1.891
			c-0.412-0.758-0.935-1.725-1.583-2.915c-0.391-0.688-0.831-1.337-1.317-1.939c-0.494-0.594-0.94-1.1-1.36-1.508
			c-0.524-0.482-1.016-0.894-1.465-1.246c-0.516,0.946-1.071,1.82-1.676,2.605c-0.487,0.669-1.051,1.292-1.693,1.878
			c-0.649,0.592-1.301,0.963-1.956,1.118c-0.697,0.163-1.573-0.021-2.617-0.56c-1.052-0.54-2.059-1.337-3.021-2.402
			c-0.961-1.065-1.811-2.339-2.557-3.827c-0.736-1.485-1.173-3.086-1.301-4.809c-0.082-1.735-0.001-3.162,0.245-4.275
			c0.242-1.118,0.581-2.039,1.009-2.76c0.428-0.725,0.941-1.292,1.539-1.709c0.593-0.414,1.2-0.768,1.82-1.049
			c0.927-0.405,2.103-0.54,3.535-0.418c1.437,0.127,2.836,0.39,4.193,0.785c1.36,0.392,2.555,0.851,3.574,1.372
			c1.021,0.524,1.558,0.983,1.599,1.386c0.055,0.406-0.386,0.658-1.303,0.756c-0.922,0.103-1.979,0.201-3.181,0.298
			c-1.199,0.101-2.353,0.276-3.47,0.538c-1.112,0.261-1.809,0.792-2.081,1.59c-0.275,0.804-0.428,1.717-0.467,2.741
			c-0.038,1.022,0.025,2.021,0.189,2.999c0.154,0.977,0.422,1.848,0.79,2.613c0.359,0.77,0.826,1.295,1.4,1.571
			c0.315,0.164,0.658-0.004,1.025-0.482c0.376-0.479,0.798-1.062,1.281-1.751c0.486-0.688,1.043-1.374,1.665-2.051
			c0.625-0.674,1.351-1.168,2.18-1.481c0.827-0.305,1.761-0.294,2.805,0.035c1.044,0.335,2.232,1.17,3.562,2.521
			c0.779,0.783,1.631,1.7,2.55,2.752c0.916,1.057,1.874,2.641,2.88,4.753c0.969-0.964,1.884-1.884,2.743-2.751
			C135.006,86.726,135.923,85.919,136.902,85.182 M129.043,112.404c0.087-0.811,0.029-1.799-0.175-2.969
			c-0.211-1.172-0.438-2.328-0.706-3.464c-0.357-1.3-0.745-2.663-1.17-4.083c-0.731,1.002-1.344,2.021-1.84,3.061
			c-0.44,0.885-0.767,1.883-0.991,3c-0.224,1.105-0.158,2.224,0.195,3.336c0.343,1.073,0.77,1.816,1.284,2.228
			c0.508,0.406,1.002,0.593,1.473,0.549c0.478-0.038,0.895-0.232,1.255-0.568C128.724,113.157,128.947,112.793,129.043,112.404"/>
		<path fill="none" stroke="#000000" stroke-width="15" stroke-miterlimit="10" d="M131.628,76.26
			c-0.116-1.083-0.173-2.124-0.186-3.14c-0.005-1.008,0.062-1.968,0.192-2.875c0.131-0.909,0.329-1.705,0.58-2.382
			c0.257-0.686,0.587-1.211,1.011-1.589c0.429-0.331,0.998-0.703,1.71-1.125c0.703-0.419,1.402-0.677,2.098-0.766
			c0.695-0.095,1.274,0.089,1.759,0.554c0.478,0.463,0.677,1.416,0.601,2.866c-0.004,0.787,0.066,1.749,0.191,2.887
			c0.132,1.147,0.337,2.369,0.623,3.66c0.276,1.299,0.611,2.575,1.001,3.844c0.388,1.272,0.832,2.425,1.328,3.458
			c0.494,1.04,1.041,1.891,1.637,2.556c0.594,0.668,1.224,1.039,1.89,1.109c1.364,0.142,2.447-0.153,3.24-0.895
			c0.793-0.742,1.459-1.747,1.991-3.027c0.188-0.547,0.47-1.045,0.829-1.471c0.358-0.433,0.684-0.658,0.983-0.683
			c0.286-0.021,0.502,0.229,0.626,0.754c0.121,0.523,0.043,1.463-0.242,2.821c-0.311,1.413-0.826,2.705-1.544,3.886
			c-0.71,1.182-1.581,2.184-2.611,2.997c-1.034,0.819-2.192,1.426-3.481,1.822c-1.292,0.39-2.651,0.505-4.072,0.334
			c-1.408-0.136-2.631-0.507-3.645-1.119c-1.021-0.607-1.92-1.54-2.692-2.787c-0.786-1.249-1.473-2.824-2.081-4.733
			C132.756,81.306,132.171,78.987,131.628,76.26 M129.09,52.174c0.257-1.073,0.846-1.838,1.78-2.29
			c0.933-0.444,1.896-0.647,2.899-0.608c1,0.044,1.914,0.299,2.741,0.776c0.826,0.478,1.266,1.144,1.328,2.004
			c0.064,1.048-0.293,2.035-1.059,2.979c-0.772,0.941-2.115,1.545-4.037,1.811c-0.529,0.083-1.049-0.008-1.548-0.258
			c-0.495-0.251-0.935-0.596-1.315-1.042c-0.38-0.443-0.648-0.96-0.816-1.57C128.895,53.373,128.906,52.768,129.09,52.174"/>
		<path fill="none" stroke="#000000" stroke-width="15" stroke-miterlimit="10" d="M164.725,60.545
			c-0.078,0.254-0.486,0.402-1.206,0.456c-0.729,0.059-1.538,0.228-2.438,0.507c-0.901,0.275-1.76,0.778-2.561,1.496
			c-0.795,0.722-1.315,1.842-1.558,3.372c-0.197,1.524-0.208,3.095-0.038,4.708c0.173,1.622,0.523,3.118,1.054,4.496
			c0.53,1.369,1.191,2.519,1.986,3.438c0.787,0.917,1.691,1.47,2.697,1.647c1.438,0.215,2.658,0.117,3.663-0.307
			c1.012-0.421,1.879-0.932,2.613-1.542c0.731-0.611,1.338-1.227,1.817-1.845c0.477-0.618,0.87-1.033,1.189-1.248
			c0.767-0.459,1.218-0.226,1.338,0.685c0.121,0.922-0.219,2.213-1.026,3.877c-0.427,0.929-1.016,1.863-1.767,2.795
			c-0.746,0.936-1.638,1.759-2.668,2.461c-1.042,0.703-2.217,1.234-3.538,1.586c-1.32,0.359-2.789,0.428-4.411,0.209
			c-1.524-0.196-2.986-0.758-4.397-1.665c-1.414-0.913-2.663-2.059-3.747-3.443c-1.083-1.383-1.981-2.934-2.684-4.66
			c-0.702-1.722-1.1-3.521-1.193-5.391c-0.093-1.866,0.155-3.762,0.743-5.67c0.59-1.912,1.604-3.731,3.046-5.448
			c1.384-1.57,2.865-2.563,4.45-2.98c1.585-0.419,3.034-0.526,4.348-0.333c1.312,0.205,2.389,0.608,3.222,1.217
			C164.494,59.574,164.852,60.103,164.725,60.545"/>
		<path fill="none" stroke="#000000" stroke-width="15" stroke-miterlimit="10" d="M43.28,128.478
			c-0.499,0.214-1.176,0.473-2.024,0.789c-0.85,0.317-1.733,0.799-2.67,1.455c-0.929,0.655-1.848,1.527-2.772,2.621
			c-0.918,1.088-1.729,2.501-2.43,4.233c-0.958,2.39-0.951,4.139,0.021,5.252c0.978,1.103,3.075,1.953,6.296,2.53
			c1.631,0.266,3.32,0.435,5.062,0.509c1.749,0.069,3.423,0.346,5.038,0.822c1.605,0.476,3.107,1.299,4.481,2.476
			c1.386,1.171,2.543,2.962,3.477,5.372c0.707,1.857,0.753,3.573,0.131,5.151c-0.62,1.576-1.609,2.999-2.974,4.264
			c-1.356,1.259-2.948,2.325-4.748,3.18c-1.804,0.863-3.511,1.485-5.133,1.866c-3.303,0.819-6.226,1.052-8.749,0.703
			c-2.525-0.354-4.598-0.938-6.218-1.758c-1.622-0.815-2.731-1.725-3.334-2.711c-0.599-0.98-0.634-1.731-0.104-2.22
			c0.345-0.313,0.872-0.436,1.602-0.374c0.727,0.057,1.631,0.157,2.701,0.3c1.07,0.137,2.271,0.235,3.596,0.294
			c1.328,0.062,2.771-0.073,4.334-0.392c1.561-0.318,3.217-0.897,4.989-1.722c1.761-0.833,3.598-2.091,5.504-3.782
			c0.683-0.623,1.009-1.354,0.974-2.2c-0.04-0.843-0.423-1.655-1.157-2.424c-0.737-0.772-1.82-1.407-3.248-1.902
			c-1.431-0.492-3.204-0.721-5.315-0.689c-1.834,0.015-3.648,0.007-5.435-0.037c-1.788-0.044-3.445-0.299-4.983-0.767
			c-1.538-0.471-2.888-1.214-4.051-2.234c-1.163-1.016-2.05-2.464-2.679-4.348c-0.396-1.29-0.352-2.891,0.121-4.798
			c0.474-1.912,1.229-3.859,2.259-5.855c1.028-1.992,2.295-3.915,3.798-5.761c1.5-1.852,3.094-3.343,4.79-4.479
			c1.688-1.134,3.399-1.767,5.12-1.895c1.722-0.124,3.346,0.51,4.872,1.9c1.006,0.963,2.041,1.703,3.108,2.209
			c1.062,0.515,1.994,0.929,2.782,1.251c0.791,0.326,1.373,0.644,1.749,0.972c0.378,0.325,0.402,0.781,0.082,1.367
			c-0.373,0.593-0.848,0.899-1.448,0.923c-0.589,0.024-1.283-0.035-2.077-0.167c-0.788-0.135-1.647-0.249-2.571-0.329
			C45.136,127.988,44.21,128.121,43.28,128.478"/>
		<path fill="none" stroke="#000000" stroke-width="15" stroke-miterlimit="10" d="M57.098,115.764
			c-0.05-0.815,0.308-1.355,1.072-1.634c0.767-0.27,1.634-0.285,2.607-0.057c0.98,0.235,1.936,0.664,2.867,1.3
			c0.935,0.634,1.534,1.428,1.799,2.377c0.281,0.994,0.567,2.012,0.856,3.051c0.292,1.036,0.554,1.964,0.795,2.789
			c0.276,0.988,0.538,1.921,0.791,2.784c1.453-0.478,2.753-0.83,3.899-1.051c1.017-0.194,1.938-0.269,2.779-0.239
			c0.844,0.034,1.322,0.336,1.453,0.905c0.144,0.61-0.114,1.223-0.776,1.841c-0.66,0.614-1.434,1.184-2.327,1.719
			c-1.05,0.62-2.249,1.216-3.583,1.81c0.769,2.906,1.523,5.73,2.257,8.458c0.608,2.393,1.21,4.902,1.803,7.526
			c0.59,2.631,1.026,4.945,1.318,6.949c0.245,2.02,0.241,3.54-0.008,4.567c-0.239,1.026-0.622,1.73-1.121,2.13
			c-0.506,0.396-1.083,0.59-1.735,0.577c-0.645-0.005-1.254-0.058-1.833-0.154c-0.279-0.026-0.628-0.43-1.04-1.21
			c-0.415-0.779-0.841-1.811-1.274-3.085c-0.445-1.279-0.9-2.73-1.371-4.348c-0.47-1.616-0.932-3.275-1.374-4.968
			c-1.075-3.986-2.188-8.474-3.356-13.45c-1.121,0.532-2.182,0.923-3.183,1.157c-0.883,0.208-1.721,0.254-2.534,0.141
			c-0.804-0.104-1.389-0.534-1.75-1.277c-0.271-0.584-0.127-1.192,0.44-1.835c0.559-0.638,1.239-1.238,2.032-1.789
			c0.913-0.63,2.01-1.253,3.291-1.88l-0.246-1.05c-0.072-0.306-0.138-0.617-0.192-0.955c-0.055-0.334-0.104-0.609-0.156-0.827
			c-0.409-1.747-0.763-3.161-1.065-4.243c-0.3-1.081-0.537-1.981-0.706-2.708c-0.168-0.718-0.283-1.312-0.348-1.783
			C57.119,116.836,57.09,116.325,57.098,115.764"/>
		<path fill="none" stroke="#000000" stroke-width="15" stroke-miterlimit="10" d="M78.998,133.376
			c-0.542-0.147-1.017-0.2-1.419-0.147c-0.403,0.043-0.77,0.111-1.101,0.188c-0.322,0.077-0.613,0.109-0.874,0.1
			c-0.254-0.01-0.509-0.169-0.762-0.475c-0.206-0.274-0.095-0.742,0.324-1.392c0.429-0.655,1.055-1.263,1.895-1.826
			c0.836-0.565,1.823-0.944,2.98-1.15c1.149-0.197,2.346-0.007,3.594,0.578c1.097,0.568,2.026,1.147,2.784,1.729
			c0.76,0.582,1.38,1.117,1.864,1.601c0.547,0.564,0.978,1.134,1.3,1.703c0.948-1.467,1.979-2.75,3.107-3.841
			c0.971-0.964,2.108-1.834,3.403-2.596c1.294-0.767,2.685-1.111,4.175-1.044c0.383,0.046,0.613,0.278,0.683,0.7
			c0.076,0.421,0.005,0.913-0.208,1.466c-0.218,0.561-0.555,1.121-1.021,1.691c-0.467,0.57-1.077,1.036-1.815,1.399
			c-1.45,0.702-2.51,1.649-3.174,2.814c-0.672,1.171-1.101,2.456-1.271,3.859c-0.183,1.4-0.168,2.846,0.045,4.343
			c0.213,1.49,0.48,2.919,0.798,4.268c0.706,2.836,0.812,5.037,0.304,6.605c-0.513,1.572-1.451,2.563-2.829,2.979
			c-1.597,0.465-2.978,0.004-4.129-1.387c-1.155-1.383-2.169-3.956-3.051-7.719c-0.518-2.362-0.975-4.425-1.385-6.172
			s-0.814-3.208-1.23-4.376c-0.411-1.17-0.854-2.071-1.326-2.697C80.194,133.951,79.635,133.551,78.998,133.376"/>
		<path fill="none" stroke="#000000" stroke-width="15" stroke-miterlimit="10" d="M120.052,121.536
			c0.002,0.604-0.258,1.159-0.784,1.67c-0.521,0.517-1.132,1.062-1.827,1.636c-0.695,0.581-1.399,1.208-2.119,1.885
			c-0.715,0.674-1.269,1.472-1.649,2.394c-0.572,1.471-0.837,3.119-0.778,4.952c0.063,1.824,0.293,3.536,0.687,5.127
			c0.4,1.59,0.915,2.921,1.563,3.992c0.64,1.071,1.245,1.535,1.812,1.402c0.702-0.165,1.353-0.659,1.968-1.498
			c0.606-0.835,1.112-1.746,1.533-2.743c0.405-0.994,0.705-1.987,0.886-2.975c0.188-0.989,0.225-1.721,0.108-2.197
			c-0.108-0.484-0.287-1.146-0.534-1.989c-0.243-0.839-0.428-1.689-0.562-2.528c-0.128-0.85-0.156-1.601-0.108-2.258
			c0.052-0.658,0.31-1.067,0.782-1.224c0.471-0.154,1.021-0.396,1.662-0.731c0.634-0.328,1.272-0.507,1.915-0.515
			c0.645-0.012,1.234,0.294,1.773,0.929c0.545,0.63,0.97,1.833,1.301,3.604c0.696,3.567,1.499,6.2,2.404,7.901
			c0.9,1.703,2.087,2.542,3.563,2.517c0.996-0.051,1.811-0.48,2.423-1.294c0.623-0.813,1.136-1.687,1.569-2.614
			c0.424-0.926,0.783-1.759,1.072-2.497c0.283-0.736,0.577-1.071,0.873-0.999c0.331,0.058,0.574,0.58,0.714,1.562
			c0.131,0.983,0.057,2.139-0.222,3.472c-0.292,1.332-0.85,2.732-1.681,4.194c-0.835,1.462-2.049,2.728-3.642,3.793
			c-0.835,0.563-1.647,0.941-2.432,1.126c-0.788,0.183-1.526,0.242-2.209,0.169c-0.681-0.065-1.312-0.245-1.883-0.527
			c-0.572-0.278-1.114-0.61-1.622-1.003c-1.125-0.883-2.141-2.073-3.044-3.566c-0.197,1.147-0.592,2.213-1.193,3.178
			c-0.495,0.855-1.192,1.7-2.104,2.532c-0.91,0.837-2.119,1.484-3.626,1.925c-1.521,0.403-3.071,0.265-4.665-0.427
			c-1.591-0.691-2.989-1.789-4.197-3.301c-1.209-1.519-2.104-3.389-2.699-5.626c-0.59-2.237-0.658-4.718-0.199-7.451
			c0.324-1.783,0.92-3.378,1.788-4.777c0.87-1.401,1.864-2.616,2.984-3.64c1.124-1.02,2.285-1.848,3.502-2.479
			c1.211-0.631,2.318-1.087,3.339-1.368c1.014-0.286,1.862-0.405,2.547-0.36C119.716,120.956,120.056,121.166,120.052,121.536"/>
		<path fill="none" stroke="#000000" stroke-width="15" stroke-miterlimit="10" d="M136.803,118.988
			c0.818-0.649,1.643-1.07,2.473-1.265c0.83-0.195,1.588-0.217,2.27-0.051c0.685,0.161,1.263,0.479,1.74,0.942
			c0.479,0.463,0.771,1.003,0.864,1.627c0.316,2.924,0.958,5.55,1.919,7.879c0.967,2.334,1.971,4.264,3.02,5.791
			c1.047,1.527,2.024,2.604,2.934,3.221c0.906,0.619,1.435,0.656,1.579,0.111c0.152-0.543,0.22-1.627,0.207-3.262
			c-0.018-1.633,0.029-3.456,0.131-5.461c0.108-2.003,0.362-4.009,0.766-6.021c0.41-2.01,1.127-3.659,2.161-4.962
			c1.026-1.302,1.994-2.106,2.891-2.409c0.896-0.302,1.726-0.29,2.499,0.036c0.764,0.327,1.485,0.886,2.152,1.673
			c0.667,0.786,1.307,1.599,1.913,2.424c0.617,0.866,1.275,2.02,1.953,3.445c0.682,1.432,1.366,2.783,2.055,4.045
			c0.687,1.271,1.334,2.263,1.938,2.972c0.606,0.712,1.165,0.774,1.678,0.194c0.317-0.396,0.584-1.13,0.793-2.19
			c0.212-1.065,0.417-2.3,0.618-3.71c0.199-1.407,0.431-2.876,0.694-4.413c0.258-1.537,0.605-2.977,1.023-4.322
			c0.425-1.342,0.976-2.489,1.651-3.425c0.675-0.943,1.55-1.517,2.61-1.718c1.145-0.22,2.273-0.175,3.384,0.137
			c1.11,0.316,2.108,0.758,3,1.308c0.891,0.55,1.615,1.148,2.186,1.8c0.57,0.652,0.905,1.217,1.02,1.697
			c0.111,0.478-0.068,0.786-0.545,0.924c-0.476,0.134-1.305-0.056-2.479-0.56c-1.227-0.497-2.331,0.005-3.314,1.501
			c-0.986,1.501-1.462,3.884-1.437,7.146c0.009,1.614-0.053,3.066-0.185,4.365c-0.137,1.298-0.396,2.441-0.783,3.438
			c-0.393,0.983-0.963,1.845-1.714,2.57c-0.752,0.732-1.748,1.312-2.976,1.739c-1.154,0.402-2.304,0.413-3.455,0.017
			c-1.156-0.398-2.259-1.016-3.305-1.854c-1.057-0.839-1.995-1.804-2.825-2.9c-0.834-1.093-1.457-2.145-1.881-3.151
			c-0.449-0.948-0.808-1.619-1.054-2c-0.248-0.375-0.44-0.485-0.558-0.318c-0.129,0.167-0.224,0.584-0.3,1.248
			c-0.073,0.661-0.189,1.541-0.345,2.639c-0.119,1.083-0.235,2.171-0.341,3.255c-0.113,1.089-0.359,2.125-0.726,3.111
			c-0.367,0.987-0.922,1.926-1.656,2.813c-0.735,0.885-1.812,1.655-3.229,2.31c-1.369,0.641-2.74,0.951-4.1,0.921
			c-1.371-0.021-2.67-0.26-3.901-0.707c-1.235-0.442-2.374-1.021-3.41-1.722c-1.048-0.701-1.931-1.43-2.654-2.175
			c-0.487-0.49-1.073-1.213-1.759-2.183c-0.691-0.965-1.379-2.072-2.09-3.314c-0.705-1.242-1.368-2.538-1.984-3.886
			c-0.618-1.357-1.103-2.647-1.464-3.875c-0.355-1.23-0.526-2.334-0.498-3.311C135.983,120.153,136.269,119.438,136.803,118.988"/>
		<path d="M-53.055,114.861"/>
		<path d="M79.153,112.212c-4.37,0.651-8.142-0.343-11.341-2.972c-3.205-2.644-5.883-6.496-8.039-11.569
			c-0.789-1.792-1.463-3.663-2.039-5.603c-0.572-1.938-1.109-3.875-1.607-5.807c-0.5-1.937-0.973-3.859-1.418-5.758
			c-0.444-1.895-0.9-3.74-1.361-5.52c-1.269,0.483-2.195,1.654-2.773,3.52c-0.579,1.862-0.921,4.06-1.044,6.6
			c-0.119,2.544-0.071,5.249,0.14,8.127c0.216,2.877,0.449,5.589,0.7,8.132c0.25,2.543,0.482,4.752,0.692,6.617
			c0.201,1.859,0.237,3.014,0.117,3.461c-0.118,0.676-0.444,1.26-0.978,1.748c-0.529,0.491-1.144,0.858-1.85,1.094
			c-0.702,0.229-1.439,0.337-2.208,0.308c-0.769-0.023-1.425-0.227-1.973-0.604c-1.32-0.891-2.481-2.219-3.496-3.99
			c-1.01-1.768-1.784-3.601-2.328-5.5c-1.256-4.593-2.708-9.241-4.342-13.954c-1.636-4.706-3.477-9.172-5.527-13.393
			c-0.252,0.292-0.512,0.598-0.788,0.911c-0.269,0.321-0.515,0.749-0.736,1.28c-0.221,0.538-0.433,1.22-0.626,2.05
			c-0.198,0.829-0.353,1.879-0.469,3.15c-0.093,0.994-0.082,2.326,0.04,3.999c0.114,1.681,0.305,3.528,0.569,5.536
			c0.263,2.016,0.573,4.107,0.921,6.281c0.35,2.183,0.692,4.254,1.042,6.222c0.349,1.968,0.672,3.739,0.969,5.309
			c0.299,1.562,0.522,2.767,0.676,3.604c0.109,0.669-0.109,1.282-0.64,1.85c-0.537,0.561-1.217,0.959-2.037,1.199
			c-0.823,0.242-1.682,0.283-2.595,0.132c-0.91-0.156-1.664-0.605-2.252-1.341c-0.901-1.086-1.615-2.354-2.14-3.825
			c-0.532-1.464-0.946-2.99-1.246-4.582c-0.304-1.587-0.519-3.172-0.636-4.76c-0.121-1.584-0.225-3.081-0.325-4.489
			c-0.102-1.214-0.196-2.792-0.282-4.735c-0.081-1.936-0.094-3.989-0.024-6.151c0.068-2.158,0.269-4.31,0.594-6.458
			c0.329-2.152,0.865-4.067,1.627-5.744c0.757-1.673,1.798-2.993,3.116-3.948c1.321-0.95,2.979-1.317,4.964-1.094
			c1.285,0.163,2.512,0.887,3.693,2.176c1.172,1.297,2.275,2.925,3.29,4.898c1.017,1.976,1.956,4.163,2.82,6.567
			c0.862,2.402,1.637,4.765,2.318,7.093c0.689,2.331,1.272,4.498,1.768,6.502c0.493,2.005,0.898,3.592,1.221,4.76
			c0.132-1.001,0.24-2.35,0.323-4.052c0.092-1.703,0.197-3.592,0.331-5.675c0.134-2.084,0.315-4.247,0.553-6.491
			c0.235-2.245,0.561-4.421,0.992-6.527c0.43-2.102,0.962-4.038,1.611-5.809c0.649-1.762,1.446-3.174,2.399-4.225
			c0.951-1.049,2.084-1.672,3.396-1.868c1.312-0.191,2.854,0.224,4.611,1.238c1.177,0.693,2.321,1.979,3.434,3.861
			c1.108,1.882,2.192,4.058,3.257,6.528c1.062,2.47,2.101,5.087,3.118,7.842c1.012,2.759,2,5.339,2.956,7.74
			c0.953,2.406,1.873,4.482,2.738,6.241c0.875,1.754,1.738,2.873,2.591,3.365c1.293,0.805,2.458,1.233,3.479,1.292
			c1.028,0.058,1.924,0.024,2.673-0.11c0.755-0.13,1.405-0.256,1.953-0.385c0.544-0.127,0.981,0.02,1.312,0.455
			c0.265,0.346,0.315,0.787,0.139,1.312c-0.177,0.53-0.528,1.048-1.051,1.56c-0.528,0.516-1.221,1-2.079,1.454
			C81.187,111.745,80.22,112.052,79.153,112.212"/>
		<path d="M90.424,74.791c0.004,0.597-0.256,1.158-0.781,1.671c-0.525,0.513-1.14,1.06-1.829,1.639
			c-0.697,0.579-1.4,1.201-2.119,1.877c-0.715,0.674-1.269,1.476-1.645,2.392c-0.579,1.473-0.839,3.125-0.779,4.955
			c0.064,1.83,0.287,3.536,0.681,5.125c0.399,1.586,0.919,2.922,1.563,3.995c0.644,1.07,1.247,1.539,1.818,1.405
			c0.695-0.163,1.354-0.665,1.962-1.502c0.608-0.835,1.117-1.746,1.528-2.744c0.415-0.998,0.715-1.982,0.896-2.974
			c0.185-0.99,0.223-1.721,0.108-2.207c-0.111-0.476-0.291-1.133-0.534-1.98c-0.246-0.838-0.429-1.684-0.562-2.528
			c-0.128-0.842-0.165-1.599-0.112-2.256c0.056-0.657,0.313-1.063,0.783-1.218c0.471-0.158,1.019-0.402,1.661-0.74
			c0.636-0.327,1.278-0.503,1.92-0.515c0.64-0.013,1.232,0.296,1.772,0.935c0.541,0.63,0.975,1.83,1.294,3.597
			c0.701,3.576,1.499,6.21,2.405,7.906c0.907,1.702,2.098,2.542,3.571,2.519c0.994-0.049,1.811-0.485,2.423-1.293
			c0.616-0.813,1.133-1.687,1.564-2.616c0.429-0.934,0.788-1.762,1.073-2.495c0.286-0.735,0.576-1.071,0.873-1.002
			c0.335,0.057,0.572,0.582,0.712,1.562c0.139,0.982,0.061,2.139-0.224,3.473c-0.288,1.331-0.844,2.736-1.679,4.197
			c-0.828,1.465-2.046,2.727-3.642,3.788c-0.834,0.569-1.643,0.942-2.432,1.127c-0.783,0.184-1.521,0.244-2.203,0.172
			c-0.688-0.074-1.317-0.246-1.889-0.525c-0.57-0.281-1.116-0.615-1.621-1.004c-1.126-0.881-2.143-2.079-3.049-3.57
			c-0.191,1.147-0.59,2.21-1.188,3.18c-0.487,0.855-1.192,1.699-2.102,2.538c-0.911,0.832-2.123,1.474-3.633,1.919
			c-1.517,0.402-3.069,0.256-4.656-0.427c-1.596-0.688-2.994-1.791-4.199-3.303c-1.21-1.517-2.109-3.389-2.701-5.623
			c-0.595-2.233-0.664-4.72-0.198-7.456c0.326-1.784,0.922-3.37,1.788-4.776c0.872-1.401,1.867-2.614,2.985-3.634
			c1.119-1.025,2.286-1.853,3.498-2.479c1.21-0.634,2.323-1.087,3.337-1.371c1.02-0.288,1.868-0.405,2.545-0.359
			C90.091,74.21,90.434,74.422,90.424,74.791"/>
		<path d="M136.902,85.182c0.866-0.615,1.57-0.963,2.105-1.042c0.537-0.083,0.906,0.006,1.099,0.257
			c0.197,0.257,0.231,0.626,0.092,1.123c-0.137,0.495-0.424,0.996-0.858,1.516c-0.366,0.404-0.801,0.945-1.312,1.616
			c-0.513,0.671-1.034,1.385-1.577,2.133c-0.538,0.748-1.057,1.488-1.557,2.199c-0.501,0.717-0.93,1.304-1.287,1.753
			c0.79,1.98,1.454,4.027,1.995,6.136c0.54,2.109,0.887,4.174,1.036,6.186c0.153,2.019,0.068,3.926-0.243,5.731
			c-0.32,1.8-0.942,3.365-1.878,4.686c-1.312,1.874-2.79,3.122-4.442,3.743c-1.654,0.617-3.228,0.682-4.727,0.21
			c-1.495-0.483-2.805-1.453-3.929-2.916c-1.129-1.466-1.799-3.349-2.017-5.649c-0.183-2.351,0.057-4.528,0.717-6.527
			c0.659-2,1.443-3.73,2.346-5.181c1.069-1.729,2.292-3.279,3.676-4.668c-0.125-0.336-0.325-0.794-0.603-1.379
			c-0.21-0.501-0.52-1.132-0.925-1.891c-0.412-0.758-0.935-1.725-1.583-2.915c-0.391-0.688-0.831-1.337-1.317-1.939
			c-0.494-0.594-0.94-1.1-1.36-1.508c-0.524-0.482-1.016-0.894-1.465-1.246c-0.516,0.946-1.071,1.82-1.676,2.605
			c-0.487,0.669-1.051,1.292-1.693,1.878c-0.649,0.592-1.301,0.963-1.956,1.118c-0.697,0.163-1.573-0.021-2.617-0.56
			c-1.052-0.54-2.059-1.337-3.021-2.402c-0.961-1.065-1.811-2.339-2.557-3.827c-0.736-1.485-1.173-3.086-1.301-4.809
			c-0.082-1.735-0.001-3.162,0.245-4.275c0.242-1.118,0.581-2.039,1.009-2.76c0.428-0.725,0.941-1.292,1.539-1.709
			c0.593-0.414,1.2-0.768,1.82-1.049c0.927-0.405,2.103-0.54,3.535-0.418c1.437,0.127,2.836,0.39,4.193,0.785
			c1.36,0.392,2.555,0.851,3.574,1.372c1.021,0.524,1.558,0.983,1.599,1.386c0.055,0.406-0.386,0.658-1.303,0.756
			c-0.922,0.103-1.979,0.201-3.181,0.298c-1.199,0.101-2.353,0.276-3.47,0.538c-1.112,0.261-1.809,0.792-2.081,1.59
			c-0.275,0.804-0.428,1.717-0.467,2.741c-0.038,1.022,0.025,2.021,0.189,2.999c0.154,0.977,0.422,1.848,0.79,2.613
			c0.359,0.77,0.826,1.295,1.4,1.571c0.315,0.164,0.658-0.004,1.025-0.482c0.376-0.479,0.798-1.062,1.281-1.751
			c0.486-0.688,1.043-1.374,1.665-2.051c0.625-0.674,1.351-1.168,2.18-1.481c0.827-0.305,1.761-0.294,2.805,0.035
			c1.044,0.335,2.232,1.17,3.562,2.521c0.779,0.783,1.631,1.7,2.55,2.752c0.916,1.057,1.874,2.641,2.88,4.753
			c0.969-0.964,1.884-1.884,2.743-2.751C135.006,86.726,135.923,85.919,136.902,85.182 M129.043,112.404
			c0.087-0.811,0.029-1.799-0.175-2.969c-0.211-1.172-0.438-2.328-0.706-3.464c-0.357-1.3-0.745-2.663-1.17-4.083
			c-0.731,1.002-1.344,2.021-1.84,3.061c-0.44,0.885-0.767,1.883-0.991,3c-0.224,1.105-0.158,2.224,0.195,3.336
			c0.343,1.073,0.77,1.816,1.284,2.228c0.508,0.406,1.002,0.593,1.473,0.549c0.478-0.038,0.895-0.232,1.255-0.568
			C128.724,113.157,128.947,112.793,129.043,112.404"/>
		<path d="M131.628,76.26c-0.116-1.083-0.173-2.124-0.186-3.14c-0.005-1.008,0.062-1.968,0.192-2.875
			c0.131-0.909,0.329-1.705,0.58-2.382c0.257-0.686,0.587-1.211,1.011-1.589c0.429-0.331,0.998-0.703,1.71-1.125
			c0.703-0.419,1.402-0.677,2.098-0.766c0.695-0.095,1.274,0.089,1.759,0.554c0.478,0.463,0.677,1.416,0.601,2.866
			c-0.004,0.787,0.066,1.749,0.191,2.887c0.132,1.147,0.337,2.369,0.623,3.66c0.276,1.299,0.611,2.575,1.001,3.844
			c0.388,1.272,0.832,2.425,1.328,3.458c0.494,1.04,1.041,1.891,1.637,2.556c0.594,0.668,1.224,1.039,1.89,1.109
			c1.364,0.142,2.447-0.153,3.24-0.895c0.793-0.742,1.459-1.747,1.991-3.027c0.188-0.547,0.47-1.045,0.829-1.471
			c0.358-0.433,0.684-0.658,0.983-0.683c0.286-0.021,0.502,0.229,0.626,0.754c0.121,0.523,0.043,1.463-0.242,2.821
			c-0.311,1.413-0.826,2.705-1.544,3.886c-0.71,1.182-1.581,2.184-2.611,2.997c-1.034,0.819-2.192,1.426-3.481,1.822
			c-1.292,0.39-2.651,0.505-4.072,0.334c-1.408-0.136-2.631-0.507-3.645-1.119c-1.021-0.607-1.92-1.54-2.692-2.787
			c-0.786-1.249-1.473-2.824-2.081-4.733C132.756,81.306,132.171,78.987,131.628,76.26 M129.09,52.174
			c0.257-1.073,0.846-1.838,1.78-2.29c0.933-0.444,1.896-0.647,2.899-0.608c1,0.044,1.914,0.299,2.741,0.776
			c0.826,0.478,1.266,1.144,1.328,2.004c0.064,1.048-0.293,2.035-1.059,2.979c-0.772,0.941-2.115,1.545-4.037,1.811
			c-0.529,0.083-1.049-0.008-1.548-0.258c-0.495-0.251-0.935-0.596-1.315-1.042c-0.38-0.443-0.648-0.96-0.816-1.57
			C128.895,53.373,128.906,52.768,129.09,52.174"/>
		<path d="M164.725,60.545c-0.078,0.254-0.486,0.402-1.206,0.456c-0.729,0.059-1.538,0.228-2.438,0.507
			c-0.901,0.275-1.76,0.778-2.561,1.496c-0.795,0.722-1.315,1.842-1.558,3.372c-0.197,1.524-0.208,3.095-0.038,4.708
			c0.173,1.622,0.523,3.118,1.054,4.496c0.53,1.369,1.191,2.519,1.986,3.438c0.787,0.917,1.691,1.47,2.697,1.647
			c1.438,0.215,2.658,0.117,3.663-0.307c1.012-0.421,1.879-0.932,2.613-1.542c0.731-0.611,1.338-1.227,1.817-1.845
			c0.477-0.618,0.87-1.033,1.189-1.248c0.767-0.459,1.218-0.226,1.338,0.685c0.121,0.922-0.219,2.213-1.026,3.877
			c-0.427,0.929-1.016,1.863-1.767,2.795c-0.746,0.936-1.638,1.759-2.668,2.461c-1.042,0.703-2.217,1.234-3.538,1.586
			c-1.32,0.359-2.789,0.428-4.411,0.209c-1.524-0.196-2.986-0.758-4.397-1.665c-1.414-0.913-2.663-2.059-3.747-3.443
			c-1.083-1.383-1.981-2.934-2.684-4.66c-0.702-1.722-1.1-3.521-1.193-5.391c-0.093-1.866,0.155-3.762,0.743-5.67
			c0.59-1.912,1.604-3.731,3.046-5.448c1.384-1.57,2.865-2.563,4.45-2.98c1.585-0.419,3.034-0.526,4.348-0.333
			c1.312,0.205,2.389,0.608,3.222,1.217C164.494,59.574,164.852,60.103,164.725,60.545"/>
		<path d="M43.28,128.478c-0.499,0.214-1.176,0.473-2.024,0.789c-0.85,0.317-1.733,0.799-2.67,1.455
			c-0.929,0.655-1.848,1.527-2.772,2.621c-0.918,1.088-1.729,2.501-2.43,4.233c-0.958,2.39-0.951,4.139,0.021,5.252
			c0.978,1.103,3.075,1.953,6.296,2.53c1.631,0.266,3.32,0.435,5.062,0.509c1.749,0.069,3.423,0.346,5.038,0.822
			c1.605,0.476,3.107,1.299,4.481,2.476c1.386,1.171,2.543,2.962,3.477,5.372c0.707,1.857,0.753,3.573,0.131,5.151
			c-0.62,1.576-1.609,2.999-2.974,4.264c-1.356,1.259-2.948,2.325-4.748,3.18c-1.804,0.863-3.511,1.485-5.133,1.866
			c-3.303,0.819-6.226,1.052-8.749,0.703c-2.525-0.354-4.598-0.938-6.218-1.758c-1.622-0.815-2.731-1.725-3.334-2.711
			c-0.599-0.98-0.634-1.731-0.104-2.22c0.345-0.313,0.872-0.436,1.602-0.374c0.727,0.057,1.631,0.157,2.701,0.3
			c1.07,0.137,2.271,0.235,3.596,0.294c1.328,0.062,2.771-0.073,4.334-0.392c1.561-0.318,3.217-0.897,4.989-1.722
			c1.761-0.833,3.598-2.091,5.504-3.782c0.683-0.623,1.009-1.354,0.974-2.2c-0.04-0.843-0.423-1.655-1.157-2.424
			c-0.737-0.772-1.82-1.407-3.248-1.902c-1.431-0.492-3.204-0.721-5.315-0.689c-1.834,0.015-3.648,0.007-5.435-0.037
			c-1.788-0.044-3.445-0.299-4.983-0.767c-1.538-0.471-2.888-1.214-4.051-2.234c-1.163-1.016-2.05-2.464-2.679-4.348
			c-0.396-1.29-0.352-2.891,0.121-4.798c0.474-1.912,1.229-3.859,2.259-5.855c1.028-1.992,2.295-3.915,3.798-5.761
			c1.5-1.852,3.094-3.343,4.79-4.479c1.688-1.134,3.399-1.767,5.12-1.895c1.722-0.124,3.346,0.51,4.872,1.9
			c1.006,0.963,2.041,1.703,3.108,2.209c1.062,0.515,1.994,0.929,2.782,1.251c0.791,0.326,1.373,0.644,1.749,0.972
			c0.378,0.325,0.402,0.781,0.082,1.367c-0.373,0.593-0.848,0.899-1.448,0.923c-0.589,0.024-1.283-0.035-2.077-0.167
			c-0.788-0.135-1.647-0.249-2.571-0.329C45.136,127.988,44.21,128.121,43.28,128.478"/>
		<path d="M57.098,115.764c-0.05-0.815,0.308-1.355,1.072-1.634c0.767-0.27,1.634-0.285,2.607-0.057
			c0.98,0.235,1.936,0.664,2.867,1.3c0.935,0.634,1.534,1.428,1.799,2.377c0.281,0.994,0.567,2.012,0.856,3.051
			c0.292,1.036,0.554,1.964,0.795,2.789c0.276,0.988,0.538,1.921,0.791,2.784c1.453-0.478,2.753-0.83,3.899-1.051
			c1.017-0.194,1.938-0.269,2.779-0.239c0.844,0.034,1.322,0.336,1.453,0.905c0.144,0.61-0.114,1.223-0.776,1.841
			c-0.66,0.614-1.434,1.184-2.327,1.719c-1.05,0.62-2.249,1.216-3.583,1.81c0.769,2.906,1.523,5.73,2.257,8.458
			c0.608,2.393,1.21,4.902,1.803,7.526c0.59,2.631,1.026,4.945,1.318,6.949c0.245,2.02,0.241,3.54-0.008,4.567
			c-0.239,1.026-0.622,1.73-1.121,2.13c-0.506,0.396-1.083,0.59-1.735,0.577c-0.645-0.005-1.254-0.058-1.833-0.154
			c-0.279-0.026-0.628-0.43-1.04-1.21c-0.415-0.779-0.841-1.811-1.274-3.085c-0.445-1.279-0.9-2.73-1.371-4.348
			c-0.47-1.616-0.932-3.275-1.374-4.968c-1.075-3.986-2.188-8.474-3.356-13.45c-1.121,0.532-2.182,0.923-3.183,1.157
			c-0.883,0.208-1.721,0.254-2.534,0.141c-0.804-0.104-1.389-0.534-1.75-1.277c-0.271-0.584-0.127-1.192,0.44-1.835
			c0.559-0.638,1.239-1.238,2.032-1.789c0.913-0.63,2.01-1.253,3.291-1.88l-0.246-1.05c-0.072-0.306-0.138-0.617-0.192-0.955
			c-0.055-0.334-0.104-0.609-0.156-0.827c-0.409-1.747-0.763-3.161-1.065-4.243c-0.3-1.081-0.537-1.981-0.706-2.708
			c-0.168-0.718-0.283-1.312-0.348-1.783C57.119,116.836,57.09,116.325,57.098,115.764"/>
		<path d="M78.998,133.376c-0.542-0.147-1.017-0.2-1.419-0.147c-0.403,0.043-0.77,0.111-1.101,0.188
			c-0.322,0.077-0.613,0.109-0.874,0.1c-0.254-0.01-0.509-0.169-0.762-0.475c-0.206-0.274-0.095-0.742,0.324-1.392
			c0.429-0.655,1.055-1.263,1.895-1.826c0.836-0.565,1.823-0.944,2.98-1.15c1.149-0.197,2.346-0.007,3.594,0.578
			c1.097,0.568,2.026,1.147,2.784,1.729c0.76,0.582,1.38,1.117,1.864,1.601c0.547,0.564,0.978,1.134,1.3,1.703
			c0.948-1.467,1.979-2.75,3.107-3.841c0.971-0.964,2.108-1.834,3.403-2.596c1.294-0.767,2.685-1.111,4.175-1.044
			c0.383,0.046,0.613,0.278,0.683,0.7c0.076,0.421,0.005,0.913-0.208,1.466c-0.218,0.561-0.555,1.121-1.021,1.691
			c-0.467,0.57-1.077,1.036-1.815,1.399c-1.45,0.702-2.51,1.649-3.174,2.814c-0.672,1.171-1.101,2.456-1.271,3.859
			c-0.183,1.4-0.168,2.846,0.045,4.343c0.213,1.49,0.48,2.919,0.798,4.268c0.706,2.836,0.812,5.037,0.304,6.605
			c-0.513,1.572-1.451,2.563-2.829,2.979c-1.597,0.465-2.978,0.004-4.129-1.387c-1.155-1.383-2.169-3.956-3.051-7.719
			c-0.518-2.362-0.975-4.425-1.385-6.172s-0.814-3.208-1.23-4.376c-0.411-1.17-0.854-2.071-1.326-2.697
			C80.194,133.951,79.635,133.551,78.998,133.376"/>
		<path d="M120.052,121.536c0.002,0.604-0.258,1.159-0.784,1.67c-0.521,0.517-1.132,1.062-1.827,1.636
			c-0.695,0.581-1.399,1.208-2.119,1.885c-0.715,0.674-1.269,1.472-1.649,2.394c-0.572,1.471-0.837,3.119-0.778,4.952
			c0.063,1.824,0.293,3.536,0.687,5.127c0.4,1.59,0.915,2.921,1.563,3.992c0.64,1.071,1.245,1.535,1.812,1.402
			c0.702-0.165,1.353-0.659,1.968-1.498c0.606-0.835,1.112-1.746,1.533-2.743c0.405-0.994,0.705-1.987,0.886-2.975
			c0.188-0.989,0.225-1.721,0.108-2.197c-0.108-0.484-0.287-1.146-0.534-1.989c-0.243-0.839-0.428-1.689-0.562-2.528
			c-0.128-0.85-0.156-1.601-0.108-2.258c0.052-0.658,0.31-1.067,0.782-1.224c0.471-0.154,1.021-0.396,1.662-0.731
			c0.634-0.328,1.272-0.507,1.915-0.515c0.645-0.012,1.234,0.294,1.773,0.929c0.545,0.63,0.97,1.833,1.301,3.604
			c0.696,3.567,1.499,6.2,2.404,7.901c0.9,1.703,2.087,2.542,3.563,2.517c0.996-0.051,1.811-0.48,2.423-1.294
			c0.623-0.813,1.136-1.687,1.569-2.614c0.424-0.926,0.783-1.759,1.072-2.497c0.283-0.736,0.577-1.071,0.873-0.999
			c0.331,0.058,0.574,0.58,0.714,1.562c0.131,0.983,0.057,2.139-0.222,3.472c-0.292,1.332-0.85,2.732-1.681,4.194
			c-0.835,1.462-2.049,2.728-3.642,3.793c-0.835,0.563-1.647,0.941-2.432,1.126c-0.788,0.183-1.526,0.242-2.209,0.169
			c-0.681-0.065-1.312-0.245-1.883-0.527c-0.572-0.278-1.114-0.61-1.622-1.003c-1.125-0.883-2.141-2.073-3.044-3.566
			c-0.197,1.147-0.592,2.213-1.193,3.178c-0.495,0.855-1.192,1.7-2.104,2.532c-0.91,0.837-2.119,1.484-3.626,1.925
			c-1.521,0.403-3.071,0.265-4.665-0.427c-1.591-0.691-2.989-1.789-4.197-3.301c-1.209-1.519-2.104-3.389-2.699-5.626
			c-0.59-2.237-0.658-4.718-0.199-7.451c0.324-1.783,0.92-3.378,1.788-4.777c0.87-1.401,1.864-2.616,2.984-3.64
			c1.124-1.02,2.285-1.848,3.502-2.479c1.211-0.631,2.318-1.087,3.339-1.368c1.014-0.286,1.862-0.405,2.547-0.36
			C119.716,120.956,120.056,121.166,120.052,121.536"/>
		<path d="M136.803,118.988c0.818-0.649,1.643-1.07,2.473-1.265c0.83-0.195,1.588-0.217,2.27-0.051
			c0.685,0.161,1.263,0.479,1.74,0.942c0.479,0.463,0.771,1.003,0.864,1.627c0.316,2.924,0.958,5.55,1.919,7.879
			c0.967,2.334,1.971,4.264,3.02,5.791c1.047,1.527,2.024,2.604,2.934,3.221c0.906,0.619,1.435,0.656,1.579,0.111
			c0.152-0.543,0.22-1.627,0.207-3.262c-0.018-1.633,0.029-3.456,0.131-5.461c0.108-2.003,0.362-4.009,0.766-6.021
			c0.41-2.01,1.127-3.659,2.161-4.962c1.026-1.302,1.994-2.106,2.891-2.409c0.896-0.302,1.726-0.29,2.499,0.036
			c0.764,0.327,1.485,0.886,2.152,1.673c0.667,0.786,1.307,1.599,1.913,2.424c0.617,0.866,1.275,2.02,1.953,3.445
			c0.682,1.432,1.366,2.783,2.055,4.045c0.687,1.271,1.334,2.263,1.938,2.972c0.606,0.712,1.165,0.774,1.678,0.194
			c0.317-0.396,0.584-1.13,0.793-2.19c0.212-1.065,0.417-2.3,0.618-3.71c0.199-1.407,0.431-2.876,0.694-4.413
			c0.258-1.537,0.605-2.977,1.023-4.322c0.425-1.342,0.976-2.489,1.651-3.425c0.675-0.943,1.55-1.517,2.61-1.718
			c1.145-0.22,2.273-0.175,3.384,0.137c1.11,0.316,2.108,0.758,3,1.308c0.891,0.55,1.615,1.148,2.186,1.8
			c0.57,0.652,0.905,1.217,1.02,1.697c0.111,0.478-0.068,0.786-0.545,0.924c-0.476,0.134-1.305-0.056-2.479-0.56
			c-1.227-0.497-2.331,0.005-3.314,1.501c-0.986,1.501-1.462,3.884-1.437,7.146c0.009,1.614-0.053,3.066-0.185,4.365
			c-0.137,1.298-0.396,2.441-0.783,3.438c-0.393,0.983-0.963,1.845-1.714,2.57c-0.752,0.732-1.748,1.312-2.976,1.739
			c-1.154,0.402-2.304,0.413-3.455,0.017c-1.156-0.398-2.259-1.016-3.305-1.854c-1.057-0.839-1.995-1.804-2.825-2.9
			c-0.834-1.093-1.457-2.145-1.881-3.151c-0.449-0.948-0.808-1.619-1.054-2c-0.248-0.375-0.44-0.485-0.558-0.318
			c-0.129,0.167-0.224,0.584-0.3,1.248c-0.073,0.661-0.189,1.541-0.345,2.639c-0.119,1.083-0.235,2.171-0.341,3.255
			c-0.113,1.089-0.359,2.125-0.726,3.111c-0.367,0.987-0.922,1.926-1.656,2.813c-0.735,0.885-1.812,1.655-3.229,2.31
			c-1.369,0.641-2.74,0.951-4.1,0.921c-1.371-0.021-2.67-0.26-3.901-0.707c-1.235-0.442-2.374-1.021-3.41-1.722
			c-1.048-0.701-1.931-1.43-2.654-2.175c-0.487-0.49-1.073-1.213-1.759-2.183c-0.691-0.965-1.379-2.072-2.09-3.314
			c-0.705-1.242-1.368-2.538-1.984-3.886c-0.618-1.357-1.103-2.647-1.464-3.875c-0.355-1.23-0.526-2.334-0.498-3.311
			C135.983,120.153,136.269,119.438,136.803,118.988"/>
	</g>
	<g>
		<g>
			<g>
				<path fill="none" stroke="#F04923" stroke-width="15" stroke-miterlimit="10" d="M-60.055,107.861"/>
				<path fill="none" stroke="#F04923" stroke-width="15" stroke-miterlimit="10" d="M72.153,105.212
					c-4.37,0.651-8.142-0.343-11.341-2.972c-3.205-2.644-5.883-6.496-8.039-11.569c-0.789-1.792-1.463-3.663-2.039-5.603
					c-0.572-1.938-1.109-3.875-1.607-5.807c-0.5-1.937-0.973-3.859-1.418-5.758c-0.444-1.895-0.9-3.74-1.361-5.52
					c-1.269,0.483-2.195,1.654-2.773,3.52c-0.579,1.862-0.921,4.06-1.044,6.6c-0.119,2.544-0.071,5.249,0.14,8.127
					c0.216,2.877,0.449,5.589,0.7,8.132c0.25,2.544,0.482,4.752,0.692,6.618c0.201,1.859,0.237,3.013,0.117,3.46
					c-0.118,0.676-0.444,1.26-0.978,1.748c-0.529,0.491-1.144,0.858-1.85,1.094c-0.702,0.229-1.439,0.337-2.208,0.308
					c-0.769-0.023-1.425-0.227-1.973-0.604c-1.32-0.891-2.481-2.219-3.496-3.99c-1.01-1.768-1.784-3.601-2.328-5.5
					c-1.256-4.594-2.708-9.241-4.342-13.955c-1.636-4.706-3.477-9.172-5.527-13.393c-0.252,0.292-0.512,0.598-0.788,0.911
					c-0.269,0.321-0.515,0.749-0.736,1.28c-0.221,0.538-0.433,1.22-0.626,2.05c-0.198,0.829-0.353,1.879-0.469,3.15
					c-0.093,0.994-0.082,2.326,0.04,3.999c0.114,1.681,0.305,3.528,0.569,5.536c0.263,2.016,0.573,4.107,0.921,6.281
					c0.35,2.183,0.692,4.254,1.042,6.222c0.349,1.968,0.672,3.739,0.969,5.309c0.299,1.562,0.522,2.767,0.676,3.604
					c0.109,0.669-0.109,1.282-0.64,1.85c-0.537,0.561-1.217,0.959-2.037,1.199c-0.823,0.242-1.682,0.283-2.595,0.132
					c-0.91-0.156-1.664-0.605-2.252-1.341c-0.901-1.086-1.615-2.354-2.14-3.825c-0.532-1.464-0.946-2.99-1.246-4.582
					c-0.304-1.587-0.519-3.172-0.636-4.76c-0.121-1.584-0.225-3.081-0.325-4.489c-0.102-1.214-0.196-2.792-0.282-4.735
					c-0.081-1.936-0.094-3.989-0.024-6.151c0.068-2.158,0.269-4.31,0.594-6.458c0.329-2.152,0.865-4.067,1.627-5.744
					c0.757-1.673,1.798-2.993,3.116-3.948c1.321-0.95,2.979-1.317,4.964-1.094c1.285,0.163,2.512,0.887,3.693,2.176
					c1.172,1.297,2.275,2.925,3.29,4.898c1.017,1.976,1.956,4.163,2.82,6.567c0.862,2.402,1.637,4.765,2.318,7.093
					c0.689,2.331,1.272,4.498,1.768,6.502c0.493,2.005,0.898,3.592,1.221,4.76c0.132-1.001,0.24-2.35,0.323-4.052
					c0.092-1.703,0.197-3.592,0.331-5.675c0.134-2.084,0.315-4.247,0.553-6.491c0.235-2.245,0.561-4.421,0.992-6.527
					c0.43-2.102,0.962-4.038,1.611-5.809c0.649-1.762,1.446-3.174,2.399-4.225c0.951-1.049,2.084-1.672,3.396-1.868
					c1.312-0.191,2.854,0.224,4.611,1.238c1.177,0.693,2.321,1.979,3.434,3.861c1.108,1.882,2.192,4.058,3.257,6.528
					c1.062,2.47,2.101,5.087,3.118,7.842c1.012,2.759,2,5.339,2.956,7.74c0.953,2.406,1.873,4.482,2.738,6.241
					c0.875,1.754,1.738,2.874,2.591,3.365c1.293,0.805,2.458,1.233,3.479,1.292c1.028,0.057,1.924,0.024,2.673-0.11
					c0.755-0.13,1.405-0.256,1.953-0.385c0.544-0.127,0.981,0.02,1.312,0.455c0.265,0.347,0.315,0.788,0.139,1.313
					c-0.177,0.53-0.528,1.048-1.051,1.56c-0.528,0.516-1.221,1-2.079,1.454C74.187,104.745,73.22,105.052,72.153,105.212"/>
				<path fill="none" stroke="#F04923" stroke-width="15" stroke-miterlimit="10" d="M83.424,67.791
					c0.004,0.597-0.256,1.158-0.781,1.671c-0.525,0.513-1.14,1.06-1.829,1.639c-0.697,0.579-1.4,1.201-2.119,1.877
					c-0.715,0.674-1.269,1.476-1.645,2.392c-0.579,1.473-0.839,3.125-0.779,4.955c0.064,1.83,0.287,3.536,0.681,5.125
					c0.399,1.586,0.919,2.922,1.563,3.995c0.644,1.07,1.247,1.539,1.818,1.405c0.695-0.163,1.354-0.665,1.962-1.502
					c0.608-0.835,1.117-1.746,1.528-2.744c0.415-0.998,0.715-1.982,0.896-2.974c0.185-0.99,0.223-1.721,0.108-2.207
					c-0.111-0.476-0.291-1.133-0.534-1.98c-0.246-0.838-0.429-1.684-0.562-2.528c-0.128-0.842-0.165-1.599-0.112-2.256
					c0.056-0.657,0.313-1.063,0.783-1.218c0.471-0.158,1.019-0.402,1.661-0.74c0.636-0.327,1.278-0.503,1.92-0.515
					c0.64-0.013,1.232,0.296,1.772,0.935c0.541,0.63,0.975,1.83,1.294,3.597c0.701,3.576,1.499,6.21,2.405,7.906
					c0.907,1.702,2.098,2.542,3.571,2.519c0.993-0.049,1.81-0.485,2.422-1.293c0.616-0.813,1.133-1.687,1.564-2.616
					c0.429-0.934,0.788-1.762,1.073-2.495c0.286-0.735,0.576-1.071,0.873-1.002c0.335,0.057,0.572,0.582,0.712,1.562
					c0.139,0.982,0.061,2.139-0.224,3.473c-0.288,1.331-0.844,2.736-1.679,4.197c-0.828,1.465-2.046,2.727-3.641,3.788
					c-0.835,0.569-1.643,0.942-2.433,1.127c-0.782,0.183-1.521,0.244-2.202,0.172c-0.688-0.074-1.317-0.246-1.889-0.525
					c-0.57-0.281-1.116-0.615-1.621-1.004c-1.126-0.881-2.143-2.079-3.049-3.57c-0.191,1.147-0.59,2.21-1.188,3.18
					c-0.487,0.855-1.192,1.699-2.102,2.538c-0.911,0.832-2.123,1.474-3.633,1.919c-1.517,0.402-3.069,0.256-4.656-0.427
					c-1.596-0.687-2.994-1.792-4.199-3.303c-1.21-1.517-2.109-3.389-2.701-5.623c-0.595-2.233-0.664-4.72-0.198-7.456
					c0.326-1.784,0.922-3.37,1.788-4.776c0.872-1.401,1.867-2.614,2.985-3.634c1.119-1.025,2.286-1.853,3.498-2.479
					c1.21-0.634,2.323-1.087,3.337-1.371c1.02-0.288,1.868-0.405,2.545-0.359C83.091,67.21,83.434,67.422,83.424,67.791"/>
				<path fill="none" stroke="#F04923" stroke-width="15" stroke-miterlimit="10" d="M129.902,78.182
					c0.866-0.615,1.57-0.963,2.105-1.042c0.537-0.083,0.906,0.006,1.099,0.257c0.197,0.257,0.231,0.626,0.092,1.123
					c-0.137,0.495-0.424,0.996-0.858,1.516c-0.366,0.404-0.801,0.945-1.312,1.616c-0.513,0.671-1.034,1.385-1.577,2.133
					c-0.538,0.748-1.057,1.488-1.557,2.199c-0.501,0.717-0.93,1.304-1.287,1.753c0.79,1.98,1.454,4.027,1.995,6.136
					c0.54,2.11,0.887,4.173,1.036,6.186c0.153,2.018,0.068,3.925-0.243,5.731c-0.32,1.8-0.942,3.365-1.878,4.686
					c-1.312,1.874-2.79,3.122-4.442,3.743c-1.654,0.617-3.228,0.682-4.727,0.21c-1.495-0.483-2.805-1.453-3.929-2.916
					c-1.129-1.466-1.799-3.349-2.017-5.649c-0.183-2.351,0.057-4.528,0.717-6.528c0.659-1.999,1.443-3.729,2.346-5.18
					c1.069-1.729,2.292-3.279,3.676-4.668c-0.125-0.336-0.325-0.794-0.603-1.379c-0.21-0.501-0.52-1.132-0.925-1.891
					c-0.412-0.758-0.935-1.725-1.583-2.915c-0.391-0.688-0.831-1.337-1.317-1.939c-0.494-0.594-0.94-1.1-1.36-1.508
					c-0.524-0.482-1.016-0.894-1.465-1.246c-0.516,0.946-1.071,1.82-1.676,2.605c-0.487,0.669-1.051,1.292-1.693,1.878
					c-0.649,0.592-1.301,0.963-1.956,1.118c-0.697,0.163-1.573-0.021-2.617-0.56c-1.052-0.54-2.059-1.337-3.02-2.402
					c-0.961-1.065-1.811-2.339-2.557-3.827c-0.736-1.485-1.173-3.086-1.3-4.809c-0.082-1.735-0.001-3.162,0.245-4.275
					c0.242-1.118,0.581-2.039,1.009-2.76c0.428-0.725,0.942-1.292,1.54-1.709c0.592-0.414,1.2-0.768,1.82-1.049
					c0.927-0.405,2.103-0.54,3.535-0.418c1.437,0.127,2.836,0.39,4.193,0.785c1.36,0.392,2.555,0.851,3.574,1.372
					c1.021,0.524,1.558,0.983,1.599,1.386c0.055,0.406-0.386,0.658-1.303,0.756c-0.922,0.103-1.979,0.201-3.181,0.298
					c-1.199,0.101-2.353,0.276-3.47,0.538c-1.112,0.261-1.809,0.792-2.081,1.59c-0.275,0.804-0.428,1.717-0.467,2.741
					c-0.038,1.022,0.025,2.021,0.189,2.999c0.154,0.977,0.422,1.848,0.79,2.613c0.359,0.77,0.826,1.295,1.4,1.571
					c0.315,0.164,0.658-0.004,1.025-0.482c0.376-0.479,0.798-1.062,1.281-1.751c0.486-0.688,1.043-1.374,1.665-2.051
					c0.625-0.674,1.351-1.168,2.18-1.481c0.827-0.305,1.761-0.294,2.805,0.035c1.044,0.335,2.232,1.17,3.562,2.521
					c0.779,0.783,1.631,1.7,2.55,2.752c0.916,1.057,1.874,2.641,2.88,4.753c0.969-0.964,1.884-1.884,2.743-2.751
					C128.006,79.726,128.923,78.919,129.902,78.182 M122.043,105.404c0.087-0.811,0.029-1.799-0.175-2.969
					c-0.211-1.172-0.438-2.329-0.706-3.464c-0.357-1.3-0.745-2.663-1.17-4.083c-0.731,1.002-1.344,2.021-1.84,3.06
					c-0.44,0.885-0.767,1.883-0.991,3c-0.224,1.106-0.158,2.224,0.195,3.336c0.343,1.073,0.77,1.816,1.284,2.228
					c0.508,0.406,1.002,0.593,1.473,0.549c0.478-0.038,0.895-0.232,1.255-0.568C121.724,106.157,121.947,105.793,122.043,105.404"/>
				<path fill="none" stroke="#F04923" stroke-width="15" stroke-miterlimit="10" d="M124.628,69.26
					c-0.116-1.083-0.173-2.124-0.186-3.14c-0.005-1.008,0.062-1.968,0.192-2.875c0.131-0.909,0.329-1.705,0.58-2.382
					c0.257-0.686,0.587-1.211,1.011-1.589c0.429-0.331,0.998-0.703,1.71-1.125c0.703-0.419,1.402-0.677,2.098-0.766
					c0.695-0.095,1.274,0.089,1.759,0.554c0.478,0.463,0.677,1.416,0.601,2.866c-0.004,0.787,0.066,1.749,0.191,2.887
					c0.132,1.147,0.337,2.369,0.623,3.66c0.276,1.299,0.611,2.575,1.001,3.844c0.388,1.272,0.832,2.425,1.328,3.458
					c0.494,1.04,1.041,1.891,1.637,2.556c0.594,0.668,1.224,1.039,1.89,1.109c1.364,0.142,2.447-0.153,3.24-0.895
					c0.793-0.742,1.459-1.747,1.991-3.027c0.188-0.547,0.47-1.045,0.829-1.471c0.358-0.433,0.684-0.658,0.983-0.683
					c0.286-0.021,0.502,0.229,0.626,0.754c0.121,0.523,0.043,1.463-0.242,2.821c-0.311,1.413-0.826,2.705-1.544,3.886
					c-0.71,1.182-1.581,2.184-2.611,2.997c-1.034,0.819-2.192,1.426-3.481,1.822c-1.292,0.39-2.651,0.505-4.072,0.334
					c-1.408-0.136-2.631-0.507-3.645-1.119c-1.021-0.607-1.92-1.54-2.692-2.787c-0.786-1.249-1.473-2.824-2.081-4.733
					C125.756,74.306,125.171,71.987,124.628,69.26 M122.09,45.174c0.257-1.073,0.846-1.838,1.78-2.29
					c0.933-0.444,1.896-0.647,2.899-0.608c1,0.044,1.914,0.299,2.741,0.776c0.826,0.478,1.266,1.144,1.328,2.004
					c0.064,1.048-0.293,2.035-1.059,2.979c-0.772,0.941-2.115,1.545-4.037,1.811c-0.529,0.083-1.049-0.008-1.548-0.258
					c-0.495-0.251-0.935-0.596-1.315-1.042c-0.38-0.443-0.648-0.96-0.816-1.57C121.895,46.373,121.906,45.768,122.09,45.174"/>
				<path fill="none" stroke="#F04923" stroke-width="15" stroke-miterlimit="10" d="M157.725,53.545
					c-0.078,0.254-0.486,0.402-1.206,0.456c-0.729,0.059-1.538,0.228-2.438,0.507c-0.901,0.275-1.76,0.778-2.561,1.496
					c-0.795,0.722-1.315,1.842-1.558,3.372c-0.197,1.524-0.208,3.095-0.038,4.708c0.173,1.622,0.523,3.118,1.054,4.496
					c0.53,1.369,1.191,2.519,1.986,3.438c0.787,0.917,1.691,1.47,2.697,1.647c1.438,0.215,2.658,0.117,3.663-0.307
					c1.012-0.421,1.879-0.932,2.613-1.542c0.731-0.611,1.338-1.227,1.817-1.845c0.477-0.618,0.87-1.033,1.189-1.248
					c0.767-0.459,1.218-0.226,1.338,0.685c0.121,0.922-0.219,2.213-1.026,3.877c-0.427,0.929-1.016,1.863-1.767,2.795
					c-0.746,0.936-1.638,1.759-2.668,2.461c-1.042,0.703-2.217,1.234-3.538,1.586c-1.32,0.359-2.789,0.428-4.411,0.209
					c-1.524-0.196-2.986-0.758-4.397-1.665c-1.414-0.913-2.663-2.059-3.747-3.443c-1.083-1.383-1.981-2.934-2.684-4.66
					c-0.702-1.722-1.1-3.521-1.193-5.391c-0.093-1.866,0.155-3.762,0.743-5.67c0.59-1.912,1.604-3.731,3.046-5.448
					c1.384-1.57,2.865-2.563,4.45-2.98c1.585-0.419,3.034-0.526,4.348-0.333c1.312,0.205,2.389,0.608,3.222,1.217
					C157.494,52.574,157.852,53.103,157.725,53.545"/>
				<path fill="none" stroke="#F04923" stroke-width="15" stroke-miterlimit="10" d="M36.28,121.478
					c-0.499,0.214-1.176,0.473-2.024,0.789c-0.85,0.317-1.733,0.799-2.67,1.455c-0.929,0.655-1.848,1.527-2.772,2.621
					c-0.918,1.088-1.729,2.501-2.43,4.233c-0.958,2.39-0.951,4.139,0.021,5.252c0.978,1.103,3.075,1.953,6.296,2.53
					c1.631,0.266,3.32,0.435,5.062,0.509c1.749,0.069,3.423,0.346,5.038,0.822c1.605,0.476,3.107,1.299,4.481,2.476
					c1.386,1.171,2.543,2.962,3.477,5.372c0.707,1.857,0.753,3.573,0.131,5.151c-0.62,1.576-1.609,2.999-2.974,4.264
					c-1.356,1.259-2.948,2.325-4.748,3.18c-1.804,0.863-3.511,1.485-5.133,1.866c-3.303,0.819-6.226,1.052-8.749,0.703
					c-2.525-0.354-4.598-0.938-6.218-1.758c-1.622-0.815-2.731-1.725-3.334-2.711c-0.599-0.98-0.634-1.731-0.104-2.22
					c0.345-0.313,0.872-0.436,1.602-0.374c0.727,0.057,1.631,0.157,2.701,0.3c1.07,0.137,2.271,0.235,3.596,0.294
					c1.328,0.062,2.771-0.073,4.334-0.392c1.561-0.318,3.217-0.897,4.989-1.722c1.761-0.833,3.598-2.091,5.504-3.782
					c0.683-0.623,1.009-1.354,0.974-2.2c-0.04-0.843-0.423-1.655-1.157-2.424c-0.737-0.772-1.82-1.407-3.248-1.902
					c-1.431-0.492-3.204-0.721-5.315-0.689c-1.834,0.015-3.648,0.007-5.435-0.037c-1.788-0.044-3.445-0.299-4.983-0.767
					c-1.538-0.471-2.888-1.214-4.051-2.234c-1.163-1.016-2.05-2.464-2.679-4.348c-0.396-1.29-0.352-2.891,0.121-4.798
					c0.474-1.912,1.229-3.859,2.259-5.855c1.028-1.992,2.295-3.915,3.798-5.761c1.5-1.852,3.094-3.343,4.79-4.479
					c1.688-1.134,3.399-1.767,5.12-1.895c1.722-0.124,3.346,0.51,4.872,1.9c1.006,0.963,2.041,1.703,3.108,2.209
					c1.062,0.515,1.994,0.929,2.782,1.251c0.791,0.326,1.373,0.644,1.749,0.972c0.378,0.325,0.402,0.781,0.082,1.367
					c-0.373,0.593-0.848,0.899-1.448,0.923c-0.589,0.024-1.283-0.035-2.077-0.167c-0.788-0.135-1.647-0.249-2.571-0.329
					C38.136,120.988,37.21,121.121,36.28,121.478"/>
				<path fill="none" stroke="#F04923" stroke-width="15" stroke-miterlimit="10" d="M50.098,108.764
					c-0.05-0.815,0.308-1.355,1.072-1.634c0.767-0.27,1.634-0.285,2.607-0.057c0.98,0.235,1.936,0.664,2.867,1.3
					c0.935,0.634,1.534,1.428,1.799,2.377c0.281,0.994,0.567,2.012,0.856,3.051c0.292,1.036,0.554,1.964,0.795,2.789
					c0.276,0.988,0.538,1.921,0.791,2.784c1.453-0.478,2.753-0.83,3.899-1.051c1.017-0.194,1.938-0.269,2.779-0.239
					c0.844,0.034,1.322,0.336,1.453,0.905c0.144,0.61-0.114,1.223-0.776,1.841c-0.66,0.614-1.434,1.184-2.327,1.719
					c-1.05,0.62-2.249,1.216-3.583,1.81c0.769,2.906,1.523,5.73,2.257,8.458c0.608,2.393,1.21,4.902,1.803,7.526
					c0.59,2.631,1.026,4.945,1.318,6.949c0.245,2.02,0.241,3.54-0.008,4.567c-0.239,1.026-0.622,1.73-1.121,2.13
					c-0.506,0.396-1.083,0.59-1.735,0.577c-0.645-0.005-1.254-0.058-1.833-0.154c-0.279-0.026-0.628-0.43-1.04-1.21
					c-0.415-0.779-0.841-1.811-1.274-3.085c-0.445-1.279-0.9-2.73-1.371-4.348c-0.47-1.616-0.932-3.275-1.374-4.968
					c-1.075-3.986-2.188-8.474-3.356-13.45c-1.121,0.532-2.182,0.923-3.183,1.157c-0.883,0.208-1.721,0.254-2.534,0.141
					c-0.804-0.104-1.389-0.534-1.75-1.277c-0.271-0.584-0.127-1.192,0.44-1.835c0.559-0.638,1.239-1.238,2.032-1.789
					c0.913-0.63,2.01-1.253,3.291-1.88l-0.246-1.05c-0.072-0.306-0.138-0.617-0.192-0.955c-0.055-0.334-0.104-0.609-0.156-0.827
					c-0.409-1.747-0.763-3.161-1.065-4.243c-0.3-1.081-0.537-1.981-0.706-2.708c-0.168-0.718-0.283-1.312-0.348-1.783
					C50.119,109.836,50.09,109.325,50.098,108.764"/>
				<path fill="none" stroke="#F04923" stroke-width="15" stroke-miterlimit="10" d="M71.998,126.376
					c-0.542-0.147-1.017-0.2-1.419-0.147c-0.403,0.043-0.77,0.111-1.101,0.188c-0.322,0.077-0.613,0.109-0.874,0.1
					c-0.254-0.01-0.509-0.169-0.762-0.475c-0.206-0.274-0.095-0.742,0.324-1.392c0.429-0.655,1.055-1.263,1.895-1.826
					c0.836-0.565,1.823-0.944,2.98-1.15c1.149-0.197,2.346-0.007,3.594,0.578c1.097,0.568,2.026,1.147,2.784,1.729
					c0.76,0.582,1.38,1.117,1.864,1.601c0.547,0.564,0.978,1.134,1.3,1.703c0.948-1.467,1.979-2.75,3.107-3.841
					c0.971-0.964,2.108-1.834,3.403-2.596c1.294-0.767,2.685-1.111,4.175-1.044c0.383,0.046,0.613,0.278,0.683,0.7
					c0.076,0.421,0.005,0.913-0.208,1.466c-0.218,0.561-0.555,1.121-1.021,1.691c-0.467,0.57-1.077,1.036-1.815,1.399
					c-1.45,0.702-2.51,1.649-3.174,2.814c-0.672,1.171-1.101,2.456-1.271,3.859c-0.183,1.4-0.168,2.846,0.045,4.343
					c0.213,1.49,0.48,2.919,0.798,4.268c0.706,2.836,0.812,5.037,0.304,6.605c-0.513,1.572-1.451,2.563-2.829,2.979
					c-1.597,0.465-2.978,0.004-4.129-1.387c-1.155-1.383-2.169-3.956-3.051-7.719c-0.518-2.362-0.975-4.425-1.385-6.172
					s-0.814-3.208-1.23-4.376c-0.411-1.17-0.854-2.071-1.326-2.697C73.194,126.951,72.635,126.551,71.998,126.376"/>
				<path fill="none" stroke="#F04923" stroke-width="15" stroke-miterlimit="10" d="M113.052,114.536
					c0.002,0.604-0.258,1.159-0.784,1.67c-0.521,0.517-1.132,1.062-1.827,1.636c-0.695,0.581-1.399,1.208-2.119,1.885
					c-0.715,0.674-1.269,1.472-1.649,2.394c-0.572,1.471-0.837,3.119-0.778,4.952c0.063,1.824,0.293,3.536,0.687,5.127
					c0.4,1.59,0.915,2.921,1.563,3.992c0.64,1.071,1.245,1.535,1.812,1.402c0.702-0.165,1.353-0.659,1.968-1.498
					c0.606-0.835,1.112-1.746,1.533-2.743c0.405-0.994,0.705-1.987,0.886-2.975c0.188-0.989,0.225-1.721,0.108-2.197
					c-0.108-0.484-0.287-1.146-0.534-1.989c-0.243-0.839-0.428-1.689-0.562-2.528c-0.128-0.85-0.156-1.601-0.108-2.258
					c0.052-0.658,0.31-1.067,0.782-1.224c0.471-0.154,1.021-0.396,1.662-0.731c0.634-0.328,1.272-0.507,1.915-0.515
					c0.645-0.012,1.234,0.294,1.773,0.929c0.545,0.63,0.97,1.833,1.301,3.604c0.696,3.567,1.499,6.2,2.404,7.901
					c0.9,1.703,2.087,2.542,3.563,2.517c0.996-0.051,1.811-0.48,2.423-1.294c0.623-0.813,1.136-1.687,1.569-2.614
					c0.424-0.926,0.783-1.759,1.072-2.497c0.283-0.736,0.577-1.071,0.873-0.999c0.331,0.058,0.574,0.58,0.714,1.562
					c0.131,0.983,0.057,2.139-0.222,3.472c-0.292,1.332-0.85,2.732-1.681,4.194c-0.835,1.462-2.049,2.728-3.642,3.793
					c-0.835,0.563-1.647,0.941-2.432,1.126c-0.788,0.183-1.526,0.242-2.209,0.169c-0.681-0.065-1.312-0.245-1.883-0.527
					c-0.572-0.278-1.114-0.61-1.622-1.003c-1.125-0.883-2.141-2.073-3.044-3.566c-0.197,1.147-0.592,2.213-1.193,3.178
					c-0.495,0.855-1.192,1.7-2.104,2.532c-0.91,0.837-2.119,1.484-3.626,1.925c-1.521,0.403-3.071,0.265-4.665-0.427
					c-1.591-0.691-2.989-1.789-4.198-3.301c-1.208-1.519-2.104-3.389-2.699-5.626c-0.59-2.237-0.658-4.718-0.199-7.451
					c0.323-1.783,0.919-3.378,1.788-4.777c0.871-1.401,1.864-2.616,2.984-3.64c1.124-1.02,2.285-1.848,3.502-2.479
					c1.211-0.631,2.318-1.087,3.339-1.368c1.014-0.286,1.862-0.405,2.547-0.36C112.716,113.956,113.056,114.166,113.052,114.536"/>
				<path fill="none" stroke="#F04923" stroke-width="15" stroke-miterlimit="10" d="M129.803,111.988
					c0.818-0.649,1.643-1.07,2.473-1.265c0.83-0.195,1.588-0.217,2.27-0.051c0.685,0.161,1.263,0.479,1.74,0.942
					c0.479,0.463,0.771,1.003,0.864,1.627c0.316,2.924,0.958,5.55,1.919,7.879c0.967,2.334,1.971,4.264,3.02,5.791
					c1.047,1.527,2.024,2.604,2.934,3.221c0.906,0.619,1.435,0.656,1.579,0.111c0.152-0.543,0.22-1.627,0.207-3.262
					c-0.018-1.633,0.029-3.456,0.131-5.461c0.108-2.003,0.362-4.009,0.766-6.021c0.41-2.01,1.127-3.659,2.161-4.962
					c1.026-1.302,1.994-2.106,2.891-2.409c0.896-0.302,1.726-0.29,2.499,0.036c0.764,0.327,1.485,0.886,2.152,1.673
					c0.667,0.786,1.307,1.599,1.913,2.424c0.617,0.866,1.275,2.02,1.953,3.445c0.682,1.432,1.366,2.783,2.055,4.045
					c0.687,1.271,1.334,2.263,1.938,2.972c0.606,0.712,1.165,0.774,1.678,0.194c0.317-0.396,0.584-1.13,0.793-2.19
					c0.212-1.065,0.417-2.3,0.618-3.71c0.199-1.407,0.431-2.876,0.694-4.413c0.258-1.537,0.605-2.977,1.023-4.322
					c0.425-1.342,0.976-2.489,1.651-3.425c0.675-0.943,1.55-1.517,2.61-1.718c1.145-0.22,2.273-0.175,3.384,0.137
					c1.11,0.316,2.108,0.758,3,1.308c0.891,0.55,1.615,1.148,2.186,1.8c0.57,0.652,0.905,1.217,1.02,1.697
					c0.111,0.478-0.068,0.786-0.545,0.924c-0.476,0.134-1.305-0.056-2.479-0.56c-1.227-0.497-2.331,0.005-3.314,1.501
					c-0.986,1.501-1.462,3.884-1.437,7.146c0.009,1.614-0.053,3.066-0.185,4.365c-0.137,1.298-0.396,2.441-0.783,3.438
					c-0.393,0.983-0.963,1.845-1.714,2.57c-0.752,0.732-1.748,1.312-2.976,1.739c-1.154,0.402-2.304,0.413-3.455,0.017
					c-1.156-0.398-2.259-1.016-3.305-1.854c-1.057-0.839-1.995-1.804-2.825-2.9c-0.834-1.093-1.457-2.145-1.881-3.151
					c-0.449-0.948-0.808-1.619-1.054-2c-0.248-0.375-0.44-0.485-0.558-0.318c-0.129,0.167-0.224,0.584-0.3,1.248
					c-0.073,0.661-0.189,1.541-0.345,2.639c-0.119,1.083-0.235,2.171-0.341,3.255c-0.113,1.089-0.359,2.125-0.726,3.111
					c-0.367,0.987-0.922,1.926-1.656,2.813c-0.735,0.885-1.812,1.655-3.229,2.31c-1.369,0.641-2.74,0.951-4.1,0.921
					c-1.371-0.021-2.67-0.26-3.901-0.707c-1.235-0.442-2.374-1.021-3.41-1.722c-1.048-0.701-1.931-1.43-2.654-2.175
					c-0.487-0.49-1.073-1.213-1.759-2.183c-0.691-0.965-1.379-2.072-2.09-3.314c-0.705-1.242-1.368-2.538-1.984-3.886
					c-0.618-1.357-1.103-2.647-1.464-3.875c-0.355-1.23-0.526-2.334-0.498-3.311C128.983,113.153,129.269,112.438,129.803,111.988"
					/>
			</g>
			<g>
				<path fill="#FFFFFF" d="M-60.055,107.861"/>
				<path fill="#FFFFFF" d="M72.153,105.212c-4.37,0.651-8.142-0.343-11.341-2.972c-3.205-2.644-5.883-6.496-8.039-11.569
					c-0.789-1.792-1.463-3.663-2.039-5.603c-0.572-1.938-1.109-3.875-1.607-5.807c-0.5-1.937-0.973-3.859-1.418-5.758
					c-0.444-1.895-0.9-3.74-1.361-5.52c-1.269,0.483-2.195,1.654-2.773,3.52c-0.579,1.862-0.921,4.06-1.044,6.6
					c-0.119,2.544-0.071,5.249,0.14,8.127c0.216,2.877,0.449,5.589,0.7,8.132c0.25,2.544,0.482,4.752,0.692,6.618
					c0.201,1.859,0.237,3.013,0.117,3.46c-0.118,0.676-0.444,1.26-0.978,1.748c-0.529,0.491-1.144,0.858-1.85,1.094
					c-0.702,0.229-1.439,0.337-2.208,0.308c-0.769-0.023-1.425-0.227-1.973-0.604c-1.32-0.891-2.481-2.219-3.496-3.99
					c-1.01-1.768-1.784-3.601-2.328-5.5c-1.256-4.594-2.708-9.241-4.342-13.955c-1.636-4.706-3.477-9.172-5.527-13.393
					c-0.252,0.292-0.512,0.598-0.788,0.911c-0.269,0.321-0.515,0.749-0.736,1.28c-0.221,0.538-0.433,1.22-0.626,2.05
					c-0.198,0.829-0.353,1.879-0.469,3.15c-0.093,0.994-0.082,2.326,0.04,3.999c0.114,1.681,0.305,3.528,0.569,5.536
					c0.263,2.016,0.573,4.107,0.921,6.281c0.35,2.183,0.692,4.254,1.042,6.222c0.349,1.968,0.672,3.739,0.969,5.309
					c0.299,1.562,0.522,2.767,0.676,3.604c0.109,0.669-0.109,1.282-0.64,1.85c-0.537,0.561-1.217,0.959-2.037,1.199
					c-0.823,0.242-1.682,0.283-2.595,0.132c-0.91-0.156-1.664-0.605-2.252-1.341c-0.901-1.086-1.615-2.354-2.14-3.825
					c-0.532-1.464-0.946-2.99-1.246-4.582c-0.304-1.587-0.519-3.172-0.636-4.76c-0.121-1.584-0.225-3.081-0.325-4.489
					c-0.102-1.214-0.196-2.792-0.282-4.735c-0.081-1.936-0.094-3.989-0.024-6.151c0.068-2.158,0.269-4.31,0.594-6.458
					c0.329-2.152,0.865-4.067,1.627-5.744c0.757-1.673,1.798-2.993,3.116-3.948c1.321-0.95,2.979-1.317,4.964-1.094
					c1.285,0.163,2.512,0.887,3.693,2.176c1.172,1.297,2.275,2.925,3.29,4.898c1.017,1.976,1.956,4.163,2.82,6.567
					c0.862,2.402,1.637,4.765,2.318,7.093c0.689,2.331,1.272,4.498,1.768,6.502c0.493,2.005,0.898,3.592,1.221,4.76
					c0.132-1.001,0.24-2.35,0.323-4.052c0.092-1.703,0.197-3.592,0.331-5.675c0.134-2.084,0.315-4.247,0.553-6.491
					c0.235-2.245,0.561-4.421,0.992-6.527c0.43-2.102,0.962-4.038,1.611-5.809c0.649-1.762,1.446-3.174,2.399-4.225
					c0.951-1.049,2.084-1.672,3.396-1.868c1.312-0.191,2.854,0.224,4.611,1.238c1.177,0.693,2.321,1.979,3.434,3.861
					c1.108,1.882,2.192,4.058,3.257,6.528c1.062,2.47,2.101,5.087,3.118,7.842c1.012,2.759,2,5.339,2.956,7.74
					c0.953,2.406,1.873,4.482,2.738,6.241c0.875,1.754,1.738,2.874,2.591,3.365c1.293,0.805,2.458,1.233,3.479,1.292
					c1.028,0.057,1.924,0.024,2.673-0.11c0.755-0.13,1.405-0.256,1.953-0.385c0.544-0.127,0.981,0.02,1.312,0.455
					c0.265,0.347,0.315,0.788,0.139,1.313c-0.177,0.53-0.528,1.048-1.051,1.56c-0.528,0.516-1.221,1-2.079,1.454
					C74.187,104.745,73.22,105.052,72.153,105.212"/>
				<path fill="#FFFFFF" d="M83.424,67.791c0.004,0.597-0.256,1.158-0.781,1.671c-0.525,0.513-1.14,1.06-1.829,1.639
					c-0.697,0.579-1.4,1.201-2.119,1.877c-0.715,0.674-1.269,1.476-1.645,2.392c-0.579,1.473-0.839,3.125-0.779,4.955
					c0.064,1.83,0.287,3.536,0.681,5.125c0.399,1.586,0.919,2.922,1.563,3.995c0.644,1.07,1.247,1.539,1.818,1.405
					c0.695-0.163,1.354-0.665,1.962-1.502c0.608-0.835,1.117-1.746,1.528-2.744c0.415-0.998,0.715-1.982,0.896-2.974
					c0.185-0.99,0.223-1.721,0.108-2.207c-0.111-0.476-0.291-1.133-0.534-1.98c-0.246-0.838-0.429-1.684-0.562-2.528
					c-0.128-0.842-0.165-1.599-0.112-2.256c0.056-0.657,0.313-1.063,0.783-1.218c0.471-0.158,1.019-0.402,1.661-0.74
					c0.636-0.327,1.278-0.503,1.92-0.515c0.64-0.013,1.232,0.296,1.772,0.935c0.541,0.63,0.975,1.83,1.294,3.597
					c0.701,3.576,1.499,6.21,2.405,7.906c0.907,1.702,2.098,2.542,3.571,2.519c0.993-0.049,1.81-0.485,2.422-1.293
					c0.616-0.813,1.133-1.687,1.564-2.616c0.429-0.934,0.788-1.762,1.073-2.495c0.286-0.735,0.576-1.071,0.873-1.002
					c0.335,0.057,0.572,0.582,0.712,1.562c0.139,0.982,0.061,2.139-0.224,3.473c-0.288,1.331-0.844,2.736-1.679,4.197
					c-0.828,1.465-2.046,2.727-3.641,3.788c-0.835,0.569-1.643,0.942-2.433,1.127c-0.782,0.183-1.521,0.244-2.202,0.172
					c-0.688-0.074-1.317-0.246-1.889-0.525c-0.57-0.281-1.116-0.615-1.621-1.004c-1.126-0.881-2.143-2.079-3.049-3.57
					c-0.191,1.147-0.59,2.21-1.188,3.18c-0.487,0.855-1.192,1.699-2.102,2.538c-0.911,0.832-2.123,1.474-3.633,1.919
					c-1.517,0.402-3.069,0.256-4.656-0.427c-1.596-0.687-2.994-1.792-4.199-3.303c-1.21-1.517-2.109-3.389-2.701-5.623
					c-0.595-2.233-0.664-4.72-0.198-7.456c0.326-1.784,0.922-3.37,1.788-4.776c0.872-1.401,1.867-2.614,2.985-3.634
					c1.119-1.025,2.286-1.853,3.498-2.479c1.21-0.634,2.323-1.087,3.337-1.371c1.02-0.288,1.868-0.405,2.545-0.359
					C83.091,67.21,83.434,67.422,83.424,67.791"/>
				<path fill="#FFFFFF" d="M129.902,78.182c0.866-0.615,1.57-0.963,2.105-1.042c0.537-0.083,0.906,0.006,1.099,0.257
					c0.197,0.257,0.231,0.626,0.092,1.123c-0.137,0.495-0.424,0.996-0.858,1.516c-0.366,0.404-0.801,0.945-1.312,1.616
					c-0.513,0.671-1.034,1.385-1.577,2.133c-0.538,0.748-1.057,1.488-1.557,2.199c-0.501,0.717-0.93,1.304-1.287,1.753
					c0.79,1.98,1.454,4.027,1.995,6.136c0.54,2.11,0.887,4.173,1.036,6.186c0.153,2.018,0.068,3.925-0.243,5.731
					c-0.32,1.8-0.942,3.365-1.878,4.686c-1.312,1.874-2.79,3.122-4.442,3.743c-1.654,0.617-3.228,0.682-4.727,0.21
					c-1.495-0.483-2.805-1.453-3.929-2.916c-1.129-1.466-1.799-3.349-2.017-5.649c-0.183-2.351,0.057-4.528,0.717-6.528
					c0.659-1.999,1.443-3.729,2.346-5.18c1.069-1.729,2.292-3.279,3.676-4.668c-0.125-0.336-0.325-0.794-0.603-1.379
					c-0.21-0.501-0.52-1.132-0.925-1.891c-0.412-0.758-0.935-1.725-1.583-2.915c-0.391-0.688-0.831-1.337-1.317-1.939
					c-0.494-0.594-0.94-1.1-1.36-1.508c-0.524-0.482-1.016-0.894-1.465-1.246c-0.516,0.946-1.071,1.82-1.676,2.605
					c-0.487,0.669-1.051,1.292-1.693,1.878c-0.649,0.592-1.301,0.963-1.956,1.118c-0.697,0.163-1.573-0.021-2.617-0.56
					c-1.052-0.54-2.059-1.337-3.02-2.402c-0.961-1.065-1.811-2.339-2.557-3.827c-0.736-1.485-1.173-3.086-1.3-4.809
					c-0.082-1.735-0.001-3.162,0.245-4.275c0.242-1.118,0.581-2.039,1.009-2.76c0.428-0.725,0.942-1.292,1.54-1.709
					c0.592-0.414,1.2-0.768,1.82-1.049c0.927-0.405,2.103-0.54,3.535-0.418c1.437,0.127,2.836,0.39,4.193,0.785
					c1.36,0.392,2.555,0.851,3.574,1.372c1.021,0.524,1.558,0.983,1.599,1.386c0.055,0.406-0.386,0.658-1.303,0.756
					c-0.922,0.103-1.979,0.201-3.181,0.298c-1.199,0.101-2.353,0.276-3.47,0.538c-1.112,0.261-1.809,0.792-2.081,1.59
					c-0.275,0.804-0.428,1.717-0.467,2.741c-0.038,1.022,0.025,2.021,0.189,2.999c0.154,0.977,0.422,1.848,0.79,2.613
					c0.359,0.77,0.826,1.295,1.4,1.571c0.315,0.164,0.658-0.004,1.025-0.482c0.376-0.479,0.798-1.062,1.281-1.751
					c0.486-0.688,1.043-1.374,1.665-2.051c0.625-0.674,1.351-1.168,2.18-1.481c0.827-0.305,1.761-0.294,2.805,0.035
					c1.044,0.335,2.232,1.17,3.562,2.521c0.779,0.783,1.631,1.7,2.55,2.752c0.916,1.057,1.874,2.641,2.88,4.753
					c0.969-0.964,1.884-1.884,2.743-2.751C128.006,79.726,128.923,78.919,129.902,78.182 M122.043,105.404
					c0.087-0.811,0.029-1.799-0.175-2.969c-0.211-1.172-0.438-2.329-0.706-3.464c-0.357-1.3-0.745-2.663-1.17-4.083
					c-0.731,1.002-1.344,2.021-1.84,3.06c-0.44,0.885-0.767,1.883-0.991,3c-0.224,1.106-0.158,2.224,0.195,3.336
					c0.343,1.073,0.77,1.816,1.284,2.228c0.508,0.406,1.002,0.593,1.473,0.549c0.478-0.038,0.895-0.232,1.255-0.568
					C121.724,106.157,121.947,105.793,122.043,105.404"/>
				<path fill="#FFFFFF" d="M124.628,69.26c-0.116-1.083-0.173-2.124-0.186-3.14c-0.005-1.008,0.062-1.968,0.192-2.875
					c0.131-0.909,0.329-1.705,0.58-2.382c0.257-0.686,0.587-1.211,1.011-1.589c0.429-0.331,0.998-0.703,1.71-1.125
					c0.703-0.419,1.402-0.677,2.098-0.766c0.695-0.095,1.274,0.089,1.759,0.554c0.478,0.463,0.677,1.416,0.601,2.866
					c-0.004,0.787,0.066,1.749,0.191,2.887c0.132,1.147,0.337,2.369,0.623,3.66c0.276,1.299,0.611,2.575,1.001,3.844
					c0.388,1.272,0.832,2.425,1.328,3.458c0.494,1.04,1.041,1.891,1.637,2.556c0.594,0.668,1.224,1.039,1.89,1.109
					c1.364,0.142,2.447-0.153,3.24-0.895c0.793-0.742,1.459-1.747,1.991-3.027c0.188-0.547,0.47-1.045,0.829-1.471
					c0.358-0.433,0.684-0.658,0.983-0.683c0.286-0.021,0.502,0.229,0.626,0.754c0.121,0.523,0.043,1.463-0.242,2.821
					c-0.311,1.413-0.826,2.705-1.544,3.886c-0.71,1.182-1.581,2.184-2.611,2.997c-1.034,0.819-2.192,1.426-3.481,1.822
					c-1.292,0.39-2.651,0.505-4.072,0.334c-1.408-0.136-2.631-0.507-3.645-1.119c-1.021-0.607-1.92-1.54-2.692-2.787
					c-0.786-1.249-1.473-2.824-2.081-4.733C125.756,74.306,125.171,71.987,124.628,69.26 M122.09,45.174
					c0.257-1.073,0.846-1.838,1.78-2.29c0.933-0.444,1.896-0.647,2.899-0.608c1,0.044,1.914,0.299,2.741,0.776
					c0.826,0.478,1.266,1.144,1.328,2.004c0.064,1.048-0.293,2.035-1.059,2.979c-0.772,0.941-2.115,1.545-4.037,1.811
					c-0.529,0.083-1.049-0.008-1.548-0.258c-0.495-0.251-0.935-0.596-1.315-1.042c-0.38-0.443-0.648-0.96-0.816-1.57
					C121.895,46.373,121.906,45.768,122.09,45.174"/>
				<path fill="#FFFFFF" d="M157.725,53.545c-0.078,0.254-0.486,0.402-1.206,0.456c-0.729,0.059-1.538,0.228-2.438,0.507
					c-0.901,0.275-1.76,0.778-2.561,1.496c-0.795,0.722-1.315,1.842-1.558,3.372c-0.197,1.524-0.208,3.095-0.038,4.708
					c0.173,1.622,0.523,3.118,1.054,4.496c0.53,1.369,1.191,2.519,1.986,3.438c0.787,0.917,1.691,1.47,2.697,1.647
					c1.438,0.215,2.658,0.117,3.663-0.307c1.012-0.421,1.879-0.932,2.613-1.542c0.731-0.611,1.338-1.227,1.817-1.845
					c0.477-0.618,0.87-1.033,1.189-1.248c0.767-0.459,1.218-0.226,1.338,0.685c0.121,0.922-0.219,2.213-1.026,3.877
					c-0.427,0.929-1.016,1.863-1.767,2.795c-0.746,0.936-1.638,1.759-2.668,2.461c-1.042,0.703-2.217,1.234-3.538,1.586
					c-1.32,0.359-2.789,0.428-4.411,0.209c-1.524-0.196-2.986-0.758-4.397-1.665c-1.414-0.913-2.663-2.059-3.747-3.443
					c-1.083-1.383-1.981-2.934-2.684-4.66c-0.702-1.722-1.1-3.521-1.193-5.391c-0.093-1.866,0.155-3.762,0.743-5.67
					c0.59-1.912,1.604-3.731,3.046-5.448c1.384-1.57,2.865-2.563,4.45-2.98c1.585-0.419,3.034-0.526,4.348-0.333
					c1.312,0.205,2.389,0.608,3.222,1.217C157.494,52.574,157.852,53.103,157.725,53.545"/>
				<path fill="#FFFFFF" d="M36.28,121.478c-0.499,0.214-1.176,0.473-2.024,0.789c-0.85,0.317-1.733,0.799-2.67,1.455
					c-0.929,0.655-1.848,1.527-2.772,2.621c-0.918,1.088-1.729,2.501-2.43,4.233c-0.958,2.39-0.951,4.139,0.021,5.252
					c0.978,1.103,3.075,1.953,6.296,2.53c1.631,0.266,3.32,0.435,5.062,0.509c1.749,0.069,3.423,0.346,5.038,0.822
					c1.605,0.476,3.107,1.299,4.481,2.476c1.386,1.171,2.543,2.962,3.477,5.372c0.707,1.857,0.753,3.573,0.131,5.151
					c-0.62,1.576-1.609,2.999-2.974,4.264c-1.356,1.259-2.948,2.325-4.748,3.18c-1.804,0.863-3.511,1.485-5.133,1.866
					c-3.303,0.819-6.226,1.052-8.749,0.703c-2.525-0.354-4.598-0.938-6.218-1.758c-1.622-0.815-2.731-1.725-3.334-2.711
					c-0.599-0.98-0.634-1.731-0.104-2.22c0.345-0.313,0.872-0.436,1.602-0.374c0.727,0.057,1.631,0.157,2.701,0.3
					c1.07,0.137,2.271,0.235,3.596,0.294c1.328,0.062,2.771-0.073,4.334-0.392c1.561-0.318,3.217-0.897,4.989-1.722
					c1.761-0.833,3.598-2.091,5.504-3.782c0.683-0.623,1.009-1.354,0.974-2.2c-0.04-0.843-0.423-1.655-1.157-2.424
					c-0.737-0.772-1.82-1.407-3.248-1.902c-1.431-0.492-3.204-0.721-5.315-0.689c-1.834,0.015-3.648,0.007-5.435-0.037
					c-1.788-0.044-3.445-0.299-4.983-0.767c-1.538-0.471-2.888-1.214-4.051-2.234c-1.163-1.016-2.05-2.464-2.679-4.348
					c-0.396-1.29-0.352-2.891,0.121-4.798c0.474-1.912,1.229-3.859,2.259-5.855c1.028-1.992,2.295-3.915,3.798-5.761
					c1.5-1.852,3.094-3.343,4.79-4.479c1.688-1.134,3.399-1.767,5.12-1.895c1.722-0.124,3.346,0.51,4.872,1.9
					c1.006,0.963,2.041,1.703,3.108,2.209c1.062,0.515,1.994,0.929,2.782,1.251c0.791,0.326,1.373,0.644,1.749,0.972
					c0.378,0.325,0.402,0.781,0.082,1.367c-0.373,0.593-0.848,0.899-1.448,0.923c-0.589,0.024-1.283-0.035-2.077-0.167
					c-0.788-0.135-1.647-0.249-2.571-0.329C38.136,120.988,37.21,121.121,36.28,121.478"/>
				<path fill="#FFFFFF" d="M50.098,108.764c-0.05-0.815,0.308-1.355,1.072-1.634c0.767-0.27,1.634-0.285,2.607-0.057
					c0.98,0.235,1.936,0.664,2.867,1.3c0.935,0.634,1.534,1.428,1.799,2.377c0.281,0.994,0.567,2.012,0.856,3.051
					c0.292,1.036,0.554,1.964,0.795,2.789c0.276,0.988,0.538,1.921,0.791,2.784c1.453-0.478,2.753-0.83,3.899-1.051
					c1.017-0.194,1.938-0.269,2.779-0.239c0.844,0.034,1.322,0.336,1.453,0.905c0.144,0.61-0.114,1.223-0.776,1.841
					c-0.66,0.614-1.434,1.184-2.327,1.719c-1.05,0.62-2.249,1.216-3.583,1.81c0.769,2.906,1.523,5.73,2.257,8.458
					c0.608,2.393,1.21,4.902,1.803,7.526c0.59,2.631,1.026,4.945,1.318,6.949c0.245,2.02,0.241,3.54-0.008,4.567
					c-0.239,1.026-0.622,1.73-1.121,2.13c-0.506,0.396-1.083,0.59-1.735,0.577c-0.645-0.005-1.254-0.058-1.833-0.154
					c-0.279-0.026-0.628-0.43-1.04-1.21c-0.415-0.779-0.841-1.811-1.274-3.085c-0.445-1.279-0.9-2.73-1.371-4.348
					c-0.47-1.616-0.932-3.275-1.374-4.968c-1.075-3.986-2.188-8.474-3.356-13.45c-1.121,0.532-2.182,0.923-3.183,1.157
					c-0.883,0.208-1.721,0.254-2.534,0.141c-0.804-0.104-1.389-0.534-1.75-1.277c-0.271-0.584-0.127-1.192,0.44-1.835
					c0.559-0.638,1.239-1.238,2.032-1.789c0.913-0.63,2.01-1.253,3.291-1.88l-0.246-1.05c-0.072-0.306-0.138-0.617-0.192-0.955
					c-0.055-0.334-0.104-0.609-0.156-0.827c-0.409-1.747-0.763-3.161-1.065-4.243c-0.3-1.081-0.537-1.981-0.706-2.708
					c-0.168-0.718-0.283-1.312-0.348-1.783C50.119,109.836,50.09,109.325,50.098,108.764"/>
				<path fill="#FFFFFF" d="M71.998,126.376c-0.542-0.147-1.017-0.2-1.419-0.147c-0.403,0.043-0.77,0.111-1.101,0.188
					c-0.322,0.077-0.613,0.109-0.874,0.1c-0.254-0.01-0.509-0.169-0.762-0.475c-0.206-0.274-0.095-0.742,0.324-1.392
					c0.429-0.655,1.055-1.263,1.895-1.826c0.836-0.565,1.823-0.944,2.98-1.15c1.149-0.197,2.346-0.007,3.594,0.578
					c1.097,0.568,2.026,1.147,2.784,1.729c0.76,0.582,1.38,1.117,1.864,1.601c0.547,0.564,0.978,1.134,1.3,1.703
					c0.948-1.467,1.979-2.75,3.107-3.841c0.971-0.964,2.108-1.834,3.403-2.596c1.294-0.767,2.685-1.111,4.175-1.044
					c0.383,0.046,0.613,0.278,0.683,0.7c0.076,0.421,0.005,0.913-0.208,1.466c-0.218,0.561-0.555,1.121-1.021,1.691
					c-0.467,0.57-1.077,1.036-1.815,1.399c-1.45,0.702-2.51,1.649-3.174,2.814c-0.672,1.171-1.101,2.456-1.271,3.859
					c-0.183,1.4-0.168,2.846,0.045,4.343c0.213,1.49,0.48,2.919,0.798,4.268c0.706,2.836,0.812,5.037,0.304,6.605
					c-0.513,1.572-1.451,2.563-2.829,2.979c-1.597,0.465-2.978,0.004-4.129-1.387c-1.155-1.383-2.169-3.956-3.051-7.719
					c-0.518-2.362-0.975-4.425-1.385-6.172s-0.814-3.208-1.23-4.376c-0.411-1.17-0.854-2.071-1.326-2.697
					C73.194,126.951,72.635,126.551,71.998,126.376"/>
				<path fill="#FFFFFF" d="M113.052,114.536c0.002,0.604-0.258,1.159-0.784,1.67c-0.521,0.517-1.132,1.062-1.827,1.636
					c-0.695,0.581-1.399,1.208-2.119,1.885c-0.715,0.674-1.269,1.472-1.649,2.394c-0.572,1.471-0.837,3.119-0.778,4.952
					c0.063,1.824,0.293,3.536,0.687,5.127c0.4,1.59,0.915,2.921,1.563,3.992c0.64,1.071,1.245,1.535,1.812,1.402
					c0.702-0.165,1.353-0.659,1.968-1.498c0.606-0.835,1.112-1.746,1.533-2.743c0.405-0.994,0.705-1.987,0.886-2.975
					c0.188-0.989,0.225-1.721,0.108-2.197c-0.108-0.484-0.287-1.146-0.534-1.989c-0.243-0.839-0.428-1.689-0.562-2.528
					c-0.128-0.85-0.156-1.601-0.108-2.258c0.052-0.658,0.31-1.067,0.782-1.224c0.471-0.154,1.021-0.396,1.662-0.731
					c0.634-0.328,1.272-0.507,1.915-0.515c0.645-0.012,1.234,0.294,1.773,0.929c0.545,0.63,0.97,1.833,1.301,3.604
					c0.696,3.567,1.499,6.2,2.404,7.901c0.9,1.703,2.087,2.542,3.563,2.517c0.996-0.051,1.811-0.48,2.423-1.294
					c0.623-0.813,1.136-1.687,1.569-2.614c0.424-0.926,0.783-1.759,1.072-2.497c0.283-0.736,0.577-1.071,0.873-0.999
					c0.331,0.058,0.574,0.58,0.714,1.562c0.131,0.983,0.057,2.139-0.222,3.472c-0.292,1.332-0.85,2.732-1.681,4.194
					c-0.835,1.462-2.049,2.728-3.642,3.793c-0.835,0.563-1.647,0.941-2.432,1.126c-0.788,0.183-1.526,0.242-2.209,0.169
					c-0.681-0.065-1.312-0.245-1.883-0.527c-0.572-0.278-1.114-0.61-1.622-1.003c-1.125-0.883-2.141-2.073-3.044-3.566
					c-0.197,1.147-0.592,2.213-1.193,3.178c-0.495,0.855-1.192,1.7-2.104,2.532c-0.91,0.837-2.119,1.484-3.626,1.925
					c-1.521,0.403-3.071,0.265-4.665-0.427c-1.591-0.691-2.989-1.789-4.198-3.301c-1.208-1.519-2.104-3.389-2.699-5.626
					c-0.59-2.237-0.658-4.718-0.199-7.451c0.323-1.783,0.919-3.378,1.788-4.777c0.871-1.401,1.864-2.616,2.984-3.64
					c1.124-1.02,2.285-1.848,3.502-2.479c1.211-0.631,2.318-1.087,3.339-1.368c1.014-0.286,1.862-0.405,2.547-0.36
					C112.716,113.956,113.056,114.166,113.052,114.536"/>
				<path fill="#FFFFFF" d="M129.803,111.988c0.818-0.649,1.643-1.07,2.473-1.265c0.83-0.195,1.588-0.217,2.27-0.051
					c0.685,0.161,1.263,0.479,1.74,0.942c0.479,0.463,0.771,1.003,0.864,1.627c0.316,2.924,0.958,5.55,1.919,7.879
					c0.967,2.334,1.971,4.264,3.02,5.791c1.047,1.527,2.024,2.604,2.934,3.221c0.906,0.619,1.435,0.656,1.579,0.111
					c0.152-0.543,0.22-1.627,0.207-3.262c-0.018-1.633,0.029-3.456,0.131-5.461c0.108-2.003,0.362-4.009,0.766-6.021
					c0.41-2.01,1.127-3.659,2.161-4.962c1.026-1.302,1.994-2.106,2.891-2.409c0.896-0.302,1.726-0.29,2.499,0.036
					c0.764,0.327,1.485,0.886,2.152,1.673c0.667,0.786,1.307,1.599,1.913,2.424c0.617,0.866,1.275,2.02,1.953,3.445
					c0.682,1.432,1.366,2.783,2.055,4.045c0.687,1.271,1.334,2.263,1.938,2.972c0.606,0.712,1.165,0.774,1.678,0.194
					c0.317-0.396,0.584-1.13,0.793-2.19c0.212-1.065,0.417-2.3,0.618-3.71c0.199-1.407,0.431-2.876,0.694-4.413
					c0.258-1.537,0.605-2.977,1.023-4.322c0.425-1.342,0.976-2.489,1.651-3.425c0.675-0.943,1.55-1.517,2.61-1.718
					c1.145-0.22,2.273-0.175,3.384,0.137c1.11,0.316,2.108,0.758,3,1.308c0.891,0.55,1.615,1.148,2.186,1.8
					c0.57,0.652,0.905,1.217,1.02,1.697c0.111,0.478-0.068,0.786-0.545,0.924c-0.476,0.134-1.305-0.056-2.479-0.56
					c-1.227-0.497-2.331,0.005-3.314,1.501c-0.986,1.501-1.462,3.884-1.437,7.146c0.009,1.614-0.053,3.066-0.185,4.365
					c-0.137,1.298-0.396,2.441-0.783,3.438c-0.393,0.983-0.963,1.845-1.714,2.57c-0.752,0.732-1.748,1.312-2.976,1.739
					c-1.154,0.402-2.304,0.413-3.455,0.017c-1.156-0.398-2.259-1.016-3.305-1.854c-1.057-0.839-1.995-1.804-2.825-2.9
					c-0.834-1.093-1.457-2.145-1.881-3.151c-0.449-0.948-0.808-1.619-1.054-2c-0.248-0.375-0.44-0.485-0.558-0.318
					c-0.129,0.167-0.224,0.584-0.3,1.248c-0.073,0.661-0.189,1.541-0.345,2.639c-0.119,1.083-0.235,2.171-0.341,3.255
					c-0.113,1.089-0.359,2.125-0.726,3.111c-0.367,0.987-0.922,1.926-1.656,2.813c-0.735,0.885-1.812,1.655-3.229,2.31
					c-1.369,0.641-2.74,0.951-4.1,0.921c-1.371-0.021-2.67-0.26-3.901-0.707c-1.235-0.442-2.374-1.021-3.41-1.722
					c-1.048-0.701-1.931-1.43-2.654-2.175c-0.487-0.49-1.073-1.213-1.759-2.183c-0.691-0.965-1.379-2.072-2.09-3.314
					c-0.705-1.242-1.368-2.538-1.984-3.886c-0.618-1.357-1.103-2.647-1.464-3.875c-0.355-1.23-0.526-2.334-0.498-3.311
					C128.983,113.153,129.269,112.438,129.803,111.988"/>
			</g>
		</g>
	</g>
</g>
</svg>
