<svg xmlns="http://www.w3.org/2000/svg" viewBox="0 0 200 200" enable-background="new 0 0 200 200"><g opacity=".31"><circle cx="100.03" cy="110.87" r="78.59"/></g><circle fill="#fff" cx="93.03" cy="103.87" r="78.59"/><g opacity=".31"><g fill="none" stroke="#000" stroke-width="15" stroke-miterlimit="10"><path d="m79.15 112.21c-4.37.651-8.142-.343-11.341-2.972-3.205-2.644-5.883-6.496-8.04-11.569-.789-1.792-1.463-3.663-2.039-5.603-.572-1.938-1.109-3.875-1.607-5.807-.5-1.937-.973-3.859-1.418-5.758-.444-1.895-.9-3.74-1.361-5.52-1.269.483-2.195 1.654-2.773 3.52-.579 1.862-.921 4.06-1.044 6.6-.119 2.544-.071 5.249.14 8.127.216 2.877.449 5.589.7 8.132.25 2.543.482 4.752.692 6.617.201 1.859.237 3.01.117 3.461-.118.676-.444 1.26-.978 1.748-.529.491-1.144.858-1.85 1.094-.702.229-1.439.337-2.208.308-.769-.023-1.425-.227-1.973-.604-1.32-.891-2.481-2.219-3.496-3.99-1.01-1.768-1.784-3.601-2.328-5.5-1.256-4.593-2.708-9.241-4.342-13.954-1.636-4.706-3.477-9.172-5.527-13.393-.252.292-.512.598-.788.911-.269.321-.515.749-.736 1.28-.221.538-.433 1.22-.626 2.05-.198.829-.353 1.879-.469 3.15-.093.994-.082 2.326.04 3.999.114 1.681.305 3.528.569 5.536.263 2.02.573 4.107.921 6.281.35 2.183.692 4.254 1.042 6.222.349 1.968.672 3.739.969 5.309.299 1.562.522 2.767.676 3.604.109.669-.109 1.282-.64 1.85-.537.561-1.217.959-2.037 1.199-.823.242-1.682.283-2.595.132-.91-.156-1.664-.605-2.252-1.341-.901-1.086-1.615-2.354-2.14-3.825-.532-1.464-.946-2.99-1.246-4.582-.304-1.587-.519-3.172-.636-4.76-.121-1.584-.225-3.081-.325-4.489-.102-1.214-.196-2.792-.282-4.735-.081-1.936-.094-3.989-.024-6.151.068-2.158.269-4.31.594-6.458.329-2.152.865-4.067 1.627-5.744.757-1.673 1.798-2.993 3.116-3.948 1.321-.95 2.979-1.317 4.964-1.094 1.285.163 2.512.887 3.693 2.176 1.172 1.297 2.275 2.925 3.29 4.898 1.017 1.976 1.956 4.163 2.82 6.567.862 2.402 1.637 4.765 2.318 7.093.689 2.331 1.272 4.498 1.768 6.502.493 2 .898 3.592 1.221 4.76.132-1 .24-2.35.323-4.052.092-1.703.197-3.592.331-5.675.134-2.084.315-4.247.553-6.491.235-2.245.561-4.421.992-6.527.43-2.102.962-4.04 1.611-5.809.649-1.762 1.446-3.174 2.399-4.225.951-1.049 2.084-1.672 3.396-1.868 1.312-.191 2.854.224 4.611 1.238 1.177.693 2.321 1.979 3.434 3.861 1.108 1.882 2.192 4.058 3.257 6.528 1.062 2.47 2.101 5.087 3.118 7.842 1.012 2.759 2 5.339 2.956 7.74.953 2.406 1.873 4.482 2.738 6.241.875 1.754 1.738 2.873 2.591 3.365 1.293.805 2.458 1.233 3.479 1.292 1.028.058 1.924.024 2.673-.11.755-.13 1.405-.256 1.953-.385.544-.127.981.02 1.312.455.265.346.315.787.139 1.312-.177.53-.528 1.048-1.051 1.56-.528.516-1.221 1-2.079 1.454-.859.458-1.826.765-2.893.925"/><path d="m90.42 74.79c.004.597-.256 1.158-.781 1.671-.525.513-1.14 1.06-1.829 1.639-.697.579-1.4 1.201-2.119 1.877-.715.674-1.269 1.476-1.645 2.392-.579 1.473-.839 3.125-.779 4.955.064 1.83.287 3.536.681 5.125.399 1.586.919 2.922 1.563 3.995.644 1.07 1.247 1.539 1.818 1.405.695-.163 1.354-.665 1.962-1.502.608-.835 1.117-1.746 1.528-2.744.415-.998.715-1.982.896-2.974.185-.99.223-1.721.108-2.207-.111-.476-.291-1.133-.534-1.98-.246-.838-.429-1.684-.562-2.528-.128-.842-.165-1.599-.112-2.256.056-.657.313-1.063.783-1.218.471-.158 1.019-.402 1.661-.74.636-.327 1.278-.503 1.92-.515.64-.013 1.232.296 1.772.935.541.63.975 1.83 1.294 3.597.701 3.576 1.499 6.21 2.405 7.906.907 1.702 2.098 2.542 3.571 2.519.994-.049 1.811-.485 2.423-1.293.616-.813 1.133-1.687 1.564-2.616.429-.934.788-1.762 1.073-2.495.286-.735.576-1.071.873-1 .335.057.572.582.712 1.562.139.982.061 2.139-.224 3.473-.288 1.331-.844 2.736-1.679 4.197-.828 1.465-2.046 2.727-3.642 3.788-.834.569-1.643.942-2.432 1.127-.783.184-1.521.244-2.203.172-.688-.074-1.317-.246-1.889-.525-.57-.281-1.116-.615-1.621-1-1.126-.881-2.143-2.079-3.049-3.57-.191 1.147-.59 2.21-1.188 3.18-.487.855-1.192 1.699-2.102 2.538-.911.832-2.123 1.474-3.633 1.919-1.517.402-3.069.256-4.656-.427-1.596-.688-2.994-1.791-4.199-3.303-1.21-1.517-2.109-3.389-2.701-5.623-.595-2.233-.664-4.72-.198-7.456.326-1.784.922-3.37 1.788-4.776.872-1.401 1.867-2.614 2.985-3.634 1.119-1.025 2.286-1.853 3.498-2.479 1.21-.634 2.323-1.087 3.337-1.371 1.02-.288 1.868-.405 2.545-.359.684.044 1.027.256 1.017.625"/><path d="m136.9 85.18c.866-.615 1.57-.963 2.105-1.042.537-.083.906.006 1.099.257.197.257.231.626.092 1.123-.137.495-.424.996-.858 1.516-.366.404-.801.945-1.312 1.616-.513.671-1.034 1.385-1.577 2.133-.538.748-1.057 1.488-1.557 2.199-.501.717-.93 1.304-1.287 1.753.79 1.98 1.454 4.03 1.995 6.136.54 2.109.887 4.174 1.036 6.186.153 2.02.068 3.926-.243 5.731-.32 1.8-.942 3.365-1.878 4.686-1.312 1.874-2.79 3.122-4.442 3.743-1.654.617-3.228.682-4.727.21-1.495-.483-2.805-1.453-3.929-2.916-1.129-1.466-1.799-3.349-2.02-5.649-.183-2.351.057-4.528.717-6.527.659-2 1.443-3.73 2.346-5.181 1.069-1.729 2.292-3.279 3.676-4.668-.125-.336-.325-.794-.603-1.379-.21-.501-.52-1.132-.925-1.891-.412-.758-.935-1.725-1.583-2.915-.391-.688-.831-1.337-1.317-1.939-.494-.594-.94-1.1-1.36-1.508-.524-.482-1.016-.894-1.465-1.246-.516.946-1.071 1.82-1.676 2.605-.487.669-1.051 1.292-1.693 1.878-.649.592-1.301.963-1.956 1.118-.697.163-1.573-.021-2.617-.56-1.052-.54-2.059-1.337-3.02-2.402-.961-1.065-1.811-2.339-2.557-3.827-.736-1.485-1.173-3.086-1.301-4.809-.082-1.735-.001-3.162.245-4.275.242-1.118.581-2.039 1.01-2.76.428-.725.941-1.292 1.539-1.709.593-.414 1.2-.768 1.82-1.049.927-.405 2.103-.54 3.535-.418 1.437.127 2.836.39 4.193.785 1.36.392 2.555.851 3.574 1.372 1.021.524 1.558.983 1.599 1.386.055.406-.386.658-1.303.756-.922.103-1.979.201-3.181.298-1.199.101-2.353.276-3.47.538-1.112.261-1.809.792-2.081 1.59-.275.804-.428 1.717-.467 2.741-.038 1.022.025 2.02.189 2.999.154.977.422 1.848.79 2.613.359.77.826 1.295 1.4 1.571.315.164.658-.004 1.025-.482.376-.479.798-1.062 1.281-1.751.486-.688 1.043-1.374 1.665-2.051.625-.674 1.351-1.168 2.18-1.481.827-.305 1.761-.294 2.805.035 1.044.335 2.232 1.17 3.562 2.521.779.783 1.631 1.7 2.55 2.752.916 1.057 1.874 2.641 2.88 4.753.969-.964 1.884-1.884 2.743-2.751.857-.87 1.774-1.677 2.753-2.414m-7.859 27.22c.087-.811.029-1.799-.175-2.969-.211-1.172-.438-2.328-.706-3.464-.357-1.3-.745-2.663-1.17-4.083-.731 1-1.344 2.02-1.84 3.061-.44.885-.767 1.883-.991 3-.224 1.105-.158 2.224.195 3.336.343 1.073.77 1.816 1.284 2.228.508.406 1 .593 1.473.549.478-.038.895-.232 1.255-.568.356-.337.579-.701.675-1.09"/><path d="m131.63 76.26c-.116-1.083-.173-2.124-.186-3.14-.005-1.01.062-1.968.192-2.875.131-.909.329-1.705.58-2.382.257-.686.587-1.211 1.01-1.589.429-.331.998-.703 1.71-1.125.703-.419 1.402-.677 2.098-.766.695-.095 1.274.089 1.759.554.478.463.677 1.416.601 2.866-.004.787.066 1.749.191 2.887.132 1.147.337 2.369.623 3.66.276 1.299.611 2.575 1 3.844.388 1.272.832 2.425 1.328 3.458.494 1.04 1.041 1.891 1.637 2.556.594.668 1.224 1.039 1.89 1.109 1.364.142 2.447-.153 3.24-.895.793-.742 1.459-1.747 1.991-3.03.188-.547.47-1.045.829-1.471.358-.433.684-.658.983-.683.286-.021.502.229.626.754.121.523.043 1.463-.242 2.821-.311 1.413-.826 2.705-1.544 3.886-.71 1.182-1.581 2.184-2.611 2.997-1.034.819-2.192 1.426-3.481 1.822-1.292.39-2.651.505-4.072.334-1.408-.136-2.631-.507-3.645-1.119-1.021-.607-1.92-1.54-2.692-2.787-.786-1.249-1.473-2.824-2.081-4.733-.608-1.91-1.193-4.229-1.736-6.956m-2.538-24.09c.257-1.073.846-1.838 1.78-2.29.933-.444 1.896-.647 2.899-.608 1 .044 1.914.299 2.741.776.826.478 1.266 1.144 1.328 2 .064 1.048-.293 2.035-1.059 2.979-.772.941-2.115 1.545-4.04 1.811-.529.083-1.049-.008-1.548-.258-.495-.251-.935-.596-1.315-1.042-.38-.443-.648-.96-.816-1.57-.168-.603-.157-1.208.027-1.802"/><path d="m164.72 60.55c-.078.254-.486.402-1.206.456-.729.059-1.538.228-2.438.507-.901.275-1.76.778-2.561 1.496-.795.722-1.315 1.842-1.558 3.372-.197 1.524-.208 3.095-.038 4.708.173 1.622.523 3.118 1.054 4.496.53 1.369 1.191 2.519 1.986 3.438.787.917 1.691 1.47 2.697 1.647 1.438.215 2.658.117 3.663-.307 1.012-.421 1.879-.932 2.613-1.542.731-.611 1.338-1.227 1.817-1.845.477-.618.87-1.033 1.189-1.248.767-.459 1.218-.226 1.338.685.121.922-.219 2.213-1.026 3.877-.427.929-1.016 1.863-1.767 2.795-.746.936-1.638 1.759-2.668 2.461-1.042.703-2.217 1.234-3.538 1.586-1.32.359-2.789.428-4.411.209-1.524-.196-2.986-.758-4.397-1.665-1.414-.913-2.663-2.059-3.747-3.443-1.083-1.383-1.981-2.934-2.684-4.66-.702-1.722-1.1-3.521-1.193-5.391-.093-1.866.155-3.762.743-5.67.59-1.912 1.604-3.731 3.046-5.448 1.384-1.57 2.865-2.563 4.45-2.98 1.585-.419 3.034-.526 4.348-.333 1.312.205 2.389.608 3.222 1.217.835.611 1.193 1.14 1.066 1.582"/><path d="m43.28 128.48c-.499.214-1.176.473-2.024.789-.85.317-1.733.799-2.67 1.455-.929.655-1.848 1.527-2.772 2.621-.918 1.088-1.729 2.501-2.43 4.233-.958 2.39-.951 4.139.021 5.252.978 1.103 3.075 1.953 6.296 2.53 1.631.266 3.32.435 5.062.509 1.749.069 3.423.346 5.04.822 1.605.476 3.107 1.299 4.481 2.476 1.386 1.171 2.543 2.962 3.477 5.372.707 1.857.753 3.573.131 5.151-.62 1.576-1.609 2.999-2.974 4.264-1.356 1.259-2.948 2.325-4.748 3.18-1.804.863-3.511 1.485-5.133 1.866-3.303.819-6.226 1.052-8.749.703-2.525-.354-4.598-.938-6.218-1.758-1.622-.815-2.731-1.725-3.334-2.711-.599-.98-.634-1.731-.104-2.22.345-.313.872-.436 1.602-.374.727.057 1.631.157 2.701.3 1.07.137 2.271.235 3.596.294 1.328.062 2.771-.073 4.334-.392 1.561-.318 3.217-.897 4.989-1.722 1.761-.833 3.598-2.091 5.504-3.782.683-.623 1.01-1.354.974-2.2-.04-.843-.423-1.655-1.157-2.424-.737-.772-1.82-1.407-3.248-1.902-1.431-.492-3.204-.721-5.315-.689-1.834.015-3.648.007-5.435-.037-1.788-.044-3.445-.299-4.983-.767-1.538-.471-2.888-1.214-4.051-2.234-1.163-1.016-2.05-2.464-2.679-4.348-.396-1.29-.352-2.891.121-4.798.474-1.912 1.229-3.859 2.259-5.855 1.028-1.992 2.295-3.915 3.798-5.761 1.5-1.852 3.094-3.343 4.79-4.479 1.688-1.134 3.399-1.767 5.12-1.895 1.722-.124 3.346.51 4.872 1.9 1.01.963 2.041 1.703 3.108 2.209 1.062.515 1.994.929 2.782 1.251.791.326 1.373.644 1.749.972.378.325.402.781.082 1.367-.373.593-.848.899-1.448.923-.589.024-1.283-.035-2.077-.167-.788-.135-1.647-.249-2.571-.329-.911-.085-1.837.048-2.767.405"/><path d="m57.1 115.76c-.05-.815.308-1.355 1.072-1.634.767-.27 1.634-.285 2.607-.057.98.235 1.936.664 2.867 1.3.935.634 1.534 1.428 1.799 2.377.281.994.567 2.01.856 3.051.292 1.036.554 1.964.795 2.789.276.988.538 1.921.791 2.784 1.453-.478 2.753-.83 3.899-1.051 1.017-.194 1.938-.269 2.779-.239.844.034 1.322.336 1.453.905.144.61-.114 1.223-.776 1.841-.66.614-1.434 1.184-2.327 1.719-1.05.62-2.249 1.216-3.583 1.81.769 2.906 1.523 5.73 2.257 8.458.608 2.393 1.21 4.902 1.803 7.526.59 2.631 1.026 4.945 1.318 6.949.245 2.02.241 3.54-.008 4.567-.239 1.026-.622 1.73-1.121 2.13-.506.396-1.083.59-1.735.577-.645-.005-1.254-.058-1.833-.154-.279-.026-.628-.43-1.04-1.21-.415-.779-.841-1.811-1.274-3.085-.445-1.279-.9-2.73-1.371-4.348-.47-1.616-.932-3.275-1.374-4.968-1.075-3.986-2.188-8.474-3.356-13.45-1.121.532-2.182.923-3.183 1.157-.883.208-1.721.254-2.534.141-.804-.104-1.389-.534-1.75-1.277-.271-.584-.127-1.192.44-1.835.559-.638 1.239-1.238 2.032-1.789.913-.63 2.01-1.253 3.291-1.88l-.246-1.05c-.072-.306-.138-.617-.192-.955-.055-.334-.104-.609-.156-.827-.409-1.747-.763-3.161-1.065-4.243-.3-1.081-.537-1.981-.706-2.708-.168-.718-.283-1.312-.348-1.783-.06-.466-.089-.977-.081-1.538"/><path d="m78.998 133.38c-.542-.147-1.017-.2-1.419-.147-.403.043-.77.111-1.101.188-.322.077-.613.109-.874.1-.254-.01-.509-.169-.762-.475-.206-.274-.095-.742.324-1.392.429-.655 1.055-1.263 1.895-1.826.836-.565 1.823-.944 2.98-1.15 1.149-.197 2.346-.007 3.594.578 1.097.568 2.026 1.147 2.784 1.729.76.582 1.38 1.117 1.864 1.601.547.564.978 1.134 1.3 1.703.948-1.467 1.979-2.75 3.107-3.841.971-.964 2.108-1.834 3.403-2.596 1.294-.767 2.685-1.111 4.175-1.044.383.046.613.278.683.7.076.421.005.913-.208 1.466-.218.561-.555 1.121-1.021 1.691-.467.57-1.077 1.036-1.815 1.399-1.45.702-2.51 1.649-3.174 2.814-.672 1.171-1.101 2.456-1.271 3.859-.183 1.4-.168 2.846.045 4.343.213 1.49.48 2.919.798 4.268.706 2.836.812 5.04.304 6.605-.513 1.572-1.451 2.563-2.829 2.979-1.597.465-2.978.004-4.129-1.387-1.155-1.383-2.169-3.956-3.051-7.719-.518-2.362-.975-4.425-1.385-6.172s-.814-3.208-1.23-4.376c-.411-1.17-.854-2.071-1.326-2.697-.465-.626-1.024-1.026-1.661-1.201"/><path d="m120.05 121.54c.002.604-.258 1.159-.784 1.67-.521.517-1.132 1.062-1.827 1.636-.695.581-1.399 1.208-2.119 1.885-.715.674-1.269 1.472-1.649 2.394-.572 1.471-.837 3.119-.778 4.952.063 1.824.293 3.536.687 5.127.4 1.59.915 2.921 1.563 3.992.64 1.071 1.245 1.535 1.812 1.402.702-.165 1.353-.659 1.968-1.498.606-.835 1.112-1.746 1.533-2.743.405-.994.705-1.987.886-2.975.188-.989.225-1.721.108-2.197-.108-.484-.287-1.146-.534-1.989-.243-.839-.428-1.689-.562-2.528-.128-.85-.156-1.601-.108-2.258.052-.658.31-1.067.782-1.224.471-.154 1.021-.396 1.662-.731.634-.328 1.272-.507 1.915-.515.645-.012 1.234.294 1.773.929.545.63.97 1.833 1.301 3.604.696 3.567 1.499 6.2 2.404 7.901.9 1.703 2.087 2.542 3.563 2.517.996-.051 1.811-.48 2.423-1.294.623-.813 1.136-1.687 1.569-2.614.424-.926.783-1.759 1.072-2.497.283-.736.577-1.071.873-.999.331.058.574.58.714 1.562.131.983.057 2.139-.222 3.472-.292 1.332-.85 2.732-1.681 4.194-.835 1.462-2.049 2.728-3.642 3.793-.835.563-1.647.941-2.432 1.126-.788.183-1.526.242-2.209.169-.681-.065-1.312-.245-1.883-.527-.572-.278-1.114-.61-1.622-1-1.125-.883-2.141-2.073-3.044-3.566-.197 1.147-.592 2.213-1.193 3.178-.495.855-1.192 1.7-2.104 2.532-.91.837-2.119 1.484-3.626 1.925-1.521.403-3.071.265-4.665-.427-1.591-.691-2.989-1.789-4.197-3.301-1.209-1.519-2.104-3.389-2.699-5.626-.59-2.237-.658-4.718-.199-7.451.324-1.783.92-3.378 1.788-4.777.87-1.401 1.864-2.616 2.984-3.64 1.124-1.02 2.285-1.848 3.502-2.479 1.211-.631 2.318-1.087 3.339-1.368 1.014-.286 1.862-.405 2.547-.36.675.047 1.015.257 1.01.627"/><path d="m136.8 118.99c.818-.649 1.643-1.07 2.473-1.265.83-.195 1.588-.217 2.27-.051.685.161 1.263.479 1.74.942.479.463.771 1 .864 1.627.316 2.924.958 5.55 1.919 7.879.967 2.334 1.971 4.264 3.02 5.791 1.047 1.527 2.024 2.604 2.934 3.221.906.619 1.435.656 1.579.111.152-.543.22-1.627.207-3.262-.018-1.633.029-3.456.131-5.461.108-2 .362-4.01.766-6.02.41-2.01 1.127-3.659 2.161-4.962 1.026-1.302 1.994-2.106 2.891-2.409.896-.302 1.726-.29 2.499.036.764.327 1.485.886 2.152 1.673.667.786 1.307 1.599 1.913 2.424.617.866 1.275 2.02 1.953 3.445.682 1.432 1.366 2.783 2.055 4.045.687 1.271 1.334 2.263 1.938 2.972.606.712 1.165.774 1.678.194.317-.396.584-1.13.793-2.19.212-1.065.417-2.3.618-3.71.199-1.407.431-2.876.694-4.413.258-1.537.605-2.977 1.023-4.322.425-1.342.976-2.489 1.651-3.425.675-.943 1.55-1.517 2.61-1.718 1.145-.22 2.273-.175 3.384.137 1.11.316 2.108.758 3 1.308.891.55 1.615 1.148 2.186 1.8.57.652.905 1.217 1.02 1.697.111.478-.068.786-.545.924-.476.134-1.305-.056-2.479-.56-1.227-.497-2.331.005-3.314 1.501-.986 1.501-1.462 3.884-1.437 7.146.009 1.614-.053 3.066-.185 4.365-.137 1.298-.396 2.441-.783 3.438-.393.983-.963 1.845-1.714 2.57-.752.732-1.748 1.312-2.976 1.739-1.154.402-2.304.413-3.455.017-1.156-.398-2.259-1.016-3.305-1.854-1.057-.839-1.995-1.804-2.825-2.9-.834-1.093-1.457-2.145-1.881-3.151-.449-.948-.808-1.619-1.054-2-.248-.375-.44-.485-.558-.318-.129.167-.224.584-.3 1.248-.073.661-.189 1.541-.345 2.639-.119 1.083-.235 2.171-.341 3.255-.113 1.089-.359 2.125-.726 3.111-.367.987-.922 1.926-1.656 2.813-.735.885-1.812 1.655-3.229 2.31-1.369.641-2.74.951-4.1.921-1.371-.021-2.67-.26-3.901-.707-1.235-.442-2.374-1.021-3.41-1.722-1.048-.701-1.931-1.43-2.654-2.175-.487-.49-1.073-1.213-1.759-2.183-.691-.965-1.379-2.072-2.09-3.314-.705-1.242-1.368-2.538-1.984-3.886-.618-1.357-1.103-2.647-1.464-3.875-.355-1.23-.526-2.334-.498-3.311.026-.969.312-1.684.846-2.134"/></g><path d="m79.15 112.21c-4.37.651-8.142-.343-11.341-2.972-3.205-2.644-5.883-6.496-8.04-11.569-.789-1.792-1.463-3.663-2.039-5.603-.572-1.938-1.109-3.875-1.607-5.807-.5-1.937-.973-3.859-1.418-5.758-.444-1.895-.9-3.74-1.361-5.52-1.269.483-2.195 1.654-2.773 3.52-.579 1.862-.921 4.06-1.044 6.6-.119 2.544-.071 5.249.14 8.127.216 2.877.449 5.589.7 8.132.25 2.543.482 4.752.692 6.617.201 1.859.237 3.01.117 3.461-.118.676-.444 1.26-.978 1.748-.529.491-1.144.858-1.85 1.094-.702.229-1.439.337-2.208.308-.769-.023-1.425-.227-1.973-.604-1.32-.891-2.481-2.219-3.496-3.99-1.01-1.768-1.784-3.601-2.328-5.5-1.256-4.593-2.708-9.241-4.342-13.954-1.636-4.706-3.477-9.172-5.527-13.393-.252.292-.512.598-.788.911-.269.321-.515.749-.736 1.28-.221.538-.433 1.22-.626 2.05-.198.829-.353 1.879-.469 3.15-.093.994-.082 2.326.04 3.999.114 1.681.305 3.528.569 5.536.263 2.02.573 4.107.921 6.281.35 2.183.692 4.254 1.042 6.222.349 1.968.672 3.739.969 5.309.299 1.562.522 2.767.676 3.604.109.669-.109 1.282-.64 1.85-.537.561-1.217.959-2.037 1.199-.823.242-1.682.283-2.595.132-.91-.156-1.664-.605-2.252-1.341-.901-1.086-1.615-2.354-2.14-3.825-.532-1.464-.946-2.99-1.246-4.582-.304-1.587-.519-3.172-.636-4.76-.121-1.584-.225-3.081-.325-4.489-.102-1.214-.196-2.792-.282-4.735-.081-1.936-.094-3.989-.024-6.151.068-2.158.269-4.31.594-6.458.329-2.152.865-4.067 1.627-5.744.757-1.673 1.798-2.993 3.116-3.948 1.321-.95 2.979-1.317 4.964-1.094 1.285.163 2.512.887 3.693 2.176 1.172 1.297 2.275 2.925 3.29 4.898 1.017 1.976 1.956 4.163 2.82 6.567.862 2.402 1.637 4.765 2.318 7.093.689 2.331 1.272 4.498 1.768 6.502.493 2 .898 3.592 1.221 4.76.132-1 .24-2.35.323-4.052.092-1.703.197-3.592.331-5.675.134-2.084.315-4.247.553-6.491.235-2.245.561-4.421.992-6.527.43-2.102.962-4.04 1.611-5.809.649-1.762 1.446-3.174 2.399-4.225.951-1.049 2.084-1.672 3.396-1.868 1.312-.191 2.854.224 4.611 1.238 1.177.693 2.321 1.979 3.434 3.861 1.108 1.882 2.192 4.058 3.257 6.528 1.062 2.47 2.101 5.087 3.118 7.842 1.012 2.759 2 5.339 2.956 7.74.953 2.406 1.873 4.482 2.738 6.241.875 1.754 1.738 2.873 2.591 3.365 1.293.805 2.458 1.233 3.479 1.292 1.028.058 1.924.024 2.673-.11.755-.13 1.405-.256 1.953-.385.544-.127.981.02 1.312.455.265.346.315.787.139 1.312-.177.53-.528 1.048-1.051 1.56-.528.516-1.221 1-2.079 1.454-.859.458-1.826.765-2.893.925"/><path d="m90.42 74.79c.004.597-.256 1.158-.781 1.671-.525.513-1.14 1.06-1.829 1.639-.697.579-1.4 1.201-2.119 1.877-.715.674-1.269 1.476-1.645 2.392-.579 1.473-.839 3.125-.779 4.955.064 1.83.287 3.536.681 5.125.399 1.586.919 2.922 1.563 3.995.644 1.07 1.247 1.539 1.818 1.405.695-.163 1.354-.665 1.962-1.502.608-.835 1.117-1.746 1.528-2.744.415-.998.715-1.982.896-2.974.185-.99.223-1.721.108-2.207-.111-.476-.291-1.133-.534-1.98-.246-.838-.429-1.684-.562-2.528-.128-.842-.165-1.599-.112-2.256.056-.657.313-1.063.783-1.218.471-.158 1.019-.402 1.661-.74.636-.327 1.278-.503 1.92-.515.64-.013 1.232.296 1.772.935.541.63.975 1.83 1.294 3.597.701 3.576 1.499 6.21 2.405 7.906.907 1.702 2.098 2.542 3.571 2.519.994-.049 1.811-.485 2.423-1.293.616-.813 1.133-1.687 1.564-2.616.429-.934.788-1.762 1.073-2.495.286-.735.576-1.071.873-1 .335.057.572.582.712 1.562.139.982.061 2.139-.224 3.473-.288 1.331-.844 2.736-1.679 4.197-.828 1.465-2.046 2.727-3.642 3.788-.834.569-1.643.942-2.432 1.127-.783.184-1.521.244-2.203.172-.688-.074-1.317-.246-1.889-.525-.57-.281-1.116-.615-1.621-1-1.126-.881-2.143-2.079-3.049-3.57-.191 1.147-.59 2.21-1.188 3.18-.487.855-1.192 1.699-2.102 2.538-.911.832-2.123 1.474-3.633 1.919-1.517.402-3.069.256-4.656-.427-1.596-.688-2.994-1.791-4.199-3.303-1.21-1.517-2.109-3.389-2.701-5.623-.595-2.233-.664-4.72-.198-7.456.326-1.784.922-3.37 1.788-4.776.872-1.401 1.867-2.614 2.985-3.634 1.119-1.025 2.286-1.853 3.498-2.479 1.21-.634 2.323-1.087 3.337-1.371 1.02-.288 1.868-.405 2.545-.359.684.044 1.027.256 1.017.625"/><path d="m136.9 85.18c.866-.615 1.57-.963 2.105-1.042.537-.083.906.006 1.099.257.197.257.231.626.092 1.123-.137.495-.424.996-.858 1.516-.366.404-.801.945-1.312 1.616-.513.671-1.034 1.385-1.577 2.133-.538.748-1.057 1.488-1.557 2.199-.501.717-.93 1.304-1.287 1.753.79 1.98 1.454 4.03 1.995 6.136.54 2.109.887 4.174 1.036 6.186.153 2.02.068 3.926-.243 5.731-.32 1.8-.942 3.365-1.878 4.686-1.312 1.874-2.79 3.122-4.442 3.743-1.654.617-3.228.682-4.727.21-1.495-.483-2.805-1.453-3.929-2.916-1.129-1.466-1.799-3.349-2.02-5.649-.183-2.351.057-4.528.717-6.527.659-2 1.443-3.73 2.346-5.181 1.069-1.729 2.292-3.279 3.676-4.668-.125-.336-.325-.794-.603-1.379-.21-.501-.52-1.132-.925-1.891-.412-.758-.935-1.725-1.583-2.915-.391-.688-.831-1.337-1.317-1.939-.494-.594-.94-1.1-1.36-1.508-.524-.482-1.016-.894-1.465-1.246-.516.946-1.071 1.82-1.676 2.605-.487.669-1.051 1.292-1.693 1.878-.649.592-1.301.963-1.956 1.118-.697.163-1.573-.021-2.617-.56-1.052-.54-2.059-1.337-3.02-2.402-.961-1.065-1.811-2.339-2.557-3.827-.736-1.485-1.173-3.086-1.301-4.809-.082-1.735-.001-3.162.245-4.275.242-1.118.581-2.039 1.01-2.76.428-.725.941-1.292 1.539-1.709.593-.414 1.2-.768 1.82-1.049.927-.405 2.103-.54 3.535-.418 1.437.127 2.836.39 4.193.785 1.36.392 2.555.851 3.574 1.372 1.021.524 1.558.983 1.599 1.386.055.406-.386.658-1.303.756-.922.103-1.979.201-3.181.298-1.199.101-2.353.276-3.47.538-1.112.261-1.809.792-2.081 1.59-.275.804-.428 1.717-.467 2.741-.038 1.022.025 2.02.189 2.999.154.977.422 1.848.79 2.613.359.77.826 1.295 1.4 1.571.315.164.658-.004 1.025-.482.376-.479.798-1.062 1.281-1.751.486-.688 1.043-1.374 1.665-2.051.625-.674 1.351-1.168 2.18-1.481.827-.305 1.761-.294 2.805.035 1.044.335 2.232 1.17 3.562 2.521.779.783 1.631 1.7 2.55 2.752.916 1.057 1.874 2.641 2.88 4.753.969-.964 1.884-1.884 2.743-2.751.857-.87 1.774-1.677 2.753-2.414m-7.859 27.22c.087-.811.029-1.799-.175-2.969-.211-1.172-.438-2.328-.706-3.464-.357-1.3-.745-2.663-1.17-4.083-.731 1-1.344 2.02-1.84 3.061-.44.885-.767 1.883-.991 3-.224 1.105-.158 2.224.195 3.336.343 1.073.77 1.816 1.284 2.228.508.406 1 .593 1.473.549.478-.038.895-.232 1.255-.568.356-.337.579-.701.675-1.09"/><path d="m131.63 76.26c-.116-1.083-.173-2.124-.186-3.14-.005-1.01.062-1.968.192-2.875.131-.909.329-1.705.58-2.382.257-.686.587-1.211 1.01-1.589.429-.331.998-.703 1.71-1.125.703-.419 1.402-.677 2.098-.766.695-.095 1.274.089 1.759.554.478.463.677 1.416.601 2.866-.004.787.066 1.749.191 2.887.132 1.147.337 2.369.623 3.66.276 1.299.611 2.575 1 3.844.388 1.272.832 2.425 1.328 3.458.494 1.04 1.041 1.891 1.637 2.556.594.668 1.224 1.039 1.89 1.109 1.364.142 2.447-.153 3.24-.895.793-.742 1.459-1.747 1.991-3.03.188-.547.47-1.045.829-1.471.358-.433.684-.658.983-.683.286-.021.502.229.626.754.121.523.043 1.463-.242 2.821-.311 1.413-.826 2.705-1.544 3.886-.71 1.182-1.581 2.184-2.611 2.997-1.034.819-2.192 1.426-3.481 1.822-1.292.39-2.651.505-4.072.334-1.408-.136-2.631-.507-3.645-1.119-1.021-.607-1.92-1.54-2.692-2.787-.786-1.249-1.473-2.824-2.081-4.733-.608-1.91-1.193-4.229-1.736-6.956m-2.538-24.09c.257-1.073.846-1.838 1.78-2.29.933-.444 1.896-.647 2.899-.608 1 .044 1.914.299 2.741.776.826.478 1.266 1.144 1.328 2 .064 1.048-.293 2.035-1.059 2.979-.772.941-2.115 1.545-4.04 1.811-.529.083-1.049-.008-1.548-.258-.495-.251-.935-.596-1.315-1.042-.38-.443-.648-.96-.816-1.57-.168-.603-.157-1.208.027-1.802"/><path d="m164.72 60.55c-.078.254-.486.402-1.206.456-.729.059-1.538.228-2.438.507-.901.275-1.76.778-2.561 1.496-.795.722-1.315 1.842-1.558 3.372-.197 1.524-.208 3.095-.038 4.708.173 1.622.523 3.118 1.054 4.496.53 1.369 1.191 2.519 1.986 3.438.787.917 1.691 1.47 2.697 1.647 1.438.215 2.658.117 3.663-.307 1.012-.421 1.879-.932 2.613-1.542.731-.611 1.338-1.227 1.817-1.845.477-.618.87-1.033 1.189-1.248.767-.459 1.218-.226 1.338.685.121.922-.219 2.213-1.026 3.877-.427.929-1.016 1.863-1.767 2.795-.746.936-1.638 1.759-2.668 2.461-1.042.703-2.217 1.234-3.538 1.586-1.32.359-2.789.428-4.411.209-1.524-.196-2.986-.758-4.397-1.665-1.414-.913-2.663-2.059-3.747-3.443-1.083-1.383-1.981-2.934-2.684-4.66-.702-1.722-1.1-3.521-1.193-5.391-.093-1.866.155-3.762.743-5.67.59-1.912 1.604-3.731 3.046-5.448 1.384-1.57 2.865-2.563 4.45-2.98 1.585-.419 3.034-.526 4.348-.333 1.312.205 2.389.608 3.222 1.217.835.611 1.193 1.14 1.066 1.582"/><path d="m43.28 128.48c-.499.214-1.176.473-2.024.789-.85.317-1.733.799-2.67 1.455-.929.655-1.848 1.527-2.772 2.621-.918 1.088-1.729 2.501-2.43 4.233-.958 2.39-.951 4.139.021 5.252.978 1.103 3.075 1.953 6.296 2.53 1.631.266 3.32.435 5.062.509 1.749.069 3.423.346 5.04.822 1.605.476 3.107 1.299 4.481 2.476 1.386 1.171 2.543 2.962 3.477 5.372.707 1.857.753 3.573.131 5.151-.62 1.576-1.609 2.999-2.974 4.264-1.356 1.259-2.948 2.325-4.748 3.18-1.804.863-3.511 1.485-5.133 1.866-3.303.819-6.226 1.052-8.749.703-2.525-.354-4.598-.938-6.218-1.758-1.622-.815-2.731-1.725-3.334-2.711-.599-.98-.634-1.731-.104-2.22.345-.313.872-.436 1.602-.374.727.057 1.631.157 2.701.3 1.07.137 2.271.235 3.596.294 1.328.062 2.771-.073 4.334-.392 1.561-.318 3.217-.897 4.989-1.722 1.761-.833 3.598-2.091 5.504-3.782.683-.623 1.01-1.354.974-2.2-.04-.843-.423-1.655-1.157-2.424-.737-.772-1.82-1.407-3.248-1.902-1.431-.492-3.204-.721-5.315-.689-1.834.015-3.648.007-5.435-.037-1.788-.044-3.445-.299-4.983-.767-1.538-.471-2.888-1.214-4.051-2.234-1.163-1.016-2.05-2.464-2.679-4.348-.396-1.29-.352-2.891.121-4.798.474-1.912 1.229-3.859 2.259-5.855 1.028-1.992 2.295-3.915 3.798-5.761 1.5-1.852 3.094-3.343 4.79-4.479 1.688-1.134 3.399-1.767 5.12-1.895 1.722-.124 3.346.51 4.872 1.9 1.01.963 2.041 1.703 3.108 2.209 1.062.515 1.994.929 2.782 1.251.791.326 1.373.644 1.749.972.378.325.402.781.082 1.367-.373.593-.848.899-1.448.923-.589.024-1.283-.035-2.077-.167-.788-.135-1.647-.249-2.571-.329-.911-.085-1.837.048-2.767.405"/><path d="m57.1 115.76c-.05-.815.308-1.355 1.072-1.634.767-.27 1.634-.285 2.607-.057.98.235 1.936.664 2.867 1.3.935.634 1.534 1.428 1.799 2.377.281.994.567 2.01.856 3.051.292 1.036.554 1.964.795 2.789.276.988.538 1.921.791 2.784 1.453-.478 2.753-.83 3.899-1.051 1.017-.194 1.938-.269 2.779-.239.844.034 1.322.336 1.453.905.144.61-.114 1.223-.776 1.841-.66.614-1.434 1.184-2.327 1.719-1.05.62-2.249 1.216-3.583 1.81.769 2.906 1.523 5.73 2.257 8.458.608 2.393 1.21 4.902 1.803 7.526.59 2.631 1.026 4.945 1.318 6.949.245 2.02.241 3.54-.008 4.567-.239 1.026-.622 1.73-1.121 2.13-.506.396-1.083.59-1.735.577-.645-.005-1.254-.058-1.833-.154-.279-.026-.628-.43-1.04-1.21-.415-.779-.841-1.811-1.274-3.085-.445-1.279-.9-2.73-1.371-4.348-.47-1.616-.932-3.275-1.374-4.968-1.075-3.986-2.188-8.474-3.356-13.45-1.121.532-2.182.923-3.183 1.157-.883.208-1.721.254-2.534.141-.804-.104-1.389-.534-1.75-1.277-.271-.584-.127-1.192.44-1.835.559-.638 1.239-1.238 2.032-1.789.913-.63 2.01-1.253 3.291-1.88l-.246-1.05c-.072-.306-.138-.617-.192-.955-.055-.334-.104-.609-.156-.827-.409-1.747-.763-3.161-1.065-4.243-.3-1.081-.537-1.981-.706-2.708-.168-.718-.283-1.312-.348-1.783-.06-.466-.089-.977-.081-1.538"/><path d="m78.998 133.38c-.542-.147-1.017-.2-1.419-.147-.403.043-.77.111-1.101.188-.322.077-.613.109-.874.1-.254-.01-.509-.169-.762-.475-.206-.274-.095-.742.324-1.392.429-.655 1.055-1.263 1.895-1.826.836-.565 1.823-.944 2.98-1.15 1.149-.197 2.346-.007 3.594.578 1.097.568 2.026 1.147 2.784 1.729.76.582 1.38 1.117 1.864 1.601.547.564.978 1.134 1.3 1.703.948-1.467 1.979-2.75 3.107-3.841.971-.964 2.108-1.834 3.403-2.596 1.294-.767 2.685-1.111 4.175-1.044.383.046.613.278.683.7.076.421.005.913-.208 1.466-.218.561-.555 1.121-1.021 1.691-.467.57-1.077 1.036-1.815 1.399-1.45.702-2.51 1.649-3.174 2.814-.672 1.171-1.101 2.456-1.271 3.859-.183 1.4-.168 2.846.045 4.343.213 1.49.48 2.919.798 4.268.706 2.836.812 5.04.304 6.605-.513 1.572-1.451 2.563-2.829 2.979-1.597.465-2.978.004-4.129-1.387-1.155-1.383-2.169-3.956-3.051-7.719-.518-2.362-.975-4.425-1.385-6.172s-.814-3.208-1.23-4.376c-.411-1.17-.854-2.071-1.326-2.697-.465-.626-1.024-1.026-1.661-1.201"/><path d="m120.05 121.54c.002.604-.258 1.159-.784 1.67-.521.517-1.132 1.062-1.827 1.636-.695.581-1.399 1.208-2.119 1.885-.715.674-1.269 1.472-1.649 2.394-.572 1.471-.837 3.119-.778 4.952.063 1.824.293 3.536.687 5.127.4 1.59.915 2.921 1.563 3.992.64 1.071 1.245 1.535 1.812 1.402.702-.165 1.353-.659 1.968-1.498.606-.835 1.112-1.746 1.533-2.743.405-.994.705-1.987.886-2.975.188-.989.225-1.721.108-2.197-.108-.484-.287-1.146-.534-1.989-.243-.839-.428-1.689-.562-2.528-.128-.85-.156-1.601-.108-2.258.052-.658.31-1.067.782-1.224.471-.154 1.021-.396 1.662-.731.634-.328 1.272-.507 1.915-.515.645-.012 1.234.294 1.773.929.545.63.97 1.833 1.301 3.604.696 3.567 1.499 6.2 2.404 7.901.9 1.703 2.087 2.542 3.563 2.517.996-.051 1.811-.48 2.423-1.294.623-.813 1.136-1.687 1.569-2.614.424-.926.783-1.759 1.072-2.497.283-.736.577-1.071.873-.999.331.058.574.58.714 1.562.131.983.057 2.139-.222 3.472-.292 1.332-.85 2.732-1.681 4.194-.835 1.462-2.049 2.728-3.642 3.793-.835.563-1.647.941-2.432 1.126-.788.183-1.526.242-2.209.169-.681-.065-1.312-.245-1.883-.527-.572-.278-1.114-.61-1.622-1-1.125-.883-2.141-2.073-3.044-3.566-.197 1.147-.592 2.213-1.193 3.178-.495.855-1.192 1.7-2.104 2.532-.91.837-2.119 1.484-3.626 1.925-1.521.403-3.071.265-4.665-.427-1.591-.691-2.989-1.789-4.197-3.301-1.209-1.519-2.104-3.389-2.699-5.626-.59-2.237-.658-4.718-.199-7.451.324-1.783.92-3.378 1.788-4.777.87-1.401 1.864-2.616 2.984-3.64 1.124-1.02 2.285-1.848 3.502-2.479 1.211-.631 2.318-1.087 3.339-1.368 1.014-.286 1.862-.405 2.547-.36.675.047 1.015.257 1.01.627"/><path d="m136.8 118.99c.818-.649 1.643-1.07 2.473-1.265.83-.195 1.588-.217 2.27-.051.685.161 1.263.479 1.74.942.479.463.771 1 .864 1.627.316 2.924.958 5.55 1.919 7.879.967 2.334 1.971 4.264 3.02 5.791 1.047 1.527 2.024 2.604 2.934 3.221.906.619 1.435.656 1.579.111.152-.543.22-1.627.207-3.262-.018-1.633.029-3.456.131-5.461.108-2 .362-4.01.766-6.02.41-2.01 1.127-3.659 2.161-4.962 1.026-1.302 1.994-2.106 2.891-2.409.896-.302 1.726-.29 2.499.036.764.327 1.485.886 2.152 1.673.667.786 1.307 1.599 1.913 2.424.617.866 1.275 2.02 1.953 3.445.682 1.432 1.366 2.783 2.055 4.045.687 1.271 1.334 2.263 1.938 2.972.606.712 1.165.774 1.678.194.317-.396.584-1.13.793-2.19.212-1.065.417-2.3.618-3.71.199-1.407.431-2.876.694-4.413.258-1.537.605-2.977 1.023-4.322.425-1.342.976-2.489 1.651-3.425.675-.943 1.55-1.517 2.61-1.718 1.145-.22 2.273-.175 3.384.137 1.11.316 2.108.758 3 1.308.891.55 1.615 1.148 2.186 1.8.57.652.905 1.217 1.02 1.697.111.478-.068.786-.545.924-.476.134-1.305-.056-2.479-.56-1.227-.497-2.331.005-3.314 1.501-.986 1.501-1.462 3.884-1.437 7.146.009 1.614-.053 3.066-.185 4.365-.137 1.298-.396 2.441-.783 3.438-.393.983-.963 1.845-1.714 2.57-.752.732-1.748 1.312-2.976 1.739-1.154.402-2.304.413-3.455.017-1.156-.398-2.259-1.016-3.305-1.854-1.057-.839-1.995-1.804-2.825-2.9-.834-1.093-1.457-2.145-1.881-3.151-.449-.948-.808-1.619-1.054-2-.248-.375-.44-.485-.558-.318-.129.167-.224.584-.3 1.248-.073.661-.189 1.541-.345 2.639-.119 1.083-.235 2.171-.341 3.255-.113 1.089-.359 2.125-.726 3.111-.367.987-.922 1.926-1.656 2.813-.735.885-1.812 1.655-3.229 2.31-1.369.641-2.74.951-4.1.921-1.371-.021-2.67-.26-3.901-.707-1.235-.442-2.374-1.021-3.41-1.722-1.048-.701-1.931-1.43-2.654-2.175-.487-.49-1.073-1.213-1.759-2.183-.691-.965-1.379-2.072-2.09-3.314-.705-1.242-1.368-2.538-1.984-3.886-.618-1.357-1.103-2.647-1.464-3.875-.355-1.23-.526-2.334-.498-3.311.026-.969.312-1.684.846-2.134"/></g><g fill="none" stroke="#f04923" stroke-width="15" stroke-miterlimit="10"><path d="m72.15 105.21c-4.37.651-8.142-.343-11.341-2.972-3.205-2.644-5.883-6.496-8.04-11.569-.789-1.792-1.463-3.663-2.039-5.603-.572-1.938-1.109-3.875-1.607-5.807-.5-1.937-.973-3.859-1.418-5.758-.444-1.895-.9-3.74-1.361-5.52-1.269.483-2.195 1.654-2.773 3.52-.579 1.862-.921 4.06-1.044 6.6-.119 2.544-.071 5.249.14 8.127.216 2.877.449 5.589.7 8.132.25 2.544.482 4.752.692 6.618.201 1.859.237 3.01.117 3.46-.118.676-.444 1.26-.978 1.748-.529.491-1.144.858-1.85 1.094-.702.229-1.439.337-2.208.308-.769-.023-1.425-.227-1.973-.604-1.32-.891-2.481-2.219-3.496-3.99-1.01-1.768-1.784-3.601-2.328-5.5-1.256-4.594-2.708-9.241-4.342-13.955-1.636-4.706-3.477-9.172-5.527-13.393-.252.292-.512.598-.788.911-.269.321-.515.749-.736 1.28-.221.538-.433 1.22-.626 2.05-.198.829-.353 1.879-.469 3.15-.093.994-.082 2.326.04 3.999.114 1.681.305 3.528.569 5.536.263 2.02.573 4.107.921 6.281.35 2.183.692 4.254 1.042 6.222.349 1.968.672 3.739.969 5.309.299 1.562.522 2.767.676 3.604.109.669-.109 1.282-.64 1.85-.537.561-1.217.959-2.037 1.199-.823.242-1.682.283-2.595.132-.91-.156-1.664-.605-2.252-1.341-.901-1.086-1.615-2.354-2.14-3.825-.532-1.464-.946-2.99-1.246-4.582-.304-1.587-.519-3.172-.636-4.76-.121-1.584-.225-3.081-.325-4.489-.102-1.214-.196-2.792-.282-4.735-.081-1.936-.094-3.989-.024-6.151.068-2.158.269-4.31.594-6.458.329-2.152.865-4.067 1.627-5.744.757-1.673 1.798-2.993 3.116-3.948 1.321-.95 2.979-1.317 4.964-1.094 1.285.163 2.512.887 3.693 2.176 1.172 1.297 2.275 2.925 3.29 4.898 1.017 1.976 1.956 4.163 2.82 6.567.862 2.402 1.637 4.765 2.318 7.093.689 2.331 1.272 4.498 1.768 6.502.493 2 .898 3.592 1.221 4.76.132-1 .24-2.35.323-4.052.092-1.703.197-3.592.331-5.675.134-2.084.315-4.247.553-6.491.235-2.245.561-4.421.992-6.527.43-2.102.962-4.04 1.611-5.809.649-1.762 1.446-3.174 2.399-4.225.951-1.049 2.084-1.672 3.396-1.868 1.312-.191 2.854.224 4.611 1.238 1.177.693 2.321 1.979 3.434 3.861 1.108 1.882 2.192 4.058 3.257 6.528 1.062 2.47 2.101 5.087 3.118 7.842 1.012 2.759 2 5.339 2.956 7.74.953 2.406 1.873 4.482 2.738 6.241.875 1.754 1.738 2.874 2.591 3.365 1.293.805 2.458 1.233 3.479 1.292 1.028.057 1.924.024 2.673-.11.755-.13 1.405-.256 1.953-.385.544-.127.981.02 1.312.455.265.347.315.788.139 1.313-.177.53-.528 1.048-1.051 1.56-.528.516-1.221 1-2.079 1.454-.859.458-1.826.765-2.893.925"/><path d="m83.42 67.791c.004.597-.256 1.158-.781 1.671-.525.513-1.14 1.06-1.829 1.639-.697.579-1.4 1.201-2.119 1.877-.715.674-1.269 1.476-1.645 2.392-.579 1.473-.839 3.125-.779 4.955.064 1.83.287 3.536.681 5.125.399 1.586.919 2.922 1.563 3.995.644 1.07 1.247 1.539 1.818 1.405.695-.163 1.354-.665 1.962-1.502.608-.835 1.117-1.746 1.528-2.744.415-.998.715-1.982.896-2.974.185-.99.223-1.721.108-2.207-.111-.476-.291-1.133-.534-1.98-.246-.838-.429-1.684-.562-2.528-.128-.842-.165-1.599-.112-2.256.056-.657.313-1.063.783-1.218.471-.158 1.019-.402 1.661-.74.636-.327 1.278-.503 1.92-.515.64-.013 1.232.296 1.772.935.541.63.975 1.83 1.294 3.597.701 3.576 1.499 6.21 2.405 7.906.907 1.702 2.098 2.542 3.571 2.519.993-.049 1.81-.485 2.422-1.293.616-.813 1.133-1.687 1.564-2.616.429-.934.788-1.762 1.073-2.495.286-.735.576-1.071.873-1 .335.057.572.582.712 1.562.139.982.061 2.139-.224 3.473-.288 1.331-.844 2.736-1.679 4.197-.828 1.465-2.046 2.727-3.641 3.788-.835.569-1.643.942-2.433 1.127-.782.183-1.521.244-2.202.172-.688-.074-1.317-.246-1.889-.525-.57-.281-1.116-.615-1.621-1-1.126-.881-2.143-2.079-3.049-3.57-.191 1.147-.59 2.21-1.188 3.18-.487.855-1.192 1.699-2.102 2.538-.911.832-2.123 1.474-3.633 1.919-1.517.402-3.069.256-4.656-.427-1.596-.687-2.994-1.792-4.199-3.303-1.21-1.517-2.109-3.389-2.701-5.623-.595-2.233-.664-4.72-.198-7.456.326-1.784.922-3.37 1.788-4.776.872-1.401 1.867-2.614 2.985-3.634 1.119-1.025 2.286-1.853 3.498-2.479 1.21-.634 2.323-1.087 3.337-1.371 1.02-.288 1.868-.405 2.545-.359.684.044 1.027.256 1.017.625"/><path d="m129.9 78.18c.866-.615 1.57-.963 2.105-1.042.537-.083.906.006 1.099.257.197.257.231.626.092 1.123-.137.495-.424.996-.858 1.516-.366.404-.801.945-1.312 1.616-.513.671-1.034 1.385-1.577 2.133-.538.748-1.057 1.488-1.557 2.199-.501.717-.93 1.304-1.287 1.753.79 1.98 1.454 4.03 1.995 6.136.54 2.11.887 4.173 1.036 6.186.153 2.02.068 3.925-.243 5.731-.32 1.8-.942 3.365-1.878 4.686-1.312 1.874-2.79 3.122-4.442 3.743-1.654.617-3.228.682-4.727.21-1.495-.483-2.805-1.453-3.929-2.916-1.129-1.466-1.799-3.349-2.02-5.649-.183-2.351.057-4.528.717-6.528.659-1.999 1.443-3.729 2.346-5.18 1.069-1.729 2.292-3.279 3.676-4.668-.125-.336-.325-.794-.603-1.379-.21-.501-.52-1.132-.925-1.891-.412-.758-.935-1.725-1.583-2.915-.391-.688-.831-1.337-1.317-1.939-.494-.594-.94-1.1-1.36-1.508-.524-.482-1.016-.894-1.465-1.246-.516.946-1.071 1.82-1.676 2.605-.487.669-1.051 1.292-1.693 1.878-.649.592-1.301.963-1.956 1.118-.697.163-1.573-.021-2.617-.56-1.052-.54-2.059-1.337-3.02-2.402-.961-1.065-1.811-2.339-2.557-3.827-.736-1.485-1.173-3.086-1.3-4.809-.082-1.735-.001-3.162.245-4.275.242-1.118.581-2.039 1.01-2.76.428-.725.942-1.292 1.54-1.709.592-.414 1.2-.768 1.82-1.049.927-.405 2.103-.54 3.535-.418 1.437.127 2.836.39 4.193.785 1.36.392 2.555.851 3.574 1.372 1.021.524 1.558.983 1.599 1.386.055.406-.386.658-1.303.756-.922.103-1.979.201-3.181.298-1.199.101-2.353.276-3.47.538-1.112.261-1.809.792-2.081 1.59-.275.804-.428 1.717-.467 2.741-.038 1.022.025 2.02.189 2.999.154.977.422 1.848.79 2.613.359.77.826 1.295 1.4 1.571.315.164.658-.004 1.025-.482.376-.479.798-1.062 1.281-1.751.486-.688 1.043-1.374 1.665-2.051.625-.674 1.351-1.168 2.18-1.481.827-.305 1.761-.294 2.805.035 1.044.335 2.232 1.17 3.562 2.521.779.783 1.631 1.7 2.55 2.752.916 1.057 1.874 2.641 2.88 4.753.969-.964 1.884-1.884 2.743-2.751.854-.87 1.771-1.677 2.75-2.414m-7.859 27.22c.087-.811.029-1.799-.175-2.969-.211-1.172-.438-2.329-.706-3.464-.357-1.3-.745-2.663-1.17-4.083-.731 1-1.344 2.02-1.84 3.06-.44.885-.767 1.883-.991 3-.224 1.106-.158 2.224.195 3.336.343 1.073.77 1.816 1.284 2.228.508.406 1 .593 1.473.549.478-.038.895-.232 1.255-.568.356-.336.579-.7.675-1.089"/><path d="m124.63 69.26c-.116-1.083-.173-2.124-.186-3.14-.005-1.01.062-1.968.192-2.875.131-.909.329-1.705.58-2.382.257-.686.587-1.211 1.01-1.589.429-.331.998-.703 1.71-1.125.703-.419 1.402-.677 2.098-.766.695-.095 1.274.089 1.759.554.478.463.677 1.416.601 2.866-.004.787.066 1.749.191 2.887.132 1.147.337 2.369.623 3.66.276 1.299.611 2.575 1 3.844.388 1.272.832 2.425 1.328 3.458.494 1.04 1.041 1.891 1.637 2.556.594.668 1.224 1.039 1.89 1.109 1.364.142 2.447-.153 3.24-.895.793-.742 1.459-1.747 1.991-3.03.188-.547.47-1.045.829-1.471.358-.433.684-.658.983-.683.286-.021.502.229.626.754.121.523.043 1.463-.242 2.821-.311 1.413-.826 2.705-1.544 3.886-.71 1.182-1.581 2.184-2.611 2.997-1.034.819-2.192 1.426-3.481 1.822-1.292.39-2.651.505-4.072.334-1.408-.136-2.631-.507-3.645-1.119-1.021-.607-1.92-1.54-2.692-2.787-.786-1.249-1.473-2.824-2.081-4.733-.608-1.91-1.193-4.229-1.736-6.956m-2.538-24.09c.257-1.073.846-1.838 1.78-2.29.933-.444 1.896-.647 2.899-.608 1 .044 1.914.299 2.741.776.826.478 1.266 1.144 1.328 2 .064 1.048-.293 2.035-1.059 2.979-.772.941-2.115 1.545-4.04 1.811-.529.083-1.049-.008-1.548-.258-.495-.251-.935-.596-1.315-1.042-.38-.443-.648-.96-.816-1.57-.168-.603-.157-1.208.027-1.802"/><path d="m157.72 53.55c-.078.254-.486.402-1.206.456-.729.059-1.538.228-2.438.507-.901.275-1.76.778-2.561 1.496-.795.722-1.315 1.842-1.558 3.372-.197 1.524-.208 3.095-.038 4.708.173 1.622.523 3.118 1.054 4.496.53 1.369 1.191 2.519 1.986 3.438.787.917 1.691 1.47 2.697 1.647 1.438.215 2.658.117 3.663-.307 1.012-.421 1.879-.932 2.613-1.542.731-.611 1.338-1.227 1.817-1.845.477-.618.87-1.033 1.189-1.248.767-.459 1.218-.226 1.338.685.121.922-.219 2.213-1.026 3.877-.427.929-1.016 1.863-1.767 2.795-.746.936-1.638 1.759-2.668 2.461-1.042.703-2.217 1.234-3.538 1.586-1.32.359-2.789.428-4.411.209-1.524-.196-2.986-.758-4.397-1.665-1.414-.913-2.663-2.059-3.747-3.443-1.083-1.383-1.981-2.934-2.684-4.66-.702-1.722-1.1-3.521-1.193-5.391-.093-1.866.155-3.762.743-5.67.59-1.912 1.604-3.731 3.046-5.448 1.384-1.57 2.865-2.563 4.45-2.98 1.585-.419 3.034-.526 4.348-.333 1.312.205 2.389.608 3.222 1.217.835.611 1.193 1.14 1.066 1.582"/><path d="m36.28 121.48c-.499.214-1.176.473-2.024.789-.85.317-1.733.799-2.67 1.455-.929.655-1.848 1.527-2.772 2.621-.918 1.088-1.729 2.501-2.43 4.233-.958 2.39-.951 4.139.021 5.252.978 1.103 3.075 1.953 6.296 2.53 1.631.266 3.32.435 5.062.509 1.749.069 3.423.346 5.04.822 1.605.476 3.107 1.299 4.481 2.476 1.386 1.171 2.543 2.962 3.477 5.372.707 1.857.753 3.573.131 5.151-.62 1.576-1.609 2.999-2.974 4.264-1.356 1.259-2.948 2.325-4.748 3.18-1.804.863-3.511 1.485-5.133 1.866-3.303.819-6.226 1.052-8.749.703-2.525-.354-4.598-.938-6.218-1.758-1.622-.815-2.731-1.725-3.334-2.711-.599-.98-.634-1.731-.104-2.22.345-.313.872-.436 1.602-.374.727.057 1.631.157 2.701.3 1.07.137 2.271.235 3.596.294 1.328.062 2.771-.073 4.334-.392 1.561-.318 3.217-.897 4.989-1.722 1.761-.833 3.598-2.091 5.504-3.782.683-.623 1.01-1.354.974-2.2-.04-.843-.423-1.655-1.157-2.424-.737-.772-1.82-1.407-3.248-1.902-1.431-.492-3.204-.721-5.315-.689-1.834.015-3.648.007-5.435-.037-1.788-.044-3.445-.299-4.983-.767-1.538-.471-2.888-1.214-4.051-2.234-1.163-1.016-2.05-2.464-2.679-4.348-.396-1.29-.352-2.891.121-4.798.474-1.912 1.229-3.859 2.259-5.855 1.028-1.992 2.295-3.915 3.798-5.761 1.5-1.852 3.094-3.343 4.79-4.479 1.688-1.134 3.399-1.767 5.12-1.895 1.722-.124 3.346.51 4.872 1.9 1.01.963 2.041 1.703 3.108 2.209 1.062.515 1.994.929 2.782 1.251.791.326 1.373.644 1.749.972.378.325.402.781.082 1.367-.373.593-.848.899-1.448.923-.589.024-1.283-.035-2.077-.167-.788-.135-1.647-.249-2.571-.329-.911-.085-1.837.048-2.767.405"/><path d="m50.1 108.76c-.05-.815.308-1.355 1.072-1.634.767-.27 1.634-.285 2.607-.057.98.235 1.936.664 2.867 1.3.935.634 1.534 1.428 1.799 2.377.281.994.567 2.01.856 3.051.292 1.036.554 1.964.795 2.789.276.988.538 1.921.791 2.784 1.453-.478 2.753-.83 3.899-1.051 1.017-.194 1.938-.269 2.779-.239.844.034 1.322.336 1.453.905.144.61-.114 1.223-.776 1.841-.66.614-1.434 1.184-2.327 1.719-1.05.62-2.249 1.216-3.583 1.81.769 2.906 1.523 5.73 2.257 8.458.608 2.393 1.21 4.902 1.803 7.526.59 2.631 1.026 4.945 1.318 6.949.245 2.02.241 3.54-.008 4.567-.239 1.026-.622 1.73-1.121 2.13-.506.396-1.083.59-1.735.577-.645-.005-1.254-.058-1.833-.154-.279-.026-.628-.43-1.04-1.21-.415-.779-.841-1.811-1.274-3.085-.445-1.279-.9-2.73-1.371-4.348-.47-1.616-.932-3.275-1.374-4.968-1.075-3.986-2.188-8.474-3.356-13.45-1.121.532-2.182.923-3.183 1.157-.883.208-1.721.254-2.534.141-.804-.104-1.389-.534-1.75-1.277-.271-.584-.127-1.192.44-1.835.559-.638 1.239-1.238 2.032-1.789.913-.63 2.01-1.253 3.291-1.88l-.246-1.05c-.072-.306-.138-.617-.192-.955-.055-.334-.104-.609-.156-.827-.409-1.747-.763-3.161-1.065-4.243-.3-1.081-.537-1.981-.706-2.708-.168-.718-.283-1.312-.348-1.783-.06-.466-.089-.977-.081-1.538"/><path d="m71.998 126.38c-.542-.147-1.017-.2-1.419-.147-.403.043-.77.111-1.101.188-.322.077-.613.109-.874.1-.254-.01-.509-.169-.762-.475-.206-.274-.095-.742.324-1.392.429-.655 1.055-1.263 1.895-1.826.836-.565 1.823-.944 2.98-1.15 1.149-.197 2.346-.007 3.594.578 1.097.568 2.026 1.147 2.784 1.729.76.582 1.38 1.117 1.864 1.601.547.564.978 1.134 1.3 1.703.948-1.467 1.979-2.75 3.107-3.841.971-.964 2.108-1.834 3.403-2.596 1.294-.767 2.685-1.111 4.175-1.044.383.046.613.278.683.7.076.421.005.913-.208 1.466-.218.561-.555 1.121-1.021 1.691-.467.57-1.077 1.036-1.815 1.399-1.45.702-2.51 1.649-3.174 2.814-.672 1.171-1.101 2.456-1.271 3.859-.183 1.4-.168 2.846.045 4.343.213 1.49.48 2.919.798 4.268.706 2.836.812 5.04.304 6.605-.513 1.572-1.451 2.563-2.829 2.979-1.597.465-2.978.004-4.129-1.387-1.155-1.383-2.169-3.956-3.051-7.719-.518-2.362-.975-4.425-1.385-6.172s-.814-3.208-1.23-4.376c-.411-1.17-.854-2.071-1.326-2.697-.465-.626-1.024-1.026-1.661-1.201"/><path d="m113.05 114.54c.002.604-.258 1.159-.784 1.67-.521.517-1.132 1.062-1.827 1.636-.695.581-1.399 1.208-2.119 1.885-.715.674-1.269 1.472-1.649 2.394-.572 1.471-.837 3.119-.778 4.952.063 1.824.293 3.536.687 5.127.4 1.59.915 2.921 1.563 3.992.64 1.071 1.245 1.535 1.812 1.402.702-.165 1.353-.659 1.968-1.498.606-.835 1.112-1.746 1.533-2.743.405-.994.705-1.987.886-2.975.188-.989.225-1.721.108-2.197-.108-.484-.287-1.146-.534-1.989-.243-.839-.428-1.689-.562-2.528-.128-.85-.156-1.601-.108-2.258.052-.658.31-1.067.782-1.224.471-.154 1.021-.396 1.662-.731.634-.328 1.272-.507 1.915-.515.645-.012 1.234.294 1.773.929.545.63.97 1.833 1.301 3.604.696 3.567 1.499 6.2 2.404 7.901.9 1.703 2.087 2.542 3.563 2.517.996-.051 1.811-.48 2.423-1.294.623-.813 1.136-1.687 1.569-2.614.424-.926.783-1.759 1.072-2.497.283-.736.577-1.071.873-.999.331.058.574.58.714 1.562.131.983.057 2.139-.222 3.472-.292 1.332-.85 2.732-1.681 4.194-.835 1.462-2.049 2.728-3.642 3.793-.835.563-1.647.941-2.432 1.126-.788.183-1.526.242-2.209.169-.681-.065-1.312-.245-1.883-.527-.572-.278-1.114-.61-1.622-1-1.125-.883-2.141-2.073-3.044-3.566-.197 1.147-.592 2.213-1.193 3.178-.495.855-1.192 1.7-2.104 2.532-.91.837-2.119 1.484-3.626 1.925-1.521.403-3.071.265-4.665-.427-1.591-.691-2.989-1.789-4.198-3.301-1.208-1.519-2.104-3.389-2.699-5.626-.59-2.237-.658-4.718-.199-7.451.323-1.783.919-3.378 1.788-4.777.871-1.401 1.864-2.616 2.984-3.64 1.124-1.02 2.285-1.848 3.502-2.479 1.211-.631 2.318-1.087 3.339-1.368 1.014-.286 1.862-.405 2.547-.36.676.047 1.016.257 1.012.627"/><path d="m129.8 111.99c.818-.649 1.643-1.07 2.473-1.265.83-.195 1.588-.217 2.27-.051.685.161 1.263.479 1.74.942.479.463.771 1 .864 1.627.316 2.924.958 5.55 1.919 7.879.967 2.334 1.971 4.264 3.02 5.791 1.047 1.527 2.024 2.604 2.934 3.221.906.619 1.435.656 1.579.111.152-.543.22-1.627.207-3.262-.018-1.633.029-3.456.131-5.461.108-2 .362-4.01.766-6.02.41-2.01 1.127-3.659 2.161-4.962 1.026-1.302 1.994-2.106 2.891-2.409.896-.302 1.726-.29 2.499.036.764.327 1.485.886 2.152 1.673.667.786 1.307 1.599 1.913 2.424.617.866 1.275 2.02 1.953 3.445.682 1.432 1.366 2.783 2.055 4.045.687 1.271 1.334 2.263 1.938 2.972.606.712 1.165.774 1.678.194.317-.396.584-1.13.793-2.19.212-1.065.417-2.3.618-3.71.199-1.407.431-2.876.694-4.413.258-1.537.605-2.977 1.023-4.322.425-1.342.976-2.489 1.651-3.425.675-.943 1.55-1.517 2.61-1.718 1.145-.22 2.273-.175 3.384.137 1.11.316 2.108.758 3 1.308.891.55 1.615 1.148 2.186 1.8.57.652.905 1.217 1.02 1.697.111.478-.068.786-.545.924-.476.134-1.305-.056-2.479-.56-1.227-.497-2.331.005-3.314 1.501-.986 1.501-1.462 3.884-1.437 7.146.009 1.614-.053 3.066-.185 4.365-.137 1.298-.396 2.441-.783 3.438-.393.983-.963 1.845-1.714 2.57-.752.732-1.748 1.312-2.976 1.739-1.154.402-2.304.413-3.455.017-1.156-.398-2.259-1.016-3.305-1.854-1.057-.839-1.995-1.804-2.825-2.9-.834-1.093-1.457-2.145-1.881-3.151-.449-.948-.808-1.619-1.054-2-.248-.375-.44-.485-.558-.318-.129.167-.224.584-.3 1.248-.073.661-.189 1.541-.345 2.639-.119 1.083-.235 2.171-.341 3.255-.113 1.089-.359 2.125-.726 3.111-.367.987-.922 1.926-1.656 2.813-.735.885-1.812 1.655-3.229 2.31-1.369.641-2.74.951-4.1.921-1.371-.021-2.67-.26-3.901-.707-1.235-.442-2.374-1.021-3.41-1.722-1.048-.701-1.931-1.43-2.654-2.175-.487-.49-1.073-1.213-1.759-2.183-.691-.965-1.379-2.072-2.09-3.314-.705-1.242-1.368-2.538-1.984-3.886-.618-1.357-1.103-2.647-1.464-3.875-.355-1.23-.526-2.334-.498-3.311.026-.969.312-1.684.846-2.134"/></g><g fill="#fff"><path d="m72.15 105.21c-4.37.651-8.142-.343-11.341-2.972-3.205-2.644-5.883-6.496-8.04-11.569-.789-1.792-1.463-3.663-2.039-5.603-.572-1.938-1.109-3.875-1.607-5.807-.5-1.937-.973-3.859-1.418-5.758-.444-1.895-.9-3.74-1.361-5.52-1.269.483-2.195 1.654-2.773 3.52-.579 1.862-.921 4.06-1.044 6.6-.119 2.544-.071 5.249.14 8.127.216 2.877.449 5.589.7 8.132.25 2.544.482 4.752.692 6.618.201 1.859.237 3.01.117 3.46-.118.676-.444 1.26-.978 1.748-.529.491-1.144.858-1.85 1.094-.702.229-1.439.337-2.208.308-.769-.023-1.425-.227-1.973-.604-1.32-.891-2.481-2.219-3.496-3.99-1.01-1.768-1.784-3.601-2.328-5.5-1.256-4.594-2.708-9.241-4.342-13.955-1.636-4.706-3.477-9.172-5.527-13.393-.252.292-.512.598-.788.911-.269.321-.515.749-.736 1.28-.221.538-.433 1.22-.626 2.05-.198.829-.353 1.879-.469 3.15-.093.994-.082 2.326.04 3.999.114 1.681.305 3.528.569 5.536.263 2.02.573 4.107.921 6.281.35 2.183.692 4.254 1.042 6.222.349 1.968.672 3.739.969 5.309.299 1.562.522 2.767.676 3.604.109.669-.109 1.282-.64 1.85-.537.561-1.217.959-2.037 1.199-.823.242-1.682.283-2.595.132-.91-.156-1.664-.605-2.252-1.341-.901-1.086-1.615-2.354-2.14-3.825-.532-1.464-.946-2.99-1.246-4.582-.304-1.587-.519-3.172-.636-4.76-.121-1.584-.225-3.081-.325-4.489-.102-1.214-.196-2.792-.282-4.735-.081-1.936-.094-3.989-.024-6.151.068-2.158.269-4.31.594-6.458.329-2.152.865-4.067 1.627-5.744.757-1.673 1.798-2.993 3.116-3.948 1.321-.95 2.979-1.317 4.964-1.094 1.285.163 2.512.887 3.693 2.176 1.172 1.297 2.275 2.925 3.29 4.898 1.017 1.976 1.956 4.163 2.82 6.567.862 2.402 1.637 4.765 2.318 7.093.689 2.331 1.272 4.498 1.768 6.502.493 2 .898 3.592 1.221 4.76.132-1 .24-2.35.323-4.052.092-1.703.197-3.592.331-5.675.134-2.084.315-4.247.553-6.491.235-2.245.561-4.421.992-6.527.43-2.102.962-4.04 1.611-5.809.649-1.762 1.446-3.174 2.399-4.225.951-1.049 2.084-1.672 3.396-1.868 1.312-.191 2.854.224 4.611 1.238 1.177.693 2.321 1.979 3.434 3.861 1.108 1.882 2.192 4.058 3.257 6.528 1.062 2.47 2.101 5.087 3.118 7.842 1.012 2.759 2 5.339 2.956 7.74.953 2.406 1.873 4.482 2.738 6.241.875 1.754 1.738 2.874 2.591 3.365 1.293.805 2.458 1.233 3.479 1.292 1.028.057 1.924.024 2.673-.11.755-.13 1.405-.256 1.953-.385.544-.127.981.02 1.312.455.265.347.315.788.139 1.313-.177.53-.528 1.048-1.051 1.56-.528.516-1.221 1-2.079 1.454-.859.458-1.826.765-2.893.925"/><path d="m83.42 67.791c.004.597-.256 1.158-.781 1.671-.525.513-1.14 1.06-1.829 1.639-.697.579-1.4 1.201-2.119 1.877-.715.674-1.269 1.476-1.645 2.392-.579 1.473-.839 3.125-.779 4.955.064 1.83.287 3.536.681 5.125.399 1.586.919 2.922 1.563 3.995.644 1.07 1.247 1.539 1.818 1.405.695-.163 1.354-.665 1.962-1.502.608-.835 1.117-1.746 1.528-2.744.415-.998.715-1.982.896-2.974.185-.99.223-1.721.108-2.207-.111-.476-.291-1.133-.534-1.98-.246-.838-.429-1.684-.562-2.528-.128-.842-.165-1.599-.112-2.256.056-.657.313-1.063.783-1.218.471-.158 1.019-.402 1.661-.74.636-.327 1.278-.503 1.92-.515.64-.013 1.232.296 1.772.935.541.63.975 1.83 1.294 3.597.701 3.576 1.499 6.21 2.405 7.906.907 1.702 2.098 2.542 3.571 2.519.993-.049 1.81-.485 2.422-1.293.616-.813 1.133-1.687 1.564-2.616.429-.934.788-1.762 1.073-2.495.286-.735.576-1.071.873-1 .335.057.572.582.712 1.562.139.982.061 2.139-.224 3.473-.288 1.331-.844 2.736-1.679 4.197-.828 1.465-2.046 2.727-3.641 3.788-.835.569-1.643.942-2.433 1.127-.782.183-1.521.244-2.202.172-.688-.074-1.317-.246-1.889-.525-.57-.281-1.116-.615-1.621-1-1.126-.881-2.143-2.079-3.049-3.57-.191 1.147-.59 2.21-1.188 3.18-.487.855-1.192 1.699-2.102 2.538-.911.832-2.123 1.474-3.633 1.919-1.517.402-3.069.256-4.656-.427-1.596-.687-2.994-1.792-4.199-3.303-1.21-1.517-2.109-3.389-2.701-5.623-.595-2.233-.664-4.72-.198-7.456.326-1.784.922-3.37 1.788-4.776.872-1.401 1.867-2.614 2.985-3.634 1.119-1.025 2.286-1.853 3.498-2.479 1.21-.634 2.323-1.087 3.337-1.371 1.02-.288 1.868-.405 2.545-.359.684.044 1.027.256 1.017.625"/><path d="m129.9 78.18c.866-.615 1.57-.963 2.105-1.042.537-.083.906.006 1.099.257.197.257.231.626.092 1.123-.137.495-.424.996-.858 1.516-.366.404-.801.945-1.312 1.616-.513.671-1.034 1.385-1.577 2.133-.538.748-1.057 1.488-1.557 2.199-.501.717-.93 1.304-1.287 1.753.79 1.98 1.454 4.03 1.995 6.136.54 2.11.887 4.173 1.036 6.186.153 2.02.068 3.925-.243 5.731-.32 1.8-.942 3.365-1.878 4.686-1.312 1.874-2.79 3.122-4.442 3.743-1.654.617-3.228.682-4.727.21-1.495-.483-2.805-1.453-3.929-2.916-1.129-1.466-1.799-3.349-2.02-5.649-.183-2.351.057-4.528.717-6.528.659-1.999 1.443-3.729 2.346-5.18 1.069-1.729 2.292-3.279 3.676-4.668-.125-.336-.325-.794-.603-1.379-.21-.501-.52-1.132-.925-1.891-.412-.758-.935-1.725-1.583-2.915-.391-.688-.831-1.337-1.317-1.939-.494-.594-.94-1.1-1.36-1.508-.524-.482-1.016-.894-1.465-1.246-.516.946-1.071 1.82-1.676 2.605-.487.669-1.051 1.292-1.693 1.878-.649.592-1.301.963-1.956 1.118-.697.163-1.573-.021-2.617-.56-1.052-.54-2.059-1.337-3.02-2.402-.961-1.065-1.811-2.339-2.557-3.827-.736-1.485-1.173-3.086-1.3-4.809-.082-1.735-.001-3.162.245-4.275.242-1.118.581-2.039 1.01-2.76.428-.725.942-1.292 1.54-1.709.592-.414 1.2-.768 1.82-1.049.927-.405 2.103-.54 3.535-.418 1.437.127 2.836.39 4.193.785 1.36.392 2.555.851 3.574 1.372 1.021.524 1.558.983 1.599 1.386.055.406-.386.658-1.303.756-.922.103-1.979.201-3.181.298-1.199.101-2.353.276-3.47.538-1.112.261-1.809.792-2.081 1.59-.275.804-.428 1.717-.467 2.741-.038 1.022.025 2.02.189 2.999.154.977.422 1.848.79 2.613.359.77.826 1.295 1.4 1.571.315.164.658-.004 1.025-.482.376-.479.798-1.062 1.281-1.751.486-.688 1.043-1.374 1.665-2.051.625-.674 1.351-1.168 2.18-1.481.827-.305 1.761-.294 2.805.035 1.044.335 2.232 1.17 3.562 2.521.779.783 1.631 1.7 2.55 2.752.916 1.057 1.874 2.641 2.88 4.753.969-.964 1.884-1.884 2.743-2.751.854-.87 1.771-1.677 2.75-2.414m-7.859 27.22c.087-.811.029-1.799-.175-2.969-.211-1.172-.438-2.329-.706-3.464-.357-1.3-.745-2.663-1.17-4.083-.731 1-1.344 2.02-1.84 3.06-.44.885-.767 1.883-.991 3-.224 1.106-.158 2.224.195 3.336.343 1.073.77 1.816 1.284 2.228.508.406 1 .593 1.473.549.478-.038.895-.232 1.255-.568.356-.336.579-.7.675-1.089"/><path d="m124.63 69.26c-.116-1.083-.173-2.124-.186-3.14-.005-1.01.062-1.968.192-2.875.131-.909.329-1.705.58-2.382.257-.686.587-1.211 1.01-1.589.429-.331.998-.703 1.71-1.125.703-.419 1.402-.677 2.098-.766.695-.095 1.274.089 1.759.554.478.463.677 1.416.601 2.866-.004.787.066 1.749.191 2.887.132 1.147.337 2.369.623 3.66.276 1.299.611 2.575 1 3.844.388 1.272.832 2.425 1.328 3.458.494 1.04 1.041 1.891 1.637 2.556.594.668 1.224 1.039 1.89 1.109 1.364.142 2.447-.153 3.24-.895.793-.742 1.459-1.747 1.991-3.03.188-.547.47-1.045.829-1.471.358-.433.684-.658.983-.683.286-.021.502.229.626.754.121.523.043 1.463-.242 2.821-.311 1.413-.826 2.705-1.544 3.886-.71 1.182-1.581 2.184-2.611 2.997-1.034.819-2.192 1.426-3.481 1.822-1.292.39-2.651.505-4.072.334-1.408-.136-2.631-.507-3.645-1.119-1.021-.607-1.92-1.54-2.692-2.787-.786-1.249-1.473-2.824-2.081-4.733-.608-1.91-1.193-4.229-1.736-6.956m-2.538-24.09c.257-1.073.846-1.838 1.78-2.29.933-.444 1.896-.647 2.899-.608 1 .044 1.914.299 2.741.776.826.478 1.266 1.144 1.328 2 .064 1.048-.293 2.035-1.059 2.979-.772.941-2.115 1.545-4.04 1.811-.529.083-1.049-.008-1.548-.258-.495-.251-.935-.596-1.315-1.042-.38-.443-.648-.96-.816-1.57-.168-.603-.157-1.208.027-1.802"/><path d="m157.72 53.55c-.078.254-.486.402-1.206.456-.729.059-1.538.228-2.438.507-.901.275-1.76.778-2.561 1.496-.795.722-1.315 1.842-1.558 3.372-.197 1.524-.208 3.095-.038 4.708.173 1.622.523 3.118 1.054 4.496.53 1.369 1.191 2.519 1.986 3.438.787.917 1.691 1.47 2.697 1.647 1.438.215 2.658.117 3.663-.307 1.012-.421 1.879-.932 2.613-1.542.731-.611 1.338-1.227 1.817-1.845.477-.618.87-1.033 1.189-1.248.767-.459 1.218-.226 1.338.685.121.922-.219 2.213-1.026 3.877-.427.929-1.016 1.863-1.767 2.795-.746.936-1.638 1.759-2.668 2.461-1.042.703-2.217 1.234-3.538 1.586-1.32.359-2.789.428-4.411.209-1.524-.196-2.986-.758-4.397-1.665-1.414-.913-2.663-2.059-3.747-3.443-1.083-1.383-1.981-2.934-2.684-4.66-.702-1.722-1.1-3.521-1.193-5.391-.093-1.866.155-3.762.743-5.67.59-1.912 1.604-3.731 3.046-5.448 1.384-1.57 2.865-2.563 4.45-2.98 1.585-.419 3.034-.526 4.348-.333 1.312.205 2.389.608 3.222 1.217.835.611 1.193 1.14 1.066 1.582"/><path d="m36.28 121.48c-.499.214-1.176.473-2.024.789-.85.317-1.733.799-2.67 1.455-.929.655-1.848 1.527-2.772 2.621-.918 1.088-1.729 2.501-2.43 4.233-.958 2.39-.951 4.139.021 5.252.978 1.103 3.075 1.953 6.296 2.53 1.631.266 3.32.435 5.062.509 1.749.069 3.423.346 5.04.822 1.605.476 3.107 1.299 4.481 2.476 1.386 1.171 2.543 2.962 3.477 5.372.707 1.857.753 3.573.131 5.151-.62 1.576-1.609 2.999-2.974 4.264-1.356 1.259-2.948 2.325-4.748 3.18-1.804.863-3.511 1.485-5.133 1.866-3.303.819-6.226 1.052-8.749.703-2.525-.354-4.598-.938-6.218-1.758-1.622-.815-2.731-1.725-3.334-2.711-.599-.98-.634-1.731-.104-2.22.345-.313.872-.436 1.602-.374.727.057 1.631.157 2.701.3 1.07.137 2.271.235 3.596.294 1.328.062 2.771-.073 4.334-.392 1.561-.318 3.217-.897 4.989-1.722 1.761-.833 3.598-2.091 5.504-3.782.683-.623 1.01-1.354.974-2.2-.04-.843-.423-1.655-1.157-2.424-.737-.772-1.82-1.407-3.248-1.902-1.431-.492-3.204-.721-5.315-.689-1.834.015-3.648.007-5.435-.037-1.788-.044-3.445-.299-4.983-.767-1.538-.471-2.888-1.214-4.051-2.234-1.163-1.016-2.05-2.464-2.679-4.348-.396-1.29-.352-2.891.121-4.798.474-1.912 1.229-3.859 2.259-5.855 1.028-1.992 2.295-3.915 3.798-5.761 1.5-1.852 3.094-3.343 4.79-4.479 1.688-1.134 3.399-1.767 5.12-1.895 1.722-.124 3.346.51 4.872 1.9 1.01.963 2.041 1.703 3.108 2.209 1.062.515 1.994.929 2.782 1.251.791.326 1.373.644 1.749.972.378.325.402.781.082 1.367-.373.593-.848.899-1.448.923-.589.024-1.283-.035-2.077-.167-.788-.135-1.647-.249-2.571-.329-.911-.085-1.837.048-2.767.405"/><path d="m50.1 108.76c-.05-.815.308-1.355 1.072-1.634.767-.27 1.634-.285 2.607-.057.98.235 1.936.664 2.867 1.3.935.634 1.534 1.428 1.799 2.377.281.994.567 2.01.856 3.051.292 1.036.554 1.964.795 2.789.276.988.538 1.921.791 2.784 1.453-.478 2.753-.83 3.899-1.051 1.017-.194 1.938-.269 2.779-.239.844.034 1.322.336 1.453.905.144.61-.114 1.223-.776 1.841-.66.614-1.434 1.184-2.327 1.719-1.05.62-2.249 1.216-3.583 1.81.769 2.906 1.523 5.73 2.257 8.458.608 2.393 1.21 4.902 1.803 7.526.59 2.631 1.026 4.945 1.318 6.949.245 2.02.241 3.54-.008 4.567-.239 1.026-.622 1.73-1.121 2.13-.506.396-1.083.59-1.735.577-.645-.005-1.254-.058-1.833-.154-.279-.026-.628-.43-1.04-1.21-.415-.779-.841-1.811-1.274-3.085-.445-1.279-.9-2.73-1.371-4.348-.47-1.616-.932-3.275-1.374-4.968-1.075-3.986-2.188-8.474-3.356-13.45-1.121.532-2.182.923-3.183 1.157-.883.208-1.721.254-2.534.141-.804-.104-1.389-.534-1.75-1.277-.271-.584-.127-1.192.44-1.835.559-.638 1.239-1.238 2.032-1.789.913-.63 2.01-1.253 3.291-1.88l-.246-1.05c-.072-.306-.138-.617-.192-.955-.055-.334-.104-.609-.156-.827-.409-1.747-.763-3.161-1.065-4.243-.3-1.081-.537-1.981-.706-2.708-.168-.718-.283-1.312-.348-1.783-.06-.466-.089-.977-.081-1.538"/><path d="m71.998 126.38c-.542-.147-1.017-.2-1.419-.147-.403.043-.77.111-1.101.188-.322.077-.613.109-.874.1-.254-.01-.509-.169-.762-.475-.206-.274-.095-.742.324-1.392.429-.655 1.055-1.263 1.895-1.826.836-.565 1.823-.944 2.98-1.15 1.149-.197 2.346-.007 3.594.578 1.097.568 2.026 1.147 2.784 1.729.76.582 1.38 1.117 1.864 1.601.547.564.978 1.134 1.3 1.703.948-1.467 1.979-2.75 3.107-3.841.971-.964 2.108-1.834 3.403-2.596 1.294-.767 2.685-1.111 4.175-1.044.383.046.613.278.683.7.076.421.005.913-.208 1.466-.218.561-.555 1.121-1.021 1.691-.467.57-1.077 1.036-1.815 1.399-1.45.702-2.51 1.649-3.174 2.814-.672 1.171-1.101 2.456-1.271 3.859-.183 1.4-.168 2.846.045 4.343.213 1.49.48 2.919.798 4.268.706 2.836.812 5.04.304 6.605-.513 1.572-1.451 2.563-2.829 2.979-1.597.465-2.978.004-4.129-1.387-1.155-1.383-2.169-3.956-3.051-7.719-.518-2.362-.975-4.425-1.385-6.172s-.814-3.208-1.23-4.376c-.411-1.17-.854-2.071-1.326-2.697-.465-.626-1.024-1.026-1.661-1.201"/><path d="m113.05 114.54c.002.604-.258 1.159-.784 1.67-.521.517-1.132 1.062-1.827 1.636-.695.581-1.399 1.208-2.119 1.885-.715.674-1.269 1.472-1.649 2.394-.572 1.471-.837 3.119-.778 4.952.063 1.824.293 3.536.687 5.127.4 1.59.915 2.921 1.563 3.992.64 1.071 1.245 1.535 1.812 1.402.702-.165 1.353-.659 1.968-1.498.606-.835 1.112-1.746 1.533-2.743.405-.994.705-1.987.886-2.975.188-.989.225-1.721.108-2.197-.108-.484-.287-1.146-.534-1.989-.243-.839-.428-1.689-.562-2.528-.128-.85-.156-1.601-.108-2.258.052-.658.31-1.067.782-1.224.471-.154 1.021-.396 1.662-.731.634-.328 1.272-.507 1.915-.515.645-.012 1.234.294 1.773.929.545.63.97 1.833 1.301 3.604.696 3.567 1.499 6.2 2.404 7.901.9 1.703 2.087 2.542 3.563 2.517.996-.051 1.811-.48 2.423-1.294.623-.813 1.136-1.687 1.569-2.614.424-.926.783-1.759 1.072-2.497.283-.736.577-1.071.873-.999.331.058.574.58.714 1.562.131.983.057 2.139-.222 3.472-.292 1.332-.85 2.732-1.681 4.194-.835 1.462-2.049 2.728-3.642 3.793-.835.563-1.647.941-2.432 1.126-.788.183-1.526.242-2.209.169-.681-.065-1.312-.245-1.883-.527-.572-.278-1.114-.61-1.622-1-1.125-.883-2.141-2.073-3.044-3.566-.197 1.147-.592 2.213-1.193 3.178-.495.855-1.192 1.7-2.104 2.532-.91.837-2.119 1.484-3.626 1.925-1.521.403-3.071.265-4.665-.427-1.591-.691-2.989-1.789-4.198-3.301-1.208-1.519-2.104-3.389-2.699-5.626-.59-2.237-.658-4.718-.199-7.451.323-1.783.919-3.378 1.788-4.777.871-1.401 1.864-2.616 2.984-3.64 1.124-1.02 2.285-1.848 3.502-2.479 1.211-.631 2.318-1.087 3.339-1.368 1.014-.286 1.862-.405 2.547-.36.676.047 1.016.257 1.012.627"/><path d="m129.8 111.99c.818-.649 1.643-1.07 2.473-1.265.83-.195 1.588-.217 2.27-.051.685.161 1.263.479 1.74.942.479.463.771 1 .864 1.627.316 2.924.958 5.55 1.919 7.879.967 2.334 1.971 4.264 3.02 5.791 1.047 1.527 2.024 2.604 2.934 3.221.906.619 1.435.656 1.579.111.152-.543.22-1.627.207-3.262-.018-1.633.029-3.456.131-5.461.108-2 .362-4.01.766-6.02.41-2.01 1.127-3.659 2.161-4.962 1.026-1.302 1.994-2.106 2.891-2.409.896-.302 1.726-.29 2.499.036.764.327 1.485.886 2.152 1.673.667.786 1.307 1.599 1.913 2.424.617.866 1.275 2.02 1.953 3.445.682 1.432 1.366 2.783 2.055 4.045.687 1.271 1.334 2.263 1.938 2.972.606.712 1.165.774 1.678.194.317-.396.584-1.13.793-2.19.212-1.065.417-2.3.618-3.71.199-1.407.431-2.876.694-4.413.258-1.537.605-2.977 1.023-4.322.425-1.342.976-2.489 1.651-3.425.675-.943 1.55-1.517 2.61-1.718 1.145-.22 2.273-.175 3.384.137 1.11.316 2.108.758 3 1.308.891.55 1.615 1.148 2.186 1.8.57.652.905 1.217 1.02 1.697.111.478-.068.786-.545.924-.476.134-1.305-.056-2.479-.56-1.227-.497-2.331.005-3.314 1.501-.986 1.501-1.462 3.884-1.437 7.146.009 1.614-.053 3.066-.185 4.365-.137 1.298-.396 2.441-.783 3.438-.393.983-.963 1.845-1.714 2.57-.752.732-1.748 1.312-2.976 1.739-1.154.402-2.304.413-3.455.017-1.156-.398-2.259-1.016-3.305-1.854-1.057-.839-1.995-1.804-2.825-2.9-.834-1.093-1.457-2.145-1.881-3.151-.449-.948-.808-1.619-1.054-2-.248-.375-.44-.485-.558-.318-.129.167-.224.584-.3 1.248-.073.661-.189 1.541-.345 2.639-.119 1.083-.235 2.171-.341 3.255-.113 1.089-.359 2.125-.726 3.111-.367.987-.922 1.926-1.656 2.813-.735.885-1.812 1.655-3.229 2.31-1.369.641-2.74.951-4.1.921-1.371-.021-2.67-.26-3.901-.707-1.235-.442-2.374-1.021-3.41-1.722-1.048-.701-1.931-1.43-2.654-2.175-.487-.49-1.073-1.213-1.759-2.183-.691-.965-1.379-2.072-2.09-3.314-.705-1.242-1.368-2.538-1.984-3.886-.618-1.357-1.103-2.647-1.464-3.875-.355-1.23-.526-2.334-.498-3.311.026-.969.312-1.684.846-2.134"/></g></svg>