<?xml version="1.0" encoding="utf-8"?>
<!-- Generator: Adobe Illustrator 16.0.0, SVG Export Plug-In . SVG Version: 6.00 Build 0)  -->
<!DOCTYPE svg PUBLIC "-//W3C//DTD SVG 1.1//EN" "http://www.w3.org/Graphics/SVG/1.1/DTD/svg11.dtd">
<svg version="1.1" id="Layer_1" xmlns="http://www.w3.org/2000/svg" xmlns:xlink="http://www.w3.org/1999/xlink" x="0px" y="0px"
	 width="900px" height="600px" viewBox="0 0 900 600" enable-background="new 0 0 900 600" xml:space="preserve">
<g>
	<path fill-rule="evenodd" clip-rule="evenodd" fill="#FBCFAC" d="M63.667,207.368c-5.66-6.316-35.783-20.481-34.348-30.264
		c0.766-5.281,7.227-2.628,9.397,0.47c0.606-4.772-2.312-8.003-3.685-12.116c0.144-0.145,0.282-0.29,0.422-0.438
		c0.882,0.335,7.015,5.417,7.112,5.396c6.186-1.268-0.315-5.042,0.56-7.003c1.27-2.842-1.879-5.668,4.691-3.505
		c2.052,0.677,4.644,4.901,5.633,6.703c3.919-1.12,4.538-5.245,3.003-9.039c6-0.458,7.171,9.375,10.22,13.901
		c5.419,8.043,6.26,4.75,15.784,4.475c2.499,7.95-12.473,10.894-6.73,21.37c-2.668,4.878-7.743,8.236-12.488,10.051"/>
	<path fill-rule="evenodd" clip-rule="evenodd" fill="#E7F5FA" d="M355.055,548.739c238.893,45.612,476.92,5.46,531.647-89.685
		c54.744-95.145-94.546-209.246-333.435-254.86c-238.887-45.603-476.921-5.453-531.651,89.685
		C-33.116,389.03,116.167,503.122,355.055,548.739"/>
	<path fill-rule="evenodd" clip-rule="evenodd" fill="#C9DAEE" d="M365.876,535.237c170.629,32.584,340.651,3.896,379.744-64.062
		c39.102-67.964-67.53-149.463-238.171-182.043c-170.63-32.58-340.652-3.898-379.749,64.059
		C88.602,421.155,195.243,502.657,365.876,535.237"/>
	<path fill-rule="evenodd" clip-rule="evenodd" fill="#69A3D7" d="M373.726,510.989c113.975,21.77,227.55,2.612,253.659-42.787
		c26.12-45.392-45.103-99.843-159.094-121.6c-113.979-21.76-227.553-2.6-253.664,42.798
		C188.511,434.786,259.74,489.238,373.726,510.989"/>
	<path fill-rule="evenodd" clip-rule="evenodd" fill="#FFFFFF" d="M247.375,97.736c-0.069,5.566-0.043,11.042,0.05,16.637
		c3.067,1.194,6.161,1.828,9.264,2.052c-1.507-4.958-3.418-9.925-5.836-15.095C249.532,100.374,248.362,99.186,247.375,97.736"/>
	<path fill-rule="evenodd" clip-rule="evenodd" fill="#FDD0AD" d="M216.498,212.105c0,0,4.882,12.226-1.558,21.447
		c-6.437,9.221-27.043,10.869-30.032-8.946C181.924,204.8,216.498,212.105,216.498,212.105"/>
	<path fill-rule="evenodd" clip-rule="evenodd" d="M199.138,240.748c6.364,0.695,13.097-2.1,16.365-6.786
		c6.58-9.425,1.839-21.604,1.632-22.114l-0.14-0.352l-0.362-0.08c-0.098-0.012-2.531-0.529-6.068-0.916
		c-8.12-0.887-18.837-0.817-23.843,4.52c-2.261,2.416-3.097,5.679-2.493,9.697C185.634,234.02,191.068,239.864,199.138,240.748
		 M215.984,212.728c0.711,2.027,3.94,12.48-1.603,20.418c-2.997,4.298-9.202,6.84-15.1,6.196
		c-7.403-0.808-12.392-6.215-13.687-14.844c-0.535-3.559,0.184-6.424,2.127-8.505c4.857-5.186,16.306-4.788,22.693-4.093
		C213.1,212.197,215.178,212.567,215.984,212.728"/>
	<path fill-rule="evenodd" clip-rule="evenodd" fill="#FDD0AD" d="M259.045,139.726c0,0,8.286-26.021-12.047-47.376l10.774,6.488
		c0,0-10.526-28.785-63.055-34.52c-34.113-3.725-52.45,16.603-52.45,16.603l1.055-10.048l-6.205,6.178c0,0-8.915-3.341-17.735,3.496
		c0,0,7.581,0.589,7.082,3.133c0,0-31.375,7.684-38.339,49.918l4.904-0.412c0,0-10.21,20.145-1.783,41.376l2.913-1.332
		c0,0,6.211,40.124,66.988,52.196c0,0,16.091,5.643,38.461,4.197c24.497-1.582,45.592-17.469,56.034-37.586
		C266.088,171.91,259.045,139.726,259.045,139.726"/>
	<path fill-rule="evenodd" clip-rule="evenodd" d="M179.625,229.874c6.65,0.733,13.388,0.884,20.029,0.452
		c23.185-1.495,45.407-16.392,56.595-37.96c10.037-19.33,4.059-49.948,3.512-52.601c0.651-2.292,6.509-24.78-9.312-44.513
		l8.659,5.205l-0.687-1.86c-0.101-0.293-11.275-29.27-63.637-34.983c-28.81-3.14-46.692,10.937-51.627,15.46l1.059-10.069
		l-7.283,7.249c-0.554-0.173-1.629-0.448-3.065-0.605c-3.722-0.406-9.32,0.02-14.896,4.34l-1.455,1.117l2.281,0.188
		c3.008,0.331,5.319,1.05,5.893,1.841l0.017,0.029c-4.419,1.367-31.83,11.347-38.26,50.312l-0.154,0.894l4.61-0.381
		c-1.977,4.573-8.619,22.399-1.303,40.848l0.265,0.676l2.796-1.285c1.404,6.037,11.837,40.873,67.364,51.896
		C161.002,226.123,168.28,228.646,179.625,229.874 M247.342,91.751l-0.842,1.091c19.788,20.783,11.965,46.413,11.89,46.669
		l-0.062,0.18l0.035,0.188c0.072,0.323,6.874,32.167-3.332,51.83c-10.973,21.144-32.747,35.748-55.467,37.204
		c-6.559,0.43-13.22,0.281-19.793-0.438c-11.175-1.22-18.321-3.693-18.39-3.712c-59.708-11.865-66.487-51.248-66.536-51.641
		l-0.152-0.906l-3.078,1.402c-7.718-20.424,1.929-39.913,2.026-40.111l0.573-1.137l-5.26,0.452
		c7.103-40.482,37.372-48.376,37.672-48.456l0.423-0.115l0.093-0.442c0.104-0.524-0.015-1.05-0.338-1.508
		c-0.922-1.276-3.498-1.914-5.542-2.236c4.716-3.063,9.307-3.358,12.457-3.016c1.93,0.205,3.149,0.653,3.16,0.656l0.402,0.157
		l5.146-5.115l-1.065,10.213l1.416-1.561c0.177-0.199,18.521-20.023,51.857-16.385c43.329,4.727,57.9,25.401,61.506,32.017
		L247.342,91.751z"/>
	<path fill-rule="evenodd" clip-rule="evenodd" fill="#B14025" d="M88.125,133.597c6.964-42.234,38.341-49.918,38.341-49.918
		c0.498-2.544-7.083-3.13-7.083-3.13c8.817-6.836,17.736-3.499,17.736-3.499l6.203-6.178l-1.058,10.048
		c0,0,18.342-20.328,52.45-16.603c52.532,5.735,63.06,34.52,63.06,34.52l-10.776-6.488c20.334,21.355,12.047,47.376,12.047,47.376
		s-13.032-54.572-65.698-51.349c0,0,21.113,10.575,16.86,29.008c0,0-8.729-11.586-11.412-14.71c0,0,0.588,34.084-17.031,38.779
		c0,0-3.395-14.073-3.585-23.311c0,0-23.13,35.342-24.205,45.624c0,0-16.773-21.682-22.212,2.063
		c-4.703,20.507,15.319,17.269,15.319,17.269s10.158,31.027,14.066,42.325c-60.777-12.072-66.985-52.196-66.985-52.196l-2.919,1.332
		c-8.425-21.229,1.786-41.376,1.786-41.376L88.125,133.597z"/>
	<path fill-rule="evenodd" clip-rule="evenodd" d="M162.207,226.347l-0.4-1.152c-3.815-11.01-13.661-41.488-13.618-41.807
		l0.118-0.928l-0.908,0.154c-0.022,0.003-2.279,0.344-5.028,0.044c-2.677-0.284-6.315-1.271-8.416-4.289
		c-1.94-2.792-2.317-6.888-1.104-12.172c1.707-7.446,4.669-10.989,8.826-10.535c5.841,0.634,12.111,8.671,12.173,8.75l1.052,1.352
		l0.177-1.716c0.467-13.319,19.944-36.658,22.7-41.459c0.841,8.705,3.281,18.91,3.311,19.021l0.172,0.701l0.673-0.186
		c15.69-4.161,17.374-30.119,17.539-37.538c3.415,4.247,10.11,13.129,10.195,13.228l0.882,1.175l0.338-1.447
		c3.494-15.17-9.792-25.221-15.127-28.56c3.118-0.101,6.17,0.023,9.107,0.34c42.054,4.586,53.4,50.113,53.501,50.562l0.581,2.423
		l0.748-2.366c0.078-0.249,7.35-23.982-9.25-44.691l8.659,5.205l-0.687-1.86c-0.101-0.293-11.275-29.27-63.637-34.983
		c-28.81-3.14-46.692,10.937-51.627,15.46l1.057-10.069l-7.281,7.246c-0.554-0.169-1.629-0.444-3.065-0.602
		c-3.724-0.406-9.321,0.02-14.896,4.34l-1.456,1.117l2.286,0.188c3.005,0.331,5.316,1.05,5.89,1.841l0.016,0.029
		c-4.417,1.367-31.828,11.347-38.258,50.309l-0.154,0.897l4.608-0.381c-1.978,4.573-8.617,22.399-1.302,40.848l0.265,0.676
		l2.796-1.285c1.404,6.037,11.835,40.873,67.364,51.896L162.207,226.347z M146.711,184.102c-0.609,5.12,10.394,29.337,13.435,40.396
		c-58.566-12.105-65.249-50.979-65.303-51.375l-0.15-0.906l-3.078,1.402c-7.718-20.424,1.927-39.913,2.026-40.108l0.573-1.14
		l-5.26,0.452c7.115-40.512,37.371-48.379,37.672-48.456l0.423-0.115l0.092-0.442c0.106-0.524-0.013-1.05-0.338-1.508
		c-0.92-1.276-3.496-1.914-5.542-2.236c4.716-3.063,9.309-3.358,12.459-3.016c1.93,0.205,3.149,0.653,3.16,0.656l0.402,0.157
		l5.145-5.115l-1.064,10.213l1.415-1.561c0.178-0.199,18.525-20.028,51.859-16.385c43.328,4.727,57.903,25.401,61.506,32.017
		l-8.8-5.281l-0.844,1.091c16.225,17.037,13.904,37.281,12.485,44.211c-3.101-9.797-16.795-45.076-53.971-49.133
		c-3.753-0.411-7.695-0.491-11.71-0.241l-2.603,0.156l2.341,1.178c0.195,0.106,19.429,9.954,16.792,26.713
		c-2.327-3.073-8.348-10.981-10.523-13.514l-1.242-1.453l0.04,1.931c0,0.333,0.369,32.689-15.837,37.876
		c-0.685-2.967-3.236-14.559-3.396-22.437l-1.36-0.163c-0.351,1.356-21.936,32.609-23.605,44.329
		c-1.061-1.206-2.85-3.094-5.009-4.749c-2.116-1.623-4.596-3.025-7.076-3.284c-4.955-0.544-8.426,3.361-10.321,11.612
		c-1.297,5.698-0.858,10.169,1.329,13.306c1.901,2.728,5.148,4.417,9.398,4.881C144.109,184.274,145.745,184.19,146.711,184.102"/>
	<path fill-rule="evenodd" clip-rule="evenodd" d="M194.029,150.746c0.682,3.338-0.125,6.338-1.782,6.7
		c-1.658,0.354-3.556-2.062-4.238-5.395c-0.672-3.344,0.127-6.337,1.786-6.689C191.456,144.995,193.356,147.411,194.029,150.746"/>
	<path fill-rule="evenodd" clip-rule="evenodd" d="M207.777,145.411c1.079,3.229,0.667,6.34-0.924,6.958
		c-1.596,0.624-3.76-1.475-4.848-4.691c-1.08-3.205-0.668-6.321,0.925-6.953C204.522,140.101,206.695,142.21,207.777,145.411"/>
	<path fill-rule="evenodd" clip-rule="evenodd" d="M180.221,229.391c45.614,4.977,66.812-24.521,66.812-24.521
		c-1.195,1.569-4.328,4.8-8.914,7.964c-10.964,9.317-24.581,15.187-38.554,16.076c-6.559,0.433-13.22,0.285-19.793-0.435
		c-9.858-1.072-16.576-3.114-18.078-3.607c0.038,0.11,0.072,0.224,0.113,0.326l0.21,0.602
		C168.465,227.612,174.535,228.768,180.221,229.391"/>
	<path fill-rule="evenodd" clip-rule="evenodd" fill="#FBDFC1" d="M663.781,152.818c-8.811,42.069-48.282,69.129-88.119,60.435
		c-39.852-8.699-65-49.87-56.186-91.934c8.828-42.076,48.276-69.142,88.129-60.445C647.455,69.576,672.606,110.734,663.781,152.818"
		/>
	<path fill-rule="evenodd" clip-rule="evenodd" d="M589.131,216.837c-3.926-0.19-7.877-0.713-11.746-1.557
		c-40.15-8.767-65.59-50.386-56.707-92.767c7.974-38.005,40.435-64.311,77.191-62.525c3.928,0.179,7.877,0.711,11.747,1.553
		c19.46,4.247,36.063,16.243,46.781,33.767c10.703,17.515,14.227,38.476,9.923,59.002
		C658.362,192.32,625.888,218.621,589.131,216.837 M597.805,61.373c-36.08-1.741-67.958,24.089-75.792,61.438
		c-8.722,41.625,16.24,82.498,55.654,91.114c3.803,0.824,7.678,1.335,11.527,1.524c36.09,1.747,67.972-24.094,75.791-61.438
		c4.234-20.168,0.771-40.758-9.747-57.964c-10.511-17.214-26.815-28.977-45.904-33.145
		C605.538,62.077,601.662,61.562,597.805,61.373"/>
	<path fill-rule="evenodd" clip-rule="evenodd" fill="#F9C492" d="M589.194,215.45c-3.85-0.189-7.725-0.701-11.527-1.524
		c-2.057-0.452-4.062-0.986-6.037-1.617c3.137,0.479,6.164,0.773,9.122,0.919c32.262,1.565,53.875-16.105,69.315-47.981
		c4.347-8.962,6.829-20.012,8.142-31.486c2.859,2.401,5.706,5.038,8.385,7.902c-0.227,4.187-0.771,8.345-1.608,12.349h0.006
		c-0.01,0.042-0.02,0.073-0.036,0.116c0.01,0.003,0,0.006,0,0.022c0,0.019-0.006,0.047-0.012,0.08
		c-0.007,0.013-0.007,0.022-0.007,0.042c-0.007,0.015-0.013,0.038-0.019,0.063c0,0.016-0.008,0.032-0.008,0.048
		c-0.006,0.015-0.012,0.035-0.018,0.054c0,0.023-0.008,0.052-0.011,0.071c0,0.009,0,0.012-0.006,0.022
		c-1.848,8.531-5.003,16.614-9.395,24.026l0.038,0.047C641.687,202.132,616.661,216.773,589.194,215.45"/>
	<path fill-rule="evenodd" clip-rule="evenodd" d="M577.875,149.665c-0.739,3.546-3.174,6.014-5.442,5.518
		c-2.263-0.489-3.498-3.761-2.752-7.295c0.738-3.542,3.175-6.006,5.433-5.51C577.391,142.87,578.619,146.135,577.875,149.665"/>
	<path fill-rule="evenodd" clip-rule="evenodd" d="M593.49,151.416c-0.742,3.543-3.182,6.008-5.446,5.508
		c-2.262-0.487-3.49-3.757-2.757-7.297c0.753-3.541,3.182-6.007,5.445-5.508C592.998,144.604,594.227,147.881,593.49,151.416"/>
	<path fill-rule="evenodd" clip-rule="evenodd" fill="#5F3812" d="M692.098,152.933c1.869-25.309-4.083-44.35-4.083-44.35
		l6.306-5.508c-17.887-39.033-44.075-36.786-44.075-36.786l7.717-7.365c-9.221-0.208-14.864,5.442-14.864,5.442
		c2.219-5.669-0.38-17.825-0.38-17.825l-4.699,10.927C617.041,11.96,561.86,31.421,561.86,31.421l6.892,4.769
		c-45.646,4.208-71.34,48.337-74.611,54.288l7.076,10.408c4.804-9.819,10.176-14.688,10.176-14.688
		c-3.835,7.374-6.815,20.487-6.815,20.487l7.395,14.896c0.778-3.7,6.084-10.511,6.084-10.511
		c-3.602,13.366-2.567,24.406,1.703,33.499c-0.438-7.16,0.038-14.518,1.589-21.909c0.744-3.552,1.727-6.971,2.88-10.293
		c11.263-2.701,47.259-9.666,88.812-0.595c0,0-3.904,4.461-7.31,5.399c0.006,0,7.192,2.776,21.028-2.164
		c0,0-1.658,6.885-0.349,11.517c1.309,4.622,8.292-9.055,8.292-9.055s18.571,8.833,32.597,23.925
		c-0.214,4.231-0.748,8.492-1.639,12.771c-1.895,9.01-5.198,17.322-9.596,24.75l0.064-0.038
		c16.173-9.51,17.837-22.908,17.837-22.908l0.1,9.321c4.116-4.894,5.72-15.78,5.72-15.78l1.206,8.959L692.098,152.933z"/>
	<path fill-rule="evenodd" clip-rule="evenodd" d="M656.468,179.479l-0.989-0.923c4.478-7.567,7.676-15.822,9.503-24.544
		c0.838-4.003,1.389-8.159,1.612-12.349c-12.352-13.212-28.356-21.64-31.593-23.275c-1.546,2.962-5.435,9.906-7.773,9.788
		c-0.396-0.023-1.134-0.237-1.478-1.463c-1.021-3.604-0.336-8.417,0.094-10.652c-7.077,2.378-12.342,2.714-15.56,2.557
		c-3.111-0.157-4.721-0.762-4.795-0.784l-1.961-0.762l2.024-0.563c2.264-0.628,4.843-3.001,6.133-4.318
		c-10.091-2.133-20.602-3.476-31.27-3.991c-26.49-1.28-47.508,2.83-55.666,4.754c-1.135,3.299-2.053,6.605-2.737,9.858
		c-1.492,7.122-2.023,14.428-1.572,21.729l-1.297,0.339c-4.183-8.917-5.044-19.197-2.572-30.588
		c-1.549,2.259-3.499,5.38-3.924,7.439l-0.404,1.923l-8.393-16.88l0.058-0.243c0.104-0.442,2.165-9.398,5.062-16.64
		c-1.955,2.412-4.632,6.181-7.135,11.308l-0.515,1.05l-7.987-11.725l0.211-0.384c2.786-5.06,28.238-49.156,73.271-54.447
		l-6.469-4.472l1.289-0.451c0.143-0.051,14.033-4.875,30.347-4.087c14.92,0.72,34.865,6.396,46.018,29.127l4.942-11.513l0.447,2.094
		c0.093,0.46,2.081,9.906,0.935,16.08c2.375-1.726,7.124-4.391,13.651-4.244l1.674,0.041l-7.678,7.32l0.072,0.01
		c6.199,0.305,27.625,3.869,42.894,37.183l0.22,0.483l-6.355,5.554c0.864,3.034,5.678,21.137,3.972,44.169l-0.022,0.395
		l-12.317,6.142l-0.776-5.825c-0.868,3.671-2.469,8.955-5.066,12.051l-1.185,1.408l-0.076-6.418
		C671.457,165.585,666.97,173.311,656.468,179.479 M634.402,116.553l0.592,0.282c0.182,0.092,18.85,9.068,32.795,24.089l0.208,0.215
		l-0.02,0.3c-0.224,4.359-0.781,8.692-1.657,12.873c-1.675,7.957-4.464,15.537-8.311,22.579
		c13.604-9.069,15.255-20.873,15.277-21.004l1.357,0.081l0.084,7.195c3.08-5.146,4.355-13.654,4.375-13.753l1.349,0.006l1.077,8.009
		l9.911-4.942c1.749-24.675-4.009-43.501-4.072-43.693l-0.135-0.436l6.241-5.463c-17.592-37.918-43.133-35.908-43.174-35.898
		l-1.957,0.156l7.846-7.493c-7.787,0.48-12.566,5.163-12.608,5.211l-1.112-0.756c1.554-3.984,0.604-11.503-0.014-15.222
		l-4.411,10.261l-0.634-1.392c-10.723-23.237-30.652-28.969-45.494-29.689c-13.146-0.631-24.684,2.432-28.5,3.591l7.299,5.05
		l-1.905,0.177c-44.534,4.109-70.17,46.979-73.87,53.561l6.192,9.087c4.659-9.129,9.596-13.655,9.8-13.85l1.06,0.845
		c-3.463,6.661-6.264,18.237-6.689,20.071l6.541,13.168c1.567-3.821,5.49-8.879,5.683-9.112l1.197,0.611
		c-2.949,10.914-2.875,20.817,0.208,29.498c-0.095-6.13,0.495-12.252,1.75-18.251c0.72-3.421,1.696-6.91,2.903-10.376l0.128-0.362
		l0.36-0.09c7.949-1.897,29.345-6.18,56.41-4.874c11.165,0.532,22.165,1.975,32.698,4.279l1.152,0.249l-0.78,0.894
		c-0.138,0.16-2.753,3.117-5.634,4.748c0.653,0.102,1.46,0.204,2.427,0.246c3.271,0.153,8.737-0.211,16.199-2.877l1.18-0.422
		l-0.301,1.251c-0.013,0.067-1.612,6.753-0.355,11.151c0.1,0.381,0.215,0.451,0.215,0.451c1.113,0.055,4.423-4.941,6.823-9.631
		L634.402,116.553z"/>
	<path fill-rule="evenodd" clip-rule="evenodd" fill="#45250D" d="M658.01,176.891c3.847-7.042,6.636-14.622,8.311-22.582
		c0.88-4.178,1.434-8.511,1.657-12.87l0.02-0.3l-0.208-0.215c-2.986-3.227-6.213-6.178-9.41-8.822
		c2.721-26.291-0.55-54.38-1.966-64.513c8.655,1.831,24.798,8.851,37.062,35.3l-6.241,5.463l0.135,0.436
		c0.063,0.188,5.821,19.019,4.075,43.693l-9.911,4.942l-1.08-8.009l-1.349-0.006c-0.016,0.099-1.295,8.607-4.379,13.75l-0.077-7.192
		l-1.357-0.081C673.271,156.011,671.613,167.822,658.01,176.891"/>
	<path fill-rule="evenodd" clip-rule="evenodd" d="M656.064,178.916c4.397-7.428,7.701-15.741,9.591-24.75
		c0.896-4.283,1.426-8.54,1.641-12.771c-2.884-3.088-5.944-5.915-9.002-8.452c0.03-0.283,0.055-0.554,0.088-0.839
		c3.197,2.644,6.421,5.595,9.409,8.822l0.206,0.215l-0.02,0.3c-0.224,4.363-0.777,8.692-1.657,12.87
		c-1.671,7.96-4.464,15.54-8.311,22.582c13.604-9.069,15.255-20.873,15.28-21.004l1.357,0.081l0.081,7.195
		c3.08-5.146,4.355-13.654,4.375-13.753l1.349,0.006l1.08,8.009l9.905-4.942c1.755-24.675-4.009-43.505-4.065-43.693l-0.139-0.436
		l6.241-5.463c-12.264-26.447-28.403-33.47-37.062-35.3c-0.031-0.249-0.067-0.506-0.105-0.739
		c8.809,1.772,25.451,8.817,38.007,36.225l-6.294,5.508c0,0,5.949,19.038,4.077,44.35l-11.106,5.537l-1.209-8.959
		c0,0-1.601,10.886-5.717,15.78l-0.104-9.321c0,0-1.663,13.398-17.833,22.908L656.064,178.916z"/>
	<path fill-rule="evenodd" clip-rule="evenodd" d="M84.236,179.166 M186.069,230.665c-7.493,5.333,0.518,7.446-17.732,11.226
		c-23.093,4.785-43.519-4.487-63.616-14.986c-17.866-9.337-19.317-16.675-30.641-31.691c-1.08-1.434,2.076-11.27,6.63-13.73
		c4.155-2.242,4.051-11.767-5.51-4.386c-10.947,8.46-8.586-2.688-11.664-13.189c-1.199-4.084-2.697-7.784-6.926-6.027
		c-0.112,4.437,1.596,4.526-1.461,9.417c-2.088,3.354-6.824-8.67-9.636-8.597c-1.96,0.052-3.671,4.582-0.237,7.106
		c1.996,1.46,0.653,8.456-4.027,2.786c-1.007-1.207-4.204-5.458-6.402-3.006c-1.772,2.003,7.844,8.252,4.36,11.42
		c-2.934,2.66-9.927-5.495-9.101,0.452c0.354,2.567,8.151,7.441,10.251,9.138c14.152,14,22.854,16.422,34.801,34.715
		c10.941,16.739,18.672,24.867,37.656,32.173c20.422,7.868,42.494,8.518,64.059,8.3c0.415-0.003,0.764,0.34,0.771,0.765
		c0.003,0.436-0.334,0.782-0.756,0.782c-21.836,0.202-43.921-0.439-64.608-8.397c-19.256-7.425-27.269-15.776-38.38-32.767
		c-11.985-18.36-20.616-20.45-34.581-34.521c-3.445-3.464-10.557-5.823-10.648-10.877c0.99-6.657,4.936-0.425,9.488-0.956
		c0.869-4.394-7.48-7.678-4.352-11.192c2.958-3.326,6.82,0.982,8.59,3.133c3.14,3.822,2.374-0.56,2.058-0.791
		c-4.788-3.55-2.196-11.52,2.896-9.199c2.77,1.844,2.144,4.805,6.907,8.172l0.682-1.428c1.655-3.726-0.816-6.824,0.661-7.705
		c7.409-4.464,9.472,7.614,10.276,11.942c3.002,16.112,3.172,9.301,13.142,4.366c4.789-1.225,6.129,1.619,5.219,6.056
		c-2.439,7.064-4.199-1.76-8.875,15.399c11.465,14.598,11.644,21.464,30.005,31.059c19.784,10.336,39.953,19.573,62.699,14.887
		c17.788-3.682,9.157-5.271,17.385-11.1c0.34-0.174,0.753-0.026,0.917,0.314C186.544,230.066,186.407,230.483,186.069,230.665"/>
	<path fill-rule="evenodd" clip-rule="evenodd" d="M342.754,219.206c-29.873,43.425-70.214,40.41-113.146,20.598
		c-0.359-0.173-0.515-0.612-0.341-0.967c0.164-0.362,0.59-0.515,0.944-0.343c42.456,19.477,81.751,22.672,111.589-19.942
		c0.178-0.271,0.535-0.344,0.803-0.17C342.862,218.57,342.928,218.934,342.754,219.206"/>
	<path fill-rule="evenodd" clip-rule="evenodd" d="M347.893,237.982c-20.159,28.016-46.392,36.805-79.517,33.505
		c-11.191-1.122-17.973-3.383-28.654-5.579l-1.038-0.166c-0.4,0.08-0.792-0.177-0.87-0.578c-0.088-0.405,0.167-0.799,0.563-0.889
		l1.646,0.179l2.774,0.679c9.131,2.226,16.36,3.954,25.726,4.882c32.775,3.284,58.205-5.268,78.343-32.75
		c0.196-0.297,0.586-0.364,0.871-0.17C348.019,237.303,348.093,237.7,347.893,237.982"/>
	<path fill-rule="evenodd" clip-rule="evenodd" d="M170.969,262.343c8.729,24.638,12.251,81.935,13.553,109.24
		c0.023,0.31-0.204,0.593-0.51,0.614c-0.312,0.025-0.595-0.211-0.608-0.527c-2.861-29.935-4.136-81.583-13.669-108.792
		c-0.139-0.353,0.022-0.752,0.356-0.887C170.435,261.836,170.825,262,170.969,262.343"/>
	<path fill-rule="evenodd" clip-rule="evenodd" d="M241.787,266.052c2.123,17.966,7.463,41.847,11.045,60.104
		c2.975,15.133,6.073,32.442,9.877,47.211c0.19,0.265,0.125,0.649-0.147,0.837c-0.272,0.196-0.639,0.125-0.829-0.148
		c-3.058-7.874-7.44-32.904-9.407-42.823c-3.932-19.873-9.557-45.463-11.86-65.122c-0.014-0.358,0.268-0.684,0.628-0.698
		C241.456,265.392,241.768,265.681,241.787,266.052"/>
	<path fill-rule="evenodd" clip-rule="evenodd" d="M571.348,219.847c3.297-3.733,1.761-1.937,4.629-5.369
		c0.125-0.364,0.513-0.55,0.861-0.434c0.348,0.13,0.534,0.528,0.405,0.879c-3.127,3.884-1.5,1.97-4.884,5.742
		c-0.221,0.292-0.634,0.334-0.915,0.113C571.168,220.542,571.124,220.134,571.348,219.847"/>
	<path fill-rule="evenodd" clip-rule="evenodd" d="M563.038,286.691c8.844,8.878,24.505,12.793,36.675,12.953
		c14.131,0.186,24.44-7.547,21.433-23.375c-0.853-4.507-2.017-9.067-2.895-13.631c0.038-0.413,0.392-0.708,0.793-0.676
		c0.395,0.042,0.689,0.404,0.653,0.81c0.808,3.562,1.527,7.137,2.305,10.696c3.477,15.883-1.382,23.674-16.976,27.297
		c-5.535,0.815-11.674,0.003-17.121-1.092c-10.12-2.042-18.664-4.641-25.978-12.195c-0.214-0.307-0.13-0.742,0.173-0.958
		C562.405,286.305,562.828,286.387,563.038,286.691"/>
	<path fill-rule="evenodd" clip-rule="evenodd" d="M557.916,306.475c15.285,8.242,34.521,10.738,51.68,9.137
		c12.177-1.139,28.122-8.396,30.695-21.985c1.755-9.247,0.24-11.691-0.921-20.09c-1.723-12.42-0.043-10.56-5.16-23.064
		c-2.139-5.221-4.469-10.061-7.105-15.03c-4.911-7.478-11.087-13.492-16.574-20.575c-0.163-0.388,0.014-0.837,0.391-0.995
		c0.383-0.158,0.819,0.009,0.986,0.397c13.203,16.348,15.63,15.972,23.648,35.626c5.136,12.585,3.513,10.927,5.238,23.405
		c1.279,9.236,3.805,18.807-1.876,27.819c-9.073,14.394-26.998,16.868-42.265,16.191c-14.013-0.631-27.079-2.843-39.53-9.698
		c-0.31-0.23-0.377-0.664-0.166-0.974C557.183,306.317,557.614,306.249,557.916,306.475"/>
	<path fill-rule="evenodd" clip-rule="evenodd" d="M620.71,271.98c7.002-5.966,10.229-5.269,18.666-2.346
		c0.364,0.122,0.566,0.528,0.435,0.899c-0.128,0.378-0.528,0.575-0.889,0.452c-7.973-2.792-10.739-3.566-17.341,2.068
		c-0.288,0.247-0.718,0.2-0.954-0.084C620.383,272.678,620.428,272.236,620.71,271.98"/>
	<path fill-rule="evenodd" clip-rule="evenodd" d="M618.466,264.526c5.643-6.468,13.044-3.84,20.257-1.446
		c0.309,0.108,0.478,0.455,0.368,0.768c-0.106,0.323-0.441,0.49-0.758,0.386c-6.44-1.923-13.789-4.732-18.854,1.076
		c-0.212,0.291-0.614,0.346-0.89,0.133C618.307,265.223,618.258,264.811,618.466,264.526"/>
	<path fill-rule="evenodd" clip-rule="evenodd" d="M563.455,252.187c3.149,18.621,5.447,16.657,2.836,37.432
		c0,0.401-0.313,0.714-0.702,0.714c-0.386,0-0.7-0.312-0.7-0.714c2.618-20.882,0.27-18.548-2.742-37.301
		c-0.043-0.371,0.221-0.705,0.593-0.737C563.095,251.55,563.416,251.821,563.455,252.187"/>
	<path fill-rule="evenodd" clip-rule="evenodd" d="M619.6,247.241c-0.901,7.666-1.794,7.934,0.027,15.549
		c0.118,0.372-0.069,0.769-0.429,0.894c-0.353,0.128-0.748-0.064-0.876-0.436c-1.866-8.026-1.054-8.143,0.027-16.117
		c0.029-0.353,0.33-0.615,0.683-0.584C619.372,246.572,619.631,246.891,619.6,247.241"/>
	<path fill-rule="evenodd" clip-rule="evenodd" d="M628.301,310.525c1.78,15.16,6.299,32.973,10.889,47.63
		c4.003,12.762,0.276,17.845-12.521,22.37c-17.834,6.286-58.483,6.926-72.479-8.772c-4.266-4.783-0.772-9.395,1.027-15.22
		c2.9-9.429,8.507-32.721,8.029-41.357l-0.812-5.024c-0.141-0.374,0.036-0.803,0.411-0.955c0.374-0.139,0.789,0.05,0.934,0.43
		l0.898,5.499c0.508,8.831-5.157,32.229-8.112,41.84c-1.631,5.315-5.021,9.709-1.316,13.844
		c13.578,15.143,53.741,14.364,70.951,8.296c15.251-5.384,15.002-10.886,10.123-24.71c-3.46-11.663-8.114-31.918-9.298-43.869
		c0-0.361,0.284-0.653,0.64-0.653C628.013,309.872,628.301,310.164,628.301,310.525"/>
	<path fill-rule="evenodd" clip-rule="evenodd" d="M554.766,371.806c-6.52,30.872-15.812,58.975-17.079,90.84
		c0,0.351-0.282,0.629-0.632,0.629c-0.345,0-0.616-0.278-0.616-0.629c0.258-29.528,10.763-62.036,16.954-91.128
		c0.083-0.382,0.448-0.632,0.832-0.553C554.604,371.035,554.845,371.433,554.766,371.806"/>
	<path fill-rule="evenodd" clip-rule="evenodd" d="M637.576,456.28c-0.027,0-0.056,0-0.085,0.015
		C637.521,456.289,637.543,456.28,637.576,456.28 M629.328,379.13c2.206,24.988,5.517,50.938,8.578,75.905
		c0.062,0.502,0.118,1.021,0.135,1.528c0.118,0.196,0.105,0.442-0.035,0.632c-1.7,1.729-2.17-6.701-2.214-7.028
		c-2.926-22.834-5.974-48.206-7.819-71.068c0.008-0.392,0.316-0.692,0.693-0.676C629.041,378.433,629.332,378.744,629.328,379.13"/>
	<path fill-rule="evenodd" clip-rule="evenodd" d="M588.754,416.321c0.342,15.062,2.47,29.816,2.343,44.66
		c0,0.31-0.237,0.559-0.545,0.559c-0.301,0-0.543-0.249-0.543-0.559c-0.711-14.922-2.279-29.797-2.517-44.66
		c0-0.348,0.282-0.635,0.627-0.635C588.471,415.687,588.754,415.974,588.754,416.321"/>
	<path fill-rule="evenodd" clip-rule="evenodd" d="M340.599,218.957c5.392-9.899,1.987-23.599,6.716-25.958
		c0.409-0.14,0.847,0.078,0.981,0.486c0.141,0.41-0.076,0.855-0.476,0.999c-0.281,0.151-0.384,0.218-0.578,0.504
		c-2.317,3.373-0.013,15.043-5.535,24.872c-0.239,0.313-0.688,0.362-0.992,0.119C340.412,219.729,340.359,219.269,340.599,218.957"
		/>
	<path fill-rule="evenodd" clip-rule="evenodd" d="M356.622,199.532c-0.328,3.528-0.198,3.083-0.584,4.637
		c2.297-1.958,3.537-3.12,7.042-4.932c0.43-0.153,0.904,0.084,1.055,0.52c0.15,0.44-0.079,0.925-0.51,1.075
		c-8.382,4.318-9.93,9.135-9.297,4.807l-0.029-0.022l0.033-0.016c0.18-1.229,0.53-3.178,0.962-6.068
		c0-0.375,0.293-0.676,0.664-0.676C356.324,198.856,356.622,199.157,356.622,199.532"/>
	<path fill-rule="evenodd" clip-rule="evenodd" d="M346.276,238.029c5.378-9.422,25.194-15.549,35.102-17.34
		c11.314-2.049,4.798-7.961-5.611-5.372c0,0-4.819,2.265-4.327,0.029c0.034-0.186,0.221-0.38,0.515-0.56l-0.022-0.041
		c0.059-0.021,0.114-0.047,0.176-0.065c4.078-2.301,24.902-4.567,18.095-9.008c-4.12-2.691-14.831,0.711-17.911,1.784l-0.135,0.089
		l-0.028-0.031c-0.441,0.154-0.682,0.24-0.682,0.24c-1.256-0.176-1.105-0.733-0.272-1.475l-0.115-0.139
		c0.188-0.073,0.354-0.144,0.536-0.213c2.117-1.655,6.721-4.008,7.433-5.438c0.16-0.467,0.671-0.726,1.143-0.558
		c0.463,0.16,0.707,0.682,0.547,1.156c-0.466,0.956-1.36,1.844-2.431,2.662c14.296-3.383,19.114,4.332,10.937,7.817
		c-1.58,0.666-3.491,1.209-5.572,1.724c7.283,1.146,7.359,7.178-2.156,8.909c-9.391,1.705-28.628,7.787-34.107,16.34
		c-0.14,0.31-0.507,0.459-0.812,0.31C346.269,238.715,346.128,238.341,346.276,238.029"/>
	<path fill-rule="evenodd" clip-rule="evenodd" d="M347.431,222.165c2.205-4.082,6.036-6.086,10.495-6.515
		c0.4,0,0.723,0.334,0.723,0.744c0,0.406-0.323,0.737-0.723,0.737c-3.799,0.357-7.24,2.163-9.238,5.565
		c-0.147,0.355-0.544,0.521-0.888,0.372C347.454,222.919,347.291,222.516,347.431,222.165"/>
	<path fill-rule="evenodd" clip-rule="evenodd" d="M217.421,228.456c13.249,1.745,7.134,8.499,12.466,9.363
		c0.382-0.037,0.72,0.256,0.753,0.659c0.029,0.39-0.256,0.738-0.649,0.772c-6.233,1.106-0.119-7.439-12.701-9.263
		c-0.409-0.036-0.714-0.416-0.675-0.833C216.643,228.737,217.009,228.424,217.421,228.456"/>
	<path fill-rule="evenodd" clip-rule="evenodd" d="M227.455,237.479c-5.682,13.981-40.693,16.252-47.167,2.055
		c-0.488-1.073-0.488-1.453-0.501-2.577c0.032-0.468,0.433-0.826,0.896-0.784c0.458,0.042,0.806,0.447,0.763,0.921
		c0.034,0.734,0.052,1.01,0.372,1.698c5.873,12.879,38.687,10.433,44.187-1.733c0.104-0.398,0.526-0.645,0.933-0.531
		C227.341,236.651,227.574,237.069,227.455,237.479"/>
	<path fill-rule="evenodd" clip-rule="evenodd" d="M341.793,218.902c-0.866,7.151,7.918,10.105,13.501,10.634
		c0.457,0,0.829,0.374,0.829,0.841c0,0.468-0.372,0.839-0.829,0.839c-6.828-0.599-16.178-4.086-14.917-12.652
		c0.089-0.41,0.485-0.653,0.876-0.558C341.646,218.096,341.893,218.499,341.793,218.902"/>
	<path fill-rule="evenodd" clip-rule="evenodd" d="M183.942,372.812c0.024-0.019,0.04-0.053,0.069-0.084L183.942,372.812z
		 M183.028,372.918c0.203,0.114,0.453,0.128,0.672,0.05L183.028,372.918z M182.641,372.444c-0.01-0.048-0.016-0.084-0.025-0.127
		C182.625,372.36,182.627,372.396,182.641,372.444 M182.929,372.911l0.069,0.047l-0.059-0.047H182.929z M184.466,371.278
		c-0.059,0.189-0.147,0.439-0.225,0.683c1.917,2.983-0.682,13.592,25.735,5.564c8.747-2.656,12.316,11.477,36.028,2.312
		c1.275-0.495,2.865-1.148,4.261-1.695l-0.14,0.066c2.171-0.758,10.527-2.228,11.053-3.809v-0.17
		c-0.028-0.454,0.293-0.828,0.722-0.86c0.436-0.041,0.811,0.283,0.848,0.732c-0.016,2.896-2.549,3.37-5.105,3.956
		c-6.355,1.469-5.602,1.385-10.992,3.479c-24.074,9.333-28.823-4.579-36.125-2.335c-6.627,2.035-12.475,4.013-19.698,2.623
		c-6.729-1.302-6.384-5.106-7.952-8.92l-0.196-0.02c-0.354-1.02-0.15-0.924,0.242-2.132c0.141-0.436,0.607-0.672,1.033-0.523
		C184.382,370.376,184.607,370.847,184.466,371.278"/>
	<path fill-rule="evenodd" clip-rule="evenodd" d="M223.774,278.243c0.325,9.587,1.967,11.946,4.094,20.623
		c0.078,0.407-0.174,0.807-0.576,0.887c-0.397,0.085-0.791-0.177-0.866-0.583c-2.347-8.553-3.569-10.211-3.885-19.701l-0.04-1.18
		c-0.013-0.359,0.259-0.656,0.613-0.672C223.468,277.601,223.766,277.889,223.774,278.243"/>
	<path fill-rule="evenodd" clip-rule="evenodd" d="M194.471,351.975c-1.157-7.825-1.117-13.857-3.005-21.553
		c-0.144-0.318-0.013-0.688,0.284-0.838c0.309-0.148,0.672-0.017,0.813,0.293c2.465,8.227,2.167,13.424,3.168,21.829
		c0.078,0.349-0.155,0.701-0.505,0.778C194.886,352.562,194.545,352.334,194.471,351.975"/>
	<path fill-rule="evenodd" clip-rule="evenodd" d="M193.283,380.02c0.219,4.842,0.376,9.661,0.526,14.503
		c22.63,0.41,34.501,5.325,57.391-5.311c1.335-0.611,2.209-1.015,2.819-2.286l-1.292-4.326l-1.061-4.636
		c-0.188-0.262-0.125-0.642,0.141-0.827c0.266-0.195,0.631-0.129,0.822,0.143c2.8,6.793,6.292,10.515-0.657,13.748
		c-16.028,7.468-26.867,7.64-44.193,6.168c-4.463-0.38-11.068-0.355-14.859-0.79c-1.954-0.229-1.256-13.3-1.31-15.934
		c-0.123-0.472,0.153-0.958,0.61-1.079C192.679,379.266,193.159,379.549,193.283,380.02"/>
	<path fill-rule="evenodd" clip-rule="evenodd" d="M193.518,395.732c-3.913,8.856-8.016,32.852-9.118,43.113
		c0,0.492-0.396,0.899-0.886,0.899c-0.487,0-0.884-0.407-0.884-0.899c0.715-10.687,5.162-34.884,9.688-44.189
		c0.287-0.338,0.791-0.371,1.125-0.073C193.774,394.88,193.807,395.397,193.518,395.732"/>
	<path fill-rule="evenodd" clip-rule="evenodd" d="M255.317,387.275c3.346,8.239,9.671,18.005,14.842,24.976
		c0.381,0.343,0.403,0.946,0.063,1.322c-0.351,0.382-0.924,0.413-1.302,0.063c-5.551-7.41-11.831-17.07-15.236-25.87
		c-0.135-0.464,0.131-0.945,0.578-1.079C254.717,386.562,255.186,386.821,255.317,387.275"/>
	<path fill-rule="evenodd" clip-rule="evenodd" d="M235.031,421.986c0.373,3.433,0.783,6.753,0.979,10.202
		c-0.028,0.435-0.409,0.77-0.841,0.739c-0.435-0.028-0.754-0.417-0.728-0.854c-0.3-3.311-0.61-6.633-0.904-9.945
		c-0.041-0.427,0.27-0.795,0.678-0.839C234.628,421.252,234.995,421.566,235.031,421.986"/>
	<path fill-rule="evenodd" clip-rule="evenodd" d="M176.303,282.468c9.61,3.576,30.717,2.271,41.179,0.753
		c2.124-0.3,5.479-2.909,5.909,0.425c3.11,0.566,17.021-1.613,20.187-1.939c0.469,0,0.85,0.388,0.85,0.865
		c0,0.48-0.381,0.867-0.85,0.867c-4.72,0.755-9.699,1.42-14.453,1.828c-3.725,0.313-6.767,1.349-7.431-1.566
		c-0.742,0.088-3.139,1.175-5.264,1.293l0.176-0.008c-12.022,1.279-29.972,3.334-41.213-1.051c-0.4-0.266-0.515-0.793-0.267-1.2
		C175.378,282.333,175.903,282.212,176.303,282.468"/>
	<path fill-rule="evenodd" clip-rule="evenodd" d="M166.366,169.71c6.608,18.626,24.834,17.393,40.766,11.953
		c5.117-1.74,29.974-13.034,26.342-21.808c-0.722-1.729-2.239-2.394-3.724-3.248c-0.395-0.161-0.583-0.638-0.413-1.034
		c0.165-0.41,0.623-0.592,1.019-0.426c2.033,1.047,3.69,1.726,4.65,4.042c4.609,11.132-23.762,23.169-30.834,25.196
		c-16.496,4.706-32.995,4.043-39.307-14.253c-0.119-0.416,0.125-0.856,0.544-0.979C165.819,169.04,166.251,169.289,166.366,169.71"
		/>
	<path fill-rule="evenodd" clip-rule="evenodd" d="M471.485,268.392c0.75-4.219,4.897-12.387,10.139-11.321
		c0.297,0,0.54,0.24,0.54,0.545c0,0.307-0.243,0.554-0.54,0.554c-4.918,2.461-7.315,4.056-8.759,10.361
		c-0.028,0.393-0.374,0.677-0.759,0.633C471.726,269.138,471.45,268.783,471.485,268.392"/>
	<path fill-rule="evenodd" clip-rule="evenodd" d="M478.125,265.681c1.57-0.906,15.459-8.358,14.197-0.259
		c-0.346,2.205-2.509,3.778-4.986,4.921c3.892,0.055,7.446,1.226,5.684,5.79c-0.904,2.331-3.315,2.677-6.082,2.882
		c2.06,0.46,3.324,1.593,1.913,4.049c-0.336,0.588-1.842,1.456-3.629,2.166c2.386,0.986,3.462,2.893-0.722,5.626
		c-2.573,1.674-10.674,2.141-13.315-2.138c-2.771-4.5-0.187-15.466,0.366-21.217c0-0.483,0.383-0.881,0.863-0.881
		c0.478,0,0.864,0.398,0.864,0.881c-0.56,5.742-1.21,11.139-1.649,16.95c1.236,6.866,5.4,6.034,11.511,5.116l0.464-0.167
		c3.647-2.9,1.908-2.944-2.948-2.957c-0.55,0.067-1.047,0.067-1.478-0.003h-0.536v-0.129c-0.408-0.146-0.704-0.38-0.844-0.729
		c0.112-0.293,0.421-0.534,0.844-0.714v-0.149l0.583-0.04c0.618-0.146,1.363-0.21,2.164-0.191c2.17-0.264,3.54-0.75,6.108-2.336
		c1.206-3.13-5.222-1.601-7.977-1.569l-0.008,0.003v-0.003c-0.63,0.003-1.064-0.07-1.17-0.304
		c-1.521-3.23,11.785-2.013,13.097-4.449c2.582-4.845-5.487-4.179-9.446-3.614c-0.537,0.158-1.026,0.288-1.436,0.407l-0.049-0.176
		c-0.355,0.057-0.561,0.089-0.57,0.083c-0.771-0.49-0.527-0.914,0.276-1.328l-0.022-0.116c0.127-0.019,0.281-0.054,0.447-0.083
		c2.637-1.152,8.942-2.394,10.057-5.288c2.384-6.17-11.497,1.078-11.705,1.194c-0.336,0.253-0.801,0.165-1.041-0.169
		C477.714,266.401,477.789,265.921,478.125,265.681"/>
	<path fill-rule="evenodd" clip-rule="evenodd" d="M562.456,288.466c0.084,0.145,0.141,0.309,0.141,0.493
		c0.248,4.667,1.62,15.323-3.827,17.768c-4.654,4.551-20.127,0.305-23.449-4.014c-2.438-3.178-0.556-4.422,2.056-4.877
		c-1.134-0.546-2.056-1.279-2.434-2.302c-1.074-2.849-0.429-4.314,0.98-4.993c-0.901-0.43-1.591-1.034-1.946-1.997
		c-1.382-3.799,0.129-5.305,2.532-5.682c-6.238-3.06-0.407-9.342,7.252-7.954c2.855,0.517,4.903,1.322,6.335,2.222
		c-0.666-7.232,5.943-12.588,7.912-7.823c3.595,8.737,4.629,9.484,4.488,19.002C562.489,288.364,562.47,288.416,562.456,288.466
		 M560.951,288.163c-0.006-10.049-1.037-8.994-4.496-18.173c-2.167-2.971-5.602,4.342-4.359,8.836
		c2.519,3.083,0.009,6.03-0.737,2.596l0.033,0.045c-0.151-0.295-0.288-0.587-0.417-0.878c-3.424-4.849-15.987-5.435-15.132-0.563
		c0.322,1.873,13.612,3.687,9.784,5.887c-1.588,0.905-11.656-5.017-9.926,1.937c0.342,0.538,0.222,0.345,0.532,0.841
		c0.807,0.268,5.233,1.092,7.691,2.081c0.281,0.063,0.537,0.121,0.776,0.179l-0.066,0.137c1.021,0.526,1.351,1.076,0.211,1.601
		c-0.016,0.009-0.357-0.083-0.908-0.203l-0.039,0.078c-0.192-0.078-0.391-0.148-0.586-0.211c-3.018-0.631-9.221-1.547-6.558,2.771
		c0.841,1.374,4.621,1.825,6.536,2.562h0.088l-0.006,0.028c0.96,0.378,1.396,0.846,0.646,1.56c-0.063,0.066-0.371,0.083-0.827,0.095
		l-0.021,0.123c-0.17-0.049-0.342-0.088-0.537-0.123c-3.173-0.029-10.201-0.357-4.385,3.546c4.758,3.191,14.489,5.847,19.509,2.279
		c4.8-3.396,3.367-10.222,3.091-16.235c0-0.184,0.045-0.348,0.135-0.493C560.958,288.374,560.942,288.268,560.951,288.163"/>
	<path fill-rule="evenodd" clip-rule="evenodd" d="M506.981,224.079c-3.55-1.506-16.134-6.751-8.649-12.396
		c3.669-2.766,8.329-0.237,12.011,3.149c-1.978-6.638-2.269-14.922,3.271-16.252c3.802-0.922,5.888,2.691,6.91,7.131
		c0.388-1.713,0.826-3.176,1.27-4.052c5.835-11.466,20.479-6.027,10.729,9.874c7.444-3.828,18.385-4.699,16.638,1.361
		c-0.724,2.512-3.182,4.419-5.915,5.825c4.842-0.416,10.031,0.224,11.912,4.465c1.191,2.704-2.186,5.54-4.774,6.143l-3.821,0.575
		l-2.632,0.147c-0.458,0.036-0.858-0.319-0.906-0.789c-0.028-0.477,0.313-0.888,0.778-0.922c3.629-0.123,9.732,0.211,9.942-4.591
		c-4.421-6.885-17.166-1.971-17.941-2.269c-0.88-0.34-0.681-0.784,0.115-1.293l-0.093-0.166c0.197-0.045,0.41-0.097,0.627-0.145
		c2.209-1.178,6.786-2.676,8.694-4.18c9.301-7.285-7.107-7.816-14.762-0.944c-0.833,1.162-1.844,2.533-2.688,3.468
		c-0.058,0.132-0.125,0.262-0.18,0.397l-0.133-0.053c-0.991,1.011-1.647,1.25-1.311-0.471c0.309-1.595,1.456-3.08,3.075-4.396
		c0.295-0.386,0.685-0.897,1.188-1.568c2.377-3.179,6.688-14.535,0.757-14.988c-7.214-0.568-9.243,7.091-9.844,13.792
		c0.194,2.861,0.051,5.482-0.269,6.945v0.22h-0.049c-0.055,0.205-0.112,0.386-0.166,0.531l-0.525,0.225l-0.521-0.225
		c-0.061-0.15-0.116-0.329-0.161-0.531h-0.051l0.007-0.22c-0.288-1.541-0.199-4.156,0.128-6.875c-0.006-1.285-0.039-2.221-0.1-2.869
		c-0.616-7.188-5.795-11.587-8.321-4.974c-2.733,7.18,0.931,13.527,5.191,18.827l-0.195,0.198c0.236,0.493,0.317,0.819,0.209,0.935
		c-1.163,1.213-2.98-0.801-4.533-4.13c-3.345-3.878-7.947-8.328-11.596-6.679c-8.245,3.739,4.915,9.351,7.221,10.415
		c0.364,0.155,0.544,0.584,0.396,0.951C507.767,224.046,507.346,224.231,506.981,224.079"/>
	<path fill-rule="evenodd" clip-rule="evenodd" d="M540.478,226.984c1.354-0.183,9.01-0.977,6.479-3.96
		c-4.934-2.291-6.432-1.567-11.23-0.755c-0.143,0.039-0.288,0.052-0.429,0.061c-0.228,0.053-0.47,0.083-0.717,0.123l0.01-0.145
		c-1.044-0.198-1.517-1.001-0.025-1.412c0.377-0.098,0.746-0.184,1.108-0.275c2.205-1.516,1.35-8.404-6.363-3.977
		c-0.471,1.235-1.345,2.048-2.568,1.811c-1.625-0.307-0.779-1.517,1.05-2.605c2.247-3.499-3.866-10.463-6.017-0.294
		c-0.003,0-0.051,4.87-1.697,3.376c-0.134-0.124-0.211-0.336-0.262-0.601h-0.007l0.007-0.029c-0.343-1.889,0.652-6.757-3.2-6.401
		c-0.077,0.056-0.136,0.095-0.192,0.121c-1.46,7.548,0.305,3.975,1.184,9.164c0.666,3.964-6.897-5.189-8.809-1.966
		c-0.595,1.012-0.089,2.212,0.334,3.164c0.14,0.448-0.08,0.938-0.525,1.102c-0.442,0.154-0.935-0.089-1.088-0.54
		c-0.344-0.742-0.489-0.767-0.501-1.582c-0.594-5.895,4.345-5.035,8.035-2.515c-0.984-3.167-1.898-7.621,0.573-8.335
		c0.074-0.084,0.221-0.176,0.297-0.211c2.708-1.235,4.11,0.641,4.814,2.976c0.684-2.335,1.883-4.435,4.129-4.672
		c3.623-0.381,5.075,3.311,4.83,6.29c3.761-1.558,8.92-2.003,8.633,3.179c-0.053,0.876-0.211,1.584-0.438,2.155
		c11.538-1.509,16.98,6.781,2.544,8.237c-0.404-0.013-0.718-0.357-0.704-0.774C539.743,227.285,540.08,226.972,540.478,226.984"/>
	<path fill-rule="evenodd" clip-rule="evenodd" d="M479.02,263.92c0.02-0.02,0.047-0.032,0.074-0.061
		C479.066,263.888,479.039,263.901,479.02,263.92 M548.488,277.61c1.224-12.225,3.777-24.499,9.5-35.381
		c2.426-4.593-9.173-8.873-12.095-10.179c-22.339-10.002-29.787-7.86-53.31-4.535c-2.254,10.93-8.942,25.499-11.944,37.27
		c-0.035,0.156-0.082,0.293-0.15,0.413l-0.007,0.213c0,0.558-0.438,1.003-0.985,1.003c-0.542,0-0.982-0.445-0.982-1.003
		c0.02-0.53-0.014-0.914,0.263-1.254c2.893-10.871,7.049-21.218,10.463-31.905c2.679-8.369-0.403-6.123,8.626-7.542
		c18.058-2.844,26.546-3.44,43.408,3.237c4.711,1.869,21.966,7.601,18.212,15.084c-5.853,11.628-7.749,21.647-9.48,34.579
		c0,0.421-0.34,0.777-0.755,0.777C548.828,278.388,548.488,278.032,548.488,277.61"/>
	<path fill-rule="evenodd" clip-rule="evenodd" d="M476.134,291.507c-0.187,1.763-1.274,5.82-1.441,7.23
		c6.006,2.667,19.404,9.689,24.556,10.431c3.538,0.51,39.668,1.661,41.723-1.459l0.386-0.739l0.424-1.117
		c0.114-0.464,0.581-0.742,1.05-0.62c0.454,0.127,0.727,0.606,0.598,1.065c-0.432,1.47-0.746,2.656-2.077,3.546
		c-3.779,2.505-37.403,1.896-42.339,1.188c-3.412-0.497-15.63-5.899-18.87-7.603c-10.077-5.265-7.088-1.689-5.582-11.922
		c0-0.442,0.352-0.806,0.782-0.806C475.781,290.702,476.134,291.065,476.134,291.507"/>
	<path fill-rule="evenodd" clip-rule="evenodd" d="M522.989,224.558c-5.131,9.75-9.331,24.297-13.324,35.01
		c-3.376,9.025-5.814,18.323-9.107,27.366c-1.868,5.126-3.821,15.881-4.641,21.511c0,0.555-0.432,1.002-0.978,1.002
		c-0.529,0-0.978-0.447-0.978-1.002c0.82-5.844,0.518-4.311,1.978-11.017c2.98-13.631,19.644-63.278,25.767-73.85
		c0.262-0.362,0.764-0.438,1.118-0.17C523.177,223.685,523.251,224.193,522.989,224.558"/>
	<path fill-rule="evenodd" clip-rule="evenodd" d="M532.827,226.821c-3.158,12.771-6.078,22.114-10.645,34.411
		c-3.909,10.495-6.354,17.018-9.357,27.878c-1.836,6.66-3.699,13.31-5.498,19.992l-0.896,0.322c0.371,0.194,0.53,0.656,0.365,1.057
		l-0.642-0.96l-0.806,0.291c0.121-0.285,0.397-0.464,0.685-0.48l-0.505-0.749c1.895-6.645,3.725-13.315,5.575-19.969
		c3.008-10.805,5.537-17.595,9.412-28.039c4.534-12.245,7.378-21.495,10.604-34.179c0.123-0.474,0.59-0.773,1.064-0.66
		C532.658,225.857,532.946,226.344,532.827,226.821"/>
	<path fill-rule="evenodd" clip-rule="evenodd" d="M544.879,231.071c-3.979,13.946-8.245,27.853-13.617,41.306
		c-4.193,10.47-6.291,21.374-9.902,32.16l-0.916,2.796l-0.653,2.4c0.032,0.527-0.345,0.982-0.859,1.021
		c-0.519,0.043-0.967-0.35-1.01-0.878l0.802-3.104l0.953-2.878c3.879-10.772,5.675-21.47,9.993-32.22
		c5.421-13.492,9.384-27.133,13.66-41.06c0.122-0.432,0.563-0.685,0.995-0.554C544.748,230.182,544.997,230.633,544.879,231.071"/>
	<path fill-rule="evenodd" clip-rule="evenodd" d="M510.803,224.695c-3.357,7.855-7.072,15.282-9.335,23.497
		c-1.88,6.805-4.613,16.539-7.378,22.897c-0.353,0.804-0.282,0.634-0.421,1.44c0,0.502-0.396,0.9-0.885,0.9
		c-0.491,0-0.892-0.398-0.892-0.9l0.206-1.172l0.403-1.014c2.619-6.126,5.453-15.753,7.24-22.282
		c2.463-8.975,5.823-15.506,9.563-23.948c0.16-0.422,0.628-0.628,1.037-0.464C510.749,223.797,510.964,224.28,510.803,224.695"/>
	<path fill-rule="evenodd" clip-rule="evenodd" d="M491.542,278.025c-1.627,8.163-3.736,17.211-5.89,25.249
		c-0.006,0.689,0.134,0.606-0.339,1.333c-0.302,0.379-0.852,0.423-1.214,0.119c-0.368-0.312-0.422-0.865-0.128-1.236
		c0.135-2.041,5.299-22.807,6.065-25.617c0.044-0.427,0.416-0.73,0.826-0.692C491.285,277.226,491.586,277.601,491.542,278.025"/>
	<path fill-rule="evenodd" clip-rule="evenodd" d="M478.125,302.109c0.698-3.894,1.477-7.776,2.297-11.642
		c0.106-0.417,0.518-0.667,0.929-0.551c0.403,0.106,0.646,0.522,0.54,0.935c-0.803,3.799-1.558,7.604-2.342,11.397
		c-0.036,0.405-0.394,0.701-0.782,0.657C478.374,302.874,478.085,302.517,478.125,302.109"/>
	<path fill-rule="evenodd" clip-rule="evenodd" d="M501.375,225.529c-5.128,10.298-10.218,25.329-13.717,36.752
		c0.042,0.483-0.311,0.906-0.777,0.944c-0.471,0.054-0.886-0.313-0.929-0.793c2.654-10.332,9.552-29.015,14.18-37.842
		c0.251-0.35,0.739-0.419,1.088-0.164C501.566,224.686,501.643,225.188,501.375,225.529"/>
	<path fill-rule="evenodd" clip-rule="evenodd" d="M573.869,219.044c-5.439,7.412-10.362,12.337-17.958,17.43
		c-0.349,0.272-0.85,0.196-1.107-0.161c-0.265-0.361-0.189-0.863,0.158-1.143c6.924-4.374,12.769-10.42,17.855-16.86
		c0.202-0.286,0.589-0.369,0.874-0.164C573.985,218.346,574.057,218.739,573.869,219.044"/>
	<path fill-rule="evenodd" clip-rule="evenodd" d="M563.266,252.152c-6.036,4.138-3.088,2.271-8.806,5.648
		c-0.39,0.286-0.928,0.176-1.196-0.224c-0.275-0.406-0.166-0.946,0.225-1.223l4.199-2.524l4.537-3.013
		c0.358-0.287,0.878-0.23,1.176,0.138C563.685,251.319,563.628,251.85,563.266,252.152"/>
	<path fill-rule="evenodd" clip-rule="evenodd" d="M613.311,244.061c-0.463,3.143,4.121,10.385,4.154,10.536l-0.053,0.038
		c0.417,0.123,0.653,0.577,0.519,0.998c-0.128,0.424-0.566,0.66-0.979,0.533c-2.491-0.792-5.551-9.36-5.025-12.55
		c0.121-0.394,0.521-0.606,0.909-0.486C613.217,243.256,613.431,243.672,613.311,244.061"/>
	<path fill-rule="evenodd" clip-rule="evenodd" d="M571.648,221.379c0.211-0.01,0.41-0.102,0.545-0.304
		C572.014,221.3,572.004,221.242,571.648,221.379 M571.143,221.21c-0.15-0.16-0.259-0.315-0.299-0.464
		C570.879,220.939,570.992,221.098,571.143,221.21 M572.456,220.045c3.216,1.049-0.379,2.621,12.198,2.788
		c9.305,0.13,20.961-0.167,29.27-4.779c0.434-0.178,0.945,0.029,1.126,0.476c0.182,0.448-0.022,0.958-0.464,1.137
		c-8.51,4.841-27.688,6.13-37.017,4.555c-0.211-0.029-5.113-1.628-6.427-3.011c0.115,0.083,0.237,0.133,0.372,0.159l-0.678-1.037
		l0.126-0.531c0.095-0.413,0.504-0.666,0.904-0.571C572.24,219.322,572.481,219.667,572.456,220.045"/>
	<path fill-rule="evenodd" clip-rule="evenodd" d="M545.467,153.916c4.226,11.89,11.984,18.727,22.937,24.454
		c14.884,7.777,38.003,12.004,48.465-5.15l2.772-5.916c0.121-0.342,0.485-0.534,0.832-0.408c0.346,0.108,0.518,0.486,0.413,0.828
		l-2.705,6.312c-10.55,18.044-35.137,13.805-50.501,5.777c-11.548-6.042-19.265-13.037-23.541-25.59
		c-0.087-0.371,0.145-0.74,0.51-0.829C545.02,153.313,545.384,153.544,545.467,153.916"/>
	<path fill-rule="evenodd" clip-rule="evenodd" fill="#FFDE17" d="M227.042,238.382c-6.789,13.171-40.421,15.046-46.754,1.153
		c-0.259-0.583-0.379-0.953-0.442-1.348c-1.698,1.171-4.859,2.33-11.507,3.704c-23.094,4.785-43.519-4.487-63.622-14.986
		c-16.803-8.779-19.087-15.803-28.72-29.105c0.009,4.12-3.678,7.516-7.487,8.965c-0.347,0.849-2.286,1.137-3.935,1.134
		c3.381,3.465,6.822,7.655,10.583,13.407c10.94,16.742,18.671,24.867,37.655,32.176c20.422,7.868,42.492,8.518,64.059,8.3
		c1.003-0.01,1.016,1.54,0.013,1.547c-1.856,0.022-3.708,0.035-5.569,0.035c1.75,5.185,3.277,11.679,4.621,18.974
		c0.125,0.019,0.247,0.06,0.365,0.13c9.61,3.576,30.717,2.271,41.179,0.753c1.631-0.234,3.981-1.817,5.185-1.043
		c-0.049-0.827-0.096-1.728-0.125-2.708l-0.04-1.18c-0.013-0.359,0.259-0.659,0.613-0.672c0.353-0.017,0.65,0.271,0.659,0.626
		c0.075,2.142,0.21,3.906,0.41,5.483c3.854,0.183,14.602-1.434,18.557-1.923c-0.916-5.474-1.7-10.771-2.274-15.69v-0.054
		c-0.246-0.044-0.496-0.098-0.744-0.15l-1.04-0.166c-0.399,0.08-0.79-0.177-0.868-0.578c-0.09-0.405,0.166-0.799,0.562-0.889
		l1.642,0.179l2.774,0.679c9.13,2.226,16.363,3.954,25.728,4.882c32.434,3.248,57.681-5.097,77.713-31.905
		c0.005-0.035,0.018-0.062,0.041-0.081c1.481-2.601,4.062-4.947,7.23-7.021c-5.402-0.836-11.596-3.429-12.969-8.691
		c-29.635,40.147-69.051,36.802-110.929,17.486c-0.198-0.094-0.33-0.269-0.382-0.461C228.072,239.4,227.455,239.026,227.042,238.382
		"/>
	<path fill-rule="evenodd" clip-rule="evenodd" fill="#F9ED32" d="M192.565,329.877c2.465,8.227,2.165,13.424,3.163,21.832
		c0.079,0.346-0.15,0.698-0.501,0.775c-0.341,0.078-0.682-0.15-0.757-0.507c-1.154-7.828-1.117-13.863-3.002-21.556
		c-0.147-0.318-0.013-0.688,0.281-0.835C192.058,329.436,192.422,329.567,192.565,329.877 M216.606,284.988
		c-11.706,1.245-29.031,3.226-40.316-0.723c4.88,27.613,7.177,65.505,8.197,86.563c0.029,0.096,0.029,0.197,0.02,0.301
		c0,0.152,0.01,0.307,0.016,0.454c0.013,0.192-0.069,0.378-0.21,0.497c1.157,2.034,0.632,7.062,7.274,8.174
		c-0.007-0.385,0.244-0.748,0.635-0.861c0.459-0.127,0.938,0.156,1.063,0.627c0.003,0.142,0.01,0.279,0.013,0.42
		c3.608,0.209,8.878-0.545,16.679-2.914c8.747-2.656,12.316,11.477,36.03,2.315c1.274-0.499,2.865-1.152,4.26-1.699l-0.14,0.066
		c0.344-0.117,0.848-0.257,1.452-0.415c-0.069-0.234,0.024-0.505,0.23-0.656c0.26-0.195,0.631-0.129,0.822,0.143
		c0.029,0.071,0.063,0.159,0.098,0.227c3.287-0.802,8.06-1.93,8.453-3.106v-0.17c-0.019-0.301,0.122-0.577,0.341-0.729
		c-3.042-8.448-7.277-32.578-9.197-42.27c-2.84-14.386-6.575-31.747-9.295-47.712c-4.556,0.723-9.338,1.349-13.906,1.744
		c-1.759,0.137-3.376,0.461-4.651,0.445c0.731,4.302,1.954,7.277,3.399,13.157c0.075,0.407-0.177,0.803-0.579,0.887
		c-0.397,0.085-0.791-0.177-0.866-0.583c-1.754-6.386-2.875-8.926-3.465-13.746c-0.619-0.28-1.058-0.814-1.268-1.72
		c-0.742,0.084-3.139,1.171-5.264,1.287L216.606,284.988z"/>
	<path fill-rule="evenodd" clip-rule="evenodd" fill="#FDD0AD" d="M246.65,381.536c-24.074,9.333-28.823-4.579-36.125-2.335
		c-5.834,1.791-11.056,3.545-17.148,2.984c0.169,4.116,0.307,8.228,0.43,12.337c22.634,0.41,34.501,5.325,57.393-5.311
		c1.073-0.496,1.862-0.856,2.449-1.657c-0.008-0.285,0.117-0.563,0.34-0.729l-1.262-4.226l-0.717-3.119
		C250.635,379.931,249.502,380.428,246.65,381.536"/>
	<path fill-rule="evenodd" clip-rule="evenodd" fill="#FBB040" d="M181.817,238.792c5.873,12.879,38.688,10.433,44.187-1.733
		c0.053-0.181,0.175-0.345,0.325-0.438c-0.764-2.338-1.842-5.505-8.738-6.589c-0.519,1.336-1.197,2.663-2.088,3.93
		c-3.268,4.686-9.999,7.481-16.364,6.786c-6.143-0.672-10.758-4.219-13.238-9.977c-3.436,2.512-3.471,4.295-4.531,5.893
		c0.06,0.131,0.093,0.275,0.077,0.431C181.479,237.829,181.494,238.104,181.817,238.792"/>
	<path fill-rule="evenodd" clip-rule="evenodd" fill="#FDD0AD" d="M357.924,215.65c0.4,0,0.725,0.334,0.725,0.744
		c0,0.406-0.325,0.737-0.725,0.737c-3.797,0.357-7.24,2.163-9.236,5.565c-0.147,0.348-0.544,0.521-0.888,0.372
		c-0.347-0.148-0.51-0.551-0.37-0.902C349.636,218.083,353.467,216.079,357.924,215.65 M347.243,194.988
		c-2.205,3.2-0.238,13.865-4.742,23.352c0.033,0.006,0.066,0.028,0.101,0.042c0.26,0.189,0.326,0.553,0.151,0.824
		c-0.323,0.461-0.651,0.945-0.979,1.402c0.606,5.913,8.407,8.441,13.521,8.928c0.15,0,0.294,0.035,0.422,0.121
		c8.191-4.685,19.103-7.776,25.664-8.967c11.312-2.049,4.795-7.961-5.615-5.372c0,0-4.818,2.269-4.324,0.029
		c0.034-0.186,0.221-0.38,0.516-0.56l-0.023-0.044l0.173-0.062c4.081-2.301,24.906-4.567,18.099-9.008
		c-4.123-2.691-14.831,0.714-17.911,1.784l-0.136,0.089l-0.033-0.031c-0.436,0.154-0.677,0.243-0.677,0.243
		c-1.256-0.179-1.108-0.736-0.272-1.478l-0.115-0.142c0.188-0.07,0.354-0.137,0.532-0.209c1.867-1.461,5.679-3.464,7.04-4.901
		c-4.906-0.215-10.001-0.342-14.664-0.42c-0.092,0.1-0.213,0.173-0.347,0.224c-8.382,4.318-9.925,9.135-9.292,4.807l-0.031-0.022
		l0.034-0.016c0.164-1.09,0.459-2.755,0.824-5.15c-0.735-0.017-1.439-0.042-2.102-0.044c-0.231-0.006-4.136,0.763-4.254-0.721
		c-0.112-1.5-0.578-3.196-1.275-5.018C347.431,194.733,347.353,194.827,347.243,194.988"/>
	<path fill-rule="evenodd" clip-rule="evenodd" fill="#5ABA48" d="M563.455,252.187c3.142,18.596,5.44,16.672,2.849,37.349
		c9.09,6.882,22.619,9.974,33.409,10.107c14.128,0.186,24.44-7.547,21.433-23.375c-0.67-3.543-1.536-7.121-2.3-10.723
		c-0.09-0.006-0.186-0.05-0.258-0.104c-0.281-0.219-0.33-0.631-0.119-0.916c0.038-0.048,0.09-0.094,0.128-0.151
		c-0.064-0.313-0.128-0.638-0.196-0.96c-0.029-0.041-0.054-0.099-0.078-0.167c-0.781-3.341-1.089-5.307-1.109-7.046
		c-0.089,0-0.175-0.01-0.261-0.035c-2.491-0.792-5.551-9.36-5.025-12.55c0.121-0.394,0.521-0.606,0.909-0.486
		c0.381,0.127,0.595,0.543,0.475,0.931c-0.41,2.786,3.154,8.818,3.988,10.246c0.169-1.774,0.588-3.755,1.048-7.176
		c0.032-0.356,0.337-0.612,0.686-0.584c0.34,0.026,0.599,0.344,0.563,0.695c-0.878,7.448-1.744,7.915-0.116,14.932
		c0.158,0.152,0.237,0.371,0.218,0.598c0.032,0.141,0.067,0.292,0.093,0.429c5.308-4.612,11.897-2.464,18.396-0.311
		c-0.39-2.971-1.135-5.489-3.977-12.418c-2.139-5.221-4.469-10.061-7.105-15.03c-3.756-5.716-8.249-10.583-12.611-15.712
		c-8.563,4.785-27.633,6.064-36.924,4.492c-0.185-0.025-3.93-1.248-5.761-2.468c-4.417,5.627-8.771,9.804-14.841,14
		c2.506,2.138,3.862,4.599,2.519,7.277c-2.227,4.424-3.883,8.621-5.173,12.819l3.374-2.022l4.537-3.013
		c0.358-0.287,0.878-0.23,1.176,0.138c0.239,0.307,0.233,0.743,0.01,1.046C563.437,252.062,563.448,252.126,563.455,252.187"/>
	<path fill-rule="evenodd" clip-rule="evenodd" fill="#FDD0AD" d="M622.002,273.467c3.477,15.879-1.379,23.674-16.976,27.297
		c-5.538,0.815-11.674,0.003-17.118-1.092c-9.861-1.984-18.228-4.511-25.412-11.626c0,0.087,0,0.17-0.003,0.264
		c-0.008,0.054-0.023,0.105-0.034,0.156c0.081,0.145,0.141,0.309,0.141,0.493c0.245,4.667,1.617,15.323-3.83,17.768
		c-0.039,0.045-0.09,0.086-0.133,0.125c15.173,7.943,34.073,10.338,50.962,8.76c5.619-0.53,12.039-2.358,17.583-5.502
		c0.089-0.12,0.223-0.208,0.384-0.233c6.285-3.671,11.365-9.077,12.729-16.25c1.755-9.247,0.234-11.691-0.927-20.09
		c-0.125-0.913-0.233-1.749-0.33-2.525c-0.033-0.007-0.084-0.016-0.113-0.026c-7.857-2.757-10.657-3.541-17.06,1.831
		C621.914,273.04,621.957,273.256,622.002,273.467"/>
	<path fill-rule="evenodd" clip-rule="evenodd" fill="#5ABA48" d="M627.182,311.935c-9.109,4.887-20.407,5.821-30.528,5.375
		c-11.466-0.515-22.287-2.088-32.667-6.393l0.69,4.208c0.504,8.831-5.157,32.229-8.109,41.84c-1.636,5.315-5.024,9.709-1.319,13.844
		c13.578,15.143,53.744,14.364,70.951,8.296c15.251-5.384,15.002-10.886,10.123-24.71C633,343.183,628.561,324.028,627.182,311.935"
		/>
	<path fill-rule="evenodd" clip-rule="evenodd" fill="#8ED8F8" d="M621.539,271.298c6.305-5.108,9.588-4.504,17.318-1.851
		c-0.245-2.221-0.375-3.829-0.516-5.212c-0.006-0.003-0.006-0.003-0.009-0.003c-6.168-1.845-13.188-4.499-18.219,0.411
		C620.601,266.859,621.062,269.077,621.539,271.298"/>
	<path fill-rule="evenodd" clip-rule="evenodd" fill="#FDD0AD" d="M584.654,222.833c9.087,0.13,20.43-0.147,28.701-4.465
		c-0.955-1.146-1.903-2.314-2.825-3.502c-0.025-0.061-0.044-0.127-0.053-0.189c-6.834,1.748-14.005,2.52-21.347,2.16
		c-3.926-0.19-7.877-0.713-11.752-1.557c-0.106-0.02-0.23-0.05-0.35-0.078c-2.228,2.757-1.798,2.286-3.114,3.732
		c-0.007,0.038-0.029,0.077-0.046,0.11c-0.304,0.405-0.606,0.806-0.902,1.197C575.304,221.277,572.846,222.676,584.654,222.833"/>
	<path fill-rule="evenodd" clip-rule="evenodd" fill="#27C4F0" d="M548.627,276.338c1.261-11.8,3.833-23.604,9.361-34.109
		c2.426-4.593-9.173-8.873-12.095-10.176c-0.391-0.178-0.771-0.344-1.151-0.514c-3.936,13.788-8.167,27.529-13.483,40.838
		c-4.188,10.47-6.285,21.374-9.899,32.164l-0.916,2.792l-0.656,2.4c0.003,0.022,0.003,0.044,0.003,0.072
		c10.03-0.016,20.114-0.489,21.181-2.097l0.39-0.739l0.156-0.413c-2.804-1.075-5.127-2.46-6.196-3.847
		c-2.438-3.175-0.556-4.419,2.047-4.874c-1.125-0.546-2.047-1.279-2.425-2.302c-1.074-2.849-0.429-4.314,0.98-4.993
		c-0.901-0.43-1.588-1.034-1.946-1.997c-1.382-3.799,0.129-5.305,2.532-5.682c-6.238-3.06-0.407-9.342,7.255-7.954
		C545.752,275.274,547.349,275.77,548.627,276.338"/>
	<path fill-rule="evenodd" clip-rule="evenodd" fill="#ED1C24" d="M529.669,271.673c5.382-13.403,9.333-26.968,13.57-40.789
		c-3.877-1.651-7.307-2.918-10.467-3.856c-3.132,12.678-6.043,21.976-10.59,34.206c-3.909,10.492-6.354,17.015-9.357,27.875
		c-1.836,6.66-3.699,13.31-5.498,19.989l-0.896,0.325c0.075,0.037,0.153,0.097,0.21,0.164c3.243,0.105,7.223,0.188,11.305,0.207
		l0.771-3.024l0.958-2.878C523.555,293.121,525.354,282.424,529.669,271.673"/>
	<path fill-rule="evenodd" clip-rule="evenodd" fill="#27C4F0" d="M520.517,260.575c4.521-12.201,7.358-21.419,10.566-34.014
		c-2.935-0.787-5.655-1.286-8.322-1.57c-5.023,9.755-9.159,24.021-13.096,34.577c-3.376,9.025-5.814,18.32-9.107,27.366
		c-1.846,5.07-3.787,15.677-4.612,21.343c1.286,0.455,2.421,0.761,3.3,0.891c0.778,0.107,3.108,0.247,6.296,0.369
		c0.135-0.122,0.313-0.191,0.493-0.205l-0.505-0.749c1.895-6.645,3.718-13.315,5.575-19.973
		C514.112,277.81,516.636,271.017,520.517,260.575"/>
	<path fill-rule="evenodd" clip-rule="evenodd" fill="#61C9D7" d="M495.939,297.429c2.875-13.145,18.475-59.792,25.071-72.573
		c-3.363-0.224-6.711-0.102-10.381,0.244c-3.31,7.69-6.942,15.021-9.162,23.093c-1.88,6.805-4.613,16.539-7.375,22.897
		c-0.35,0.804-0.282,0.634-0.424,1.44c0,0.259-0.108,0.489-0.273,0.653c0.186,0.771,0.087,1.747-0.376,2.95
		c-0.316,0.827-0.825,1.399-1.473,1.816c0,0.019-0.005,0.054-0.005,0.076c-1.627,8.163-3.736,17.211-5.89,25.249
		c-0.003,0.338,0.031,0.493,0.01,0.639c2.916,1.371,5.873,2.698,8.422,3.682C494.759,302.738,494.557,303.79,495.939,297.429"/>
	<path fill-rule="evenodd" clip-rule="evenodd" fill="#ED1C24" d="M492.502,270.344c2.619-6.126,5.45-15.753,7.236-22.282
		c2.346-8.553,5.515-14.894,9.049-22.773c-2.414,0.268-4.979,0.617-7.788,1.011c-4.938,10.134-9.804,24.448-13.202,35.537
		c2.835-0.489,5.062,0.132,4.525,3.586c-0.346,2.205-2.509,3.778-4.986,4.921c1.837,0.022,3.59,0.298,4.757,1.061l0.006-0.05
		L492.502,270.344z"/>
	<path fill-rule="evenodd" clip-rule="evenodd" fill="#61C9D7" d="M485.998,262.262c2.497-9.652,8.59-26.346,13.139-35.688
		c-2.048,0.289-4.217,0.609-6.553,0.941c-2.214,10.791-8.766,25.109-11.822,36.802C482.252,263.604,484.161,262.79,485.998,262.262"
		/>
	<path fill-rule="evenodd" clip-rule="evenodd" fill="#ED1C24" d="M484.5,290.857c-0.649,0.419-1.646,0.772-2.811,0.979
		c-0.658,3.085-1.271,6.187-1.907,9.282c1.338,0.641,2.766,1.333,4.237,2.021c0.365-2.429,2.94-13.055,4.635-19.815
		c-0.55,0.557-1.889,1.296-3.433,1.908C487.61,286.217,488.681,288.124,484.5,290.857"/>
	<path fill-rule="evenodd" clip-rule="evenodd" fill="#FDD0AD" d="M478.343,280.279c-1.518-3.23,11.785-2.013,13.1-4.449
		c2.582-4.845-5.49-4.179-9.449-3.614c-0.537,0.158-1.026,0.288-1.436,0.407l-0.049-0.176c-0.355,0.057-0.561,0.089-0.573,0.083
		c-0.768-0.49-0.522-0.911,0.275-1.328l-0.019-0.116l0.447-0.083c2.637-1.152,8.942-2.394,10.057-5.288
		c2.384-6.17-11.497,1.078-11.705,1.194c-0.336,0.253-0.801,0.165-1.041-0.169c-0.236-0.339-0.161-0.82,0.175-1.06
		c0.089-0.058,0.224-0.135,0.39-0.221v-0.049c0.02-0.53-0.014-0.914,0.263-1.254c0.467-1.785,0.979-3.556,1.517-5.303
		c-3.694,1.943-5.753,3.661-7.079,8.319c0.042,0.095,0.066,0.214,0.066,0.329c-0.562,5.742-1.213,11.139-1.652,16.953
		c1.24,6.863,5.4,6.031,11.511,5.113l0.464-0.167c3.647-2.896,1.908-2.944-2.948-2.957c-0.547,0.067-1.047,0.067-1.478-0.003h-0.536
		v-0.129c-0.408-0.146-0.704-0.38-0.841-0.729c0.113-0.296,0.418-0.534,0.841-0.714v-0.152l0.583-0.037
		c0.618-0.146,1.363-0.214,2.164-0.191c2.17-0.264,3.54-0.75,6.108-2.336c1.206-3.13-5.222-1.601-7.977-1.569l-0.008,0.003v-0.003
		C478.883,280.586,478.448,280.513,478.343,280.279"/>
	<path fill-rule="evenodd" clip-rule="evenodd" fill="#61C9D7" d="M480.089,292.022c-1.283,0.094-2.675,0.032-3.988-0.255
		c-0.255,1.878-1.247,5.621-1.408,6.971c1.044,0.465,2.316,1.06,3.726,1.732C478.944,297.653,479.504,294.833,480.089,292.022"/>
	<path fill-rule="evenodd" clip-rule="evenodd" fill="#FDD0AD" d="M543.925,290.771c0.275,0.067,0.537,0.121,0.773,0.179
		l-0.063,0.141c1.021,0.522,1.351,1.072,0.211,1.598c-0.016,0.009-0.364-0.08-0.915-0.203l-0.032,0.078
		c-0.192-0.078-0.391-0.148-0.586-0.211c-3.018-0.631-9.221-1.547-6.558,2.771c0.841,1.374,4.621,1.825,6.536,2.562h0.088
		l-0.006,0.028c0.96,0.378,1.396,0.846,0.644,1.56c-0.061,0.066-0.368,0.083-0.824,0.095l-0.021,0.123
		c-0.17-0.046-0.342-0.088-0.537-0.123c-3.169-0.029-10.201-0.354-4.385,3.546c4.761,3.191,14.489,5.847,19.509,2.279
		c4.8-3.396,3.367-10.222,3.091-16.235c0-0.184,0.045-0.348,0.135-0.493c-0.026-0.095-0.042-0.198-0.033-0.303
		c-0.006-10.049-1.037-8.994-4.496-18.173c-2.167-2.971-5.602,4.342-4.356,8.836c2.52,3.083,0.006,6.03-0.74,2.596l0.03,0.045
		c-0.151-0.295-0.285-0.587-0.414-0.881c-3.427-4.846-15.987-5.432-15.129-0.56c0.319,1.873,13.609,3.687,9.781,5.884
		c-1.588,0.908-11.656-5.014-9.926,1.939c0.342,0.538,0.222,0.345,0.532,0.841C537.04,288.958,541.467,289.783,543.925,290.771"/>
	<path fill-rule="evenodd" clip-rule="evenodd" fill="#ED1C24" d="M516.424,222.696c7.441-0.096,14.18,1.168,23.384,4.682
		c0.129-0.243,0.379-0.406,0.667-0.394c1.356-0.183,9.013-0.977,6.48-3.96c-4.932-2.291-6.43-1.567-11.226-0.759
		c-0.146,0.042-0.294,0.055-0.428,0.064c-0.234,0.053-0.474,0.083-0.725,0.123l0.014-0.145c-1.04-0.198-1.517-0.999-0.025-1.409
		c0.252-0.063,0.502-0.124,0.746-0.184c0.11-0.173,0.319-0.347,0.604-0.532l-0.09-0.166l0.486-0.114
		c1.268-2.249-0.179-7.172-6.999-3.26c-0.358,0.927-0.938,1.618-1.722,1.797c-0.027,0.058-0.056,0.12-0.081,0.173l-0.134-0.053
		c-0.969,0.992-1.62,1.241-1.322-0.382c-0.375-0.326-0.145-0.852,0.484-1.421c0.391-0.793,0.979-1.557,1.721-2.28
		c0.381-3.547-4.59-7.876-6.484,1.077c-0.007,0-0.051,4.87-1.697,3.379c-0.056-0.06-0.107-0.127-0.146-0.221l-0.211-0.086
		c-0.061-0.15-0.116-0.329-0.161-0.531h-0.051l0.004-0.22c-0.188-1.017-0.208-2.488-0.114-4.159
		c-0.356-1.146-1.119-1.971-2.782-1.816c-0.077,0.056-0.139,0.095-0.192,0.121c-1.457,7.548,0.308,3.972,1.181,9.161
		c0.201,1.204-0.348,1.201-1.268,0.71c0.022,0.023,0.049,0.058,0.081,0.093l-0.203,0.198
		C516.314,222.383,516.386,222.551,516.424,222.696"/>
	<path fill-rule="evenodd" clip-rule="evenodd" fill="#BE1E2D" d="M524.867,208.605c2.899-0.31,4.407,1.991,4.771,4.457
		c0.199-0.274,0.426-0.578,0.696-0.935c2.385-3.182,6.695-14.535,0.764-14.988c-7.217-0.568-9.246,7.091-9.847,13.792
		c0.022,0.265,0.037,0.524,0.051,0.784C522.032,210.075,523.138,208.782,524.867,208.605"/>
	<path fill-rule="evenodd" clip-rule="evenodd" fill="#BE1E2D" d="M519.644,211c-0.006-1.285-0.039-2.221-0.103-2.869
		c-0.613-7.188-5.792-11.587-8.315-4.974c-2.07,5.435-0.479,10.381,2.267,14.765c0.524,0.269,1.057,0.579,1.562,0.929
		c-0.981-3.169-1.901-7.624,0.57-8.338c0.073-0.084,0.224-0.176,0.3-0.211c1.71-0.774,2.901-0.316,3.72,0.708V211"/>
	<path fill-rule="evenodd" clip-rule="evenodd" fill="#8ED8F8" d="M514.3,222.749c-0.771-0.735-1.585-2.034-2.345-3.642
		c-1.33-0.682-2.533-0.928-3.156,0.112c-0.595,1.012-0.095,2.212,0.327,3.164c0.096,0.274,0.042,0.565-0.108,0.783
		C510.849,222.971,512.599,222.831,514.3,222.749"/>
	<path fill-rule="evenodd" clip-rule="evenodd" fill="#BE1E2D" d="M507.015,221.363c-0.333-3.303,1.068-4.477,3.009-4.442
		c-3.074-3.188-6.717-5.968-9.725-4.612c-8.096,3.672,4.451,9.152,7.086,10.362C507.142,222.183,507.027,222.054,507.015,221.363"/>
	<path fill-rule="evenodd" clip-rule="evenodd" fill="#BE1E2D" d="M530.61,214.553c3.625-1.252,7.988-1.252,7.72,3.521
		c-0.02,0.352-0.059,0.665-0.108,0.971c2.342-1.016,5.437-2.185,6.929-3.352C554.357,208.478,538.354,207.886,530.61,214.553"/>
	<path fill-rule="evenodd" clip-rule="evenodd" fill="#BE1E2D" d="M553.745,223.745c-2.309-3.591-6.883-3.975-10.839-3.557
		c7.387,0.969,9.458,6.484-0.832,8.073c0.34,0.129,0.711,0.268,1.113,0.417c0.142-0.192,0.366-0.326,0.618-0.341
		C547.435,228.213,553.532,228.547,553.745,223.745"/>
	<path fill-rule="evenodd" clip-rule="evenodd" fill="#77797A" d="M554.669,372.282c-4.67,22.017-10.738,42.643-14.259,64.233
		c16.362,1.287,32.218,1.277,48.068,0.79c-0.468-6.997-0.874-13.993-0.986-20.987c0-0.345,0.282-0.632,0.627-0.632
		c0.352,0,0.635,0.287,0.635,0.632c0.157,7.039,0.703,14.003,1.236,20.938c14.514-0.46,29.029-1.305,43.945-1.9
		c-2.268-18.341-4.437-37.579-5.884-55.346c-0.444,0.173-0.909,0.336-1.383,0.512C609.039,386.731,569.095,387.436,554.669,372.282"
		/>
	<path fill-rule="evenodd" clip-rule="evenodd" fill="#8ED8F8" d="M186.516,424.293c26.705-4.466,53.719-8.67,80.393-13.392
		c-4.611-6.431-9.429-14.107-12.506-21.346c-0.597,0.502-1.405,0.991-2.428,1.472c-16.03,7.468-26.869,7.64-44.195,6.168
		c-4.348-0.371-10.721-0.355-14.558-0.763C190.769,402.44,188.272,414.072,186.516,424.293"/>
	<path fill-rule="evenodd" clip-rule="evenodd" d="M222.938,265.95c-0.627,2.109-1.181,3.677,0.996,3.149
		c0.301-1.78,1.03-8.348,2.815-4.276c0.7,1.591-0.089,2.899,1.27,3.296c0.16-1.859-0.582-4.194,2.364-1.706
		c0.141,0.118,0.78,0.215,0.901,0.237c0.387,0.067,0.644,0.446,0.581,0.841c-0.065,0.397-0.437,0.66-0.819,0.589
		c-0.951-0.173-1.269-0.298-1.629-0.608c0.046,0.893,0.16,1.907-0.604,2.164c-1.767,0.592-2.514-0.727-2.937-2.088
		c-0.074,0.359-0.177,0.76-0.297,1.247c-0.881,3.397-5.894,3.048-3.996-3.313c0.127-0.382,0.534-0.587,0.904-0.458
		C222.862,265.149,223.069,265.562,222.938,265.95"/>
	<path fill-rule="evenodd" clip-rule="evenodd" d="M607.458,336.465c-1.453,0.067-4.282,0.649-4.583-1.339
		c-0.035-0.311,0.18-0.567,0.48-0.601c0.294-0.028,0.554,0.191,0.585,0.498c0.116,0.769,2.98,0.35,3.518,0.314
		c0.295,0,0.539,0.25,0.539,0.555C607.997,336.211,607.753,336.465,607.458,336.465"/>
	<path fill-rule="evenodd" clip-rule="evenodd" d="M652.637,298.133c-1.652,4.108-3.076,7.501-4.76,11.468
		c-0.07,0.436-0.468,0.735-0.896,0.669c-0.436-0.067-0.716-0.48-0.659-0.922c1.515-3.806,3.372-7.896,4.958-11.648
		c0.118-0.377,0.519-0.585,0.887-0.476C652.543,297.346,652.748,297.748,652.637,298.133"/>
	<path fill-rule="evenodd" clip-rule="evenodd" d="M664.646,291.63c-5.132,9.719-10.218,19.83-15.169,29.679
		c-0.144,0.423-0.594,0.647-1.017,0.499c-0.416-0.146-0.637-0.604-0.49-1.033c4.888-9.978,10.379-19.941,15.574-29.776
		c0.166-0.307,0.555-0.419,0.858-0.25C664.707,290.923,664.814,291.312,664.646,291.63"/>
	<path fill-rule="evenodd" clip-rule="evenodd" d="M457.702,298.67c1.727,9.667,5.397,6.983,7.223,11.383
		c0.134,0.403-0.07,0.835-0.465,0.963c-0.384,0.142-0.807-0.076-0.944-0.465c-2.173-4.042-5.513-1.37-7.343-11.736
		c-0.041-0.429,0.27-0.808,0.691-0.846C457.288,297.934,457.656,298.241,457.702,298.67"/>
	<path fill-rule="evenodd" clip-rule="evenodd" d="M441.482,293.952c-0.928,10.049,12.704,28.218,20.188,30.609
		c0.327-0.074,0.653,0.146,0.718,0.479c0.064,0.342-0.149,0.666-0.479,0.733c-1.242,0.215-1.575,0.103-2.686-0.548
		c-8.702-5.125-20.219-20.739-19.206-31.607c0.091-0.41,0.492-0.669,0.895-0.581C441.319,293.13,441.577,293.54,441.482,293.952"/>
	<path fill-rule="evenodd" clip-rule="evenodd" d="M451.642,188.213c0.412,0.282,10.319,7.397,9.902,7.649
		c0.276-0.133,0.595-0.018,0.725,0.247c0.137,0.268,0.028,0.599-0.231,0.739c-2.017,0.925-8.845-5.642-11.133-7.207
		c-0.391-0.212-0.541-0.702-0.338-1.085C450.772,188.157,451.25,188.002,451.642,188.213"/>
	<path fill-rule="evenodd" clip-rule="evenodd" d="M470.666,162.327c0.607,2.159,3.284,11.533,5.874,12.582
		c0.441,0.097,0.712,0.552,0.604,0.995c-0.093,0.451-0.537,0.729-0.973,0.625c-3.761-1.204-6.217-10.824-7.067-13.846
		c-0.1-0.445,0.173-0.878,0.61-0.976C470.146,161.616,470.576,161.892,470.666,162.327"/>
	<path fill-rule="evenodd" clip-rule="evenodd" d="M495.76,169.362c-1.113,4.778-0.595,2.41-1.574,7.108
		c0.031,0.464-0.309,0.873-0.76,0.922c-0.464,0.042-0.86-0.306-0.904-0.785l0.758-4.006l0.9-3.742
		c0.134-0.438,0.603-0.698,1.036-0.558C495.648,168.44,495.897,168.917,495.76,169.362"/>
	<g opacity="0.22">
		<g>
			<defs>
				<rect id="SVGID_1_" x="614.148" y="219.729" width="24.038" height="43.16"/>
			</defs>
			<clipPath id="SVGID_2_">
				<use xlink:href="#SVGID_1_"  overflow="visible"/>
			</clipPath>
			<path clip-path="url(#SVGID_2_)" fill-rule="evenodd" clip-rule="evenodd" d="M626.989,245.107
				c2.835,5.86,4.526,10.911,5.364,16.03c1.93,0.466,3.89,1.112,5.833,1.753c-0.393-2.968-1.138-5.489-3.977-12.418
				c-2.139-5.221-4.469-10.061-7.105-15.03c-3.756-5.716-8.249-10.583-12.611-15.712c-0.108,0.057-0.223,0.121-0.338,0.181
				C618.668,228.115,622.957,233.693,626.989,245.107"/>
		</g>
	</g>
	<g opacity="0.22">
		<g>
			<defs>
				<rect id="SVGID_3_" x="632.56" y="262.564" width="6.298" height="6.88"/>
			</defs>
			<clipPath id="SVGID_4_">
				<use xlink:href="#SVGID_3_"  overflow="visible"/>
			</clipPath>
			<path clip-path="url(#SVGID_4_)" fill-rule="evenodd" clip-rule="evenodd" d="M638.333,264.233
				c-1.87-0.562-3.824-1.197-5.773-1.669c0.229,1.69,0.364,3.405,0.421,5.165c1.699,0.33,3.593,0.935,5.877,1.715
				c-0.248-2.218-0.375-3.821-0.516-5.208C638.336,264.233,638.336,264.233,638.333,264.233"/>
		</g>
	</g>
	<g opacity="0.22">
		<g>
			<defs>
				<rect id="SVGID_5_" x="616.062" y="269.153" width="25.029" height="45.345"/>
			</defs>
			<clipPath id="SVGID_6_">
				<use xlink:href="#SVGID_5_"  overflow="visible"/>
			</clipPath>
			<path clip-path="url(#SVGID_6_)" fill-rule="evenodd" clip-rule="evenodd" d="M638.922,270.985
				c-2.349-0.827-4.239-1.465-5.916-1.832c0.026,3.265-0.197,6.742-0.613,10.592c-1.779,16.467-4.231,25.751-16.331,34.752
				c0.212-0.064,0.429-0.109,0.646-0.169c0.01,0,0.017-0.01,0.017-0.01c0.073-0.021,0.147-0.045,0.222-0.055
				c3.484-0.941,7.005-2.33,10.235-4.152c0.089-0.123,0.226-0.211,0.384-0.236c6.285-3.671,11.368-9.077,12.726-16.25
				c1.755-9.247,0.243-11.691-0.921-20.09c-0.128-0.913-0.236-1.749-0.333-2.525C639,271.004,638.953,270.995,638.922,270.985"/>
		</g>
	</g>
	<g opacity="0.22">
		<g>
			<defs>
				<rect id="SVGID_7_" x="617.998" y="311.935" width="21.281" height="63.894"/>
			</defs>
			<clipPath id="SVGID_8_">
				<use xlink:href="#SVGID_7_"  overflow="visible"/>
			</clipPath>
			<path clip-path="url(#SVGID_8_)" fill-rule="evenodd" clip-rule="evenodd" d="M636.322,354.395
				c-3.325-11.212-7.759-30.37-9.141-42.46c-2.875,1.548-5.977,2.694-9.18,3.527c3.662,13.066,4.478,28.091,8.219,41.78
				c2.147,7.878,4.043,12.878,7.304,18.586C641.166,371.215,640.231,365.479,636.322,354.395"/>
		</g>
	</g>
	<g opacity="0.22">
		<g>
			<defs>
				<rect id="SVGID_9_" x="612.644" y="254.167" width="9.026" height="42.603"/>
			</defs>
			<clipPath id="SVGID_10_">
				<use xlink:href="#SVGID_9_"  overflow="visible"/>
			</clipPath>
			<path clip-path="url(#SVGID_10_)" fill-rule="evenodd" clip-rule="evenodd" d="M613.027,296.766
				c6.508-3.537,10.042-10.36,8.118-20.498c-0.673-3.543-1.536-7.121-2.3-10.723c-0.09-0.006-0.186-0.047-0.258-0.104
				c-0.281-0.219-0.33-0.631-0.119-0.916c0.038-0.048,0.09-0.094,0.128-0.151c-0.064-0.313-0.128-0.638-0.196-0.96
				c-0.029-0.041-0.054-0.102-0.078-0.167c-0.781-3.341-1.089-5.307-1.109-7.046c-0.089,0-0.175-0.01-0.261-0.035
				c-0.659-0.212-1.345-0.95-2.004-1.999c-0.649,12.627-2.688,25.955-2.24,37.754C612.822,294.845,612.951,295.837,613.027,296.766"
				/>
		</g>
	</g>
	<g opacity="0.22">
		<g>
			<defs>
				<rect id="SVGID_11_" x="564.354" y="257.132" width="13.452" height="37.515"/>
			</defs>
			<clipPath id="SVGID_12_">
				<use xlink:href="#SVGID_11_"  overflow="visible"/>
			</clipPath>
			<path clip-path="url(#SVGID_12_)" fill-rule="evenodd" clip-rule="evenodd" d="M575.304,294.646
				c2.353-10.662,3.306-23.213,1.729-33.607c-6.711-1.582-6.16-1.494-12.679-3.908c2.645,13.494,4.285,13.759,1.949,32.404
				C568.979,291.555,572.039,293.254,575.304,294.646"/>
		</g>
	</g>
	<g opacity="0.22">
		<g>
			<defs>
				<rect id="SVGID_13_" x="562.175" y="310.914" width="8.574" height="23.583"/>
			</defs>
			<clipPath id="SVGID_14_">
				<use xlink:href="#SVGID_13_"  overflow="visible"/>
			</clipPath>
			<path clip-path="url(#SVGID_14_)" fill-rule="evenodd" clip-rule="evenodd" d="M570.749,313.327
				c-2.275-0.685-4.53-1.487-6.763-2.413l0.69,4.211c0.234,4.197-0.911,11.647-2.502,19.372
				C565.945,328.008,567.744,323.079,570.749,313.327"/>
		</g>
	</g>
	<g opacity="0.24">
		<g>
			<defs>
				<rect id="SVGID_15_" x="560.838" y="377.042" width="68.209" height="15.406"/>
			</defs>
			<clipPath id="SVGID_16_">
				<use xlink:href="#SVGID_15_"  overflow="visible"/>
			</clipPath>
			<path clip-path="url(#SVGID_16_)" fill-rule="evenodd" clip-rule="evenodd" d="M626.669,380.522
				c-15.53,5.47-48.367,6.669-65.835-3.48c9.881,8.404,11.497,10.06,29.975,13.06c13.924,2.265,25.721,3.302,38.235,1.226
				c-0.352-3.814-0.695-7.593-0.992-11.316C627.607,380.188,627.143,380.347,626.669,380.522"/>
		</g>
	</g>
	<path fill-rule="evenodd" clip-rule="evenodd" fill="#8ED8F8" d="M238.014,282.424c1.921-0.247,3.597-0.486,4.726-0.621
		c-0.911-5.474-1.7-10.771-2.273-15.69v-0.054l-0.745-0.15l-0.132-0.02C239.057,271.187,238.519,276.723,238.014,282.424"/>
	<g opacity="0.22">
		<g>
			<defs>
				<rect id="SVGID_17_" x="344.707" y="204.659" width="46.854" height="24.998"/>
			</defs>
			<clipPath id="SVGID_18_">
				<use xlink:href="#SVGID_17_"  overflow="visible"/>
			</clipPath>
			<path clip-path="url(#SVGID_18_)" fill-rule="evenodd" clip-rule="evenodd" fill="#612F00" d="M348.69,222.696
				c-0.147,0.351-0.547,0.521-0.888,0.372c-0.137-0.055-0.25-0.157-0.322-0.274c-0.953,0.945-1.877,1.908-2.771,2.905
				c2.877,2.363,7.293,3.526,10.583,3.837c0.153,0,0.297,0.035,0.425,0.121c8.188-4.685,19.1-7.776,25.664-8.967
				c11.31-2.049,4.794-7.961-5.615-5.372c0,0-4.819,2.265-4.327,0.029c0.037-0.186,0.219-0.38,0.519-0.56l-0.028-0.044l0.179-0.062
				c4.078-2.297,24.902-4.567,18.098-9.008c-4.123-2.691-14.833,0.711-17.911,1.784l-0.139,0.089l-0.03-0.031
				c-0.436,0.154-0.682,0.24-0.682,0.24c-0.96-0.143-1.098-0.505-0.726-1.001c-5.475,2.577-10.739,5.716-15.589,9.406
				c0.902-0.252,1.826-0.412,2.792-0.509c0.403,0,0.725,0.334,0.725,0.744c0,0.406-0.321,0.737-0.725,0.737
				C354.128,217.487,350.684,219.293,348.69,222.696"/>
		</g>
	</g>
	<g opacity="0.22">
		<g>
			<defs>
				<rect id="SVGID_19_" x="268.259" y="226.965" width="85.249" height="43.713"/>
			</defs>
			<clipPath id="SVGID_20_">
				<use xlink:href="#SVGID_19_"  overflow="visible"/>
			</clipPath>
			<path clip-path="url(#SVGID_20_)" fill-rule="evenodd" clip-rule="evenodd" fill="#612F00" d="M353.508,231.008
				c-3.479-0.541-7.281-1.812-9.918-4.042c-2.754,3.197-5.219,6.635-7.33,10.319c-5.83,10.191-9.755,13.126-19.637,18.733
				c-15.785,8.944-31.546,12.566-48.364,13.982c0.091,0.003,0.173,0.009,0.261,0.016c32.434,3.248,57.685-5.097,77.715-31.905
				c0.003-0.035,0.016-0.062,0.039-0.081C347.756,235.429,350.336,233.083,353.508,231.008"/>
		</g>
	</g>
	<g opacity="0.22">
		<g>
			<defs>
				<rect id="SVGID_21_" x="64.574" y="207.057" width="119.954" height="77.137"/>
			</defs>
			<clipPath id="SVGID_22_">
				<use xlink:href="#SVGID_21_"  overflow="visible"/>
			</clipPath>
			<path clip-path="url(#SVGID_22_)" fill-rule="evenodd" clip-rule="evenodd" fill="#612F00" d="M182.958,264.682
				c-3.106-11.061-9.708-9.282-18.042-8.45c-63.899,6.379-74.136-26.214-96.596-49.176c-0.623,0.627-2.297,0.845-3.747,0.843
				c3.386,3.465,6.827,7.655,10.583,13.407c10.946,16.742,18.676,24.867,37.657,32.176c20.422,7.868,42.492,8.518,64.059,8.3
				c1.003-0.01,1.019,1.54,0.013,1.547c-1.853,0.022-3.708,0.035-5.565,0.035c1.747,5.185,3.277,11.682,4.62,18.974
				c0.125,0.019,0.247,0.06,0.365,0.13c2.176,0.807,4.936,1.374,8.026,1.729C184.806,276.761,184.458,270.028,182.958,264.682"/>
		</g>
	</g>
	<g opacity="0.22">
		<g>
			<defs>
				<rect id="SVGID_23_" x="176.289" y="284.265" width="7.911" height="27.065"/>
			</defs>
			<clipPath id="SVGID_24_">
				<use xlink:href="#SVGID_23_"  overflow="visible"/>
			</clipPath>
			<path clip-path="url(#SVGID_24_)" fill-rule="evenodd" clip-rule="evenodd" fill="#612F00" d="M184.199,286.037
				c-2.838-0.361-5.512-0.935-7.912-1.772c1.472,8.334,2.71,17.61,3.749,27.065C182.047,302.696,183.564,294.014,184.199,286.037"/>
		</g>
	</g>
	<g opacity="0.22">
		<g>
			<defs>
				<rect id="SVGID_25_" x="235.96" y="283.522" width="25.561" height="97.272"/>
			</defs>
			<clipPath id="SVGID_26_">
				<use xlink:href="#SVGID_25_"  overflow="visible"/>
			</clipPath>
			<path clip-path="url(#SVGID_26_)" fill-rule="evenodd" clip-rule="evenodd" fill="#612F00" d="M237.853,284.284
				c-2.651,31.094-3.821,66.872,5.52,96.511c0.845-0.282,1.727-0.604,2.634-0.958c1.272-0.495,2.865-1.148,4.261-1.695l-0.143,0.066
				c0.348-0.117,0.848-0.257,1.455-0.415c-0.069-0.234,0.018-0.505,0.225-0.656c0.266-0.195,0.637-0.129,0.823,0.143l0.1,0.23
				c3.29-0.809,8.06-1.934,8.453-3.11v-0.17c-0.017-0.298,0.12-0.577,0.341-0.729c-3.04-8.451-7.274-32.578-9.194-42.27
				c-2.842-14.386-6.578-31.747-9.298-47.712C241.331,283.788,239.601,284.057,237.853,284.284"/>
		</g>
	</g>
	<g opacity="0.22">
		<g>
			<defs>
				<rect id="SVGID_27_" x="243.93" y="379.48" width="10.06" height="11.511"/>
			</defs>
			<clipPath id="SVGID_28_">
				<use xlink:href="#SVGID_27_"  overflow="visible"/>
			</clipPath>
			<path clip-path="url(#SVGID_28_)" fill-rule="evenodd" clip-rule="evenodd" fill="#612F00" d="M252.01,379.48
				c-1.374,0.45-2.508,0.947-5.359,2.056c-0.94,0.356-1.837,0.686-2.719,0.989c0.957,2.876,2.018,5.71,3.191,8.466
				c1.325-0.537,2.682-1.131,4.078-1.779c1.076-0.496,1.862-0.856,2.449-1.657c-0.006-0.285,0.118-0.563,0.34-0.729l-1.262-4.226
				L252.01,379.48z"/>
		</g>
	</g>
	<g opacity="0.22">
		<g>
			<defs>
				<rect id="SVGID_29_" x="247.922" y="389.556" width="18.987" height="22.456"/>
			</defs>
			<clipPath id="SVGID_30_">
				<use xlink:href="#SVGID_29_"  overflow="visible"/>
			</clipPath>
			<path clip-path="url(#SVGID_30_)" fill-rule="evenodd" clip-rule="evenodd" fill="#612F00" d="M254.404,389.556
				c-0.601,0.502-1.407,0.991-2.434,1.472c-1.392,0.644-2.735,1.241-4.05,1.779c2.367,5.278,5.169,10.287,8.457,14.934
				c1.019,1.456,2.448,2.883,4.152,4.271c2.127-0.367,4.25-0.74,6.377-1.11C262.3,404.471,257.481,396.794,254.404,389.556"/>
		</g>
	</g>
	<g opacity="0.22">
		<g>
			<defs>
				<rect id="SVGID_31_" x="189.756" y="90.602" width="70.892" height="138.556"/>
			</defs>
			<clipPath id="SVGID_32_">
				<use xlink:href="#SVGID_31_"  overflow="visible"/>
			</clipPath>
			<path clip-path="url(#SVGID_32_)" fill-rule="evenodd" clip-rule="evenodd" fill="#D04420" d="M238.119,212.834
				c6.866-5.826,12.691-12.993,16.913-21.125c10.127-19.519,3.507-51.052,3.338-51.823l-0.007-0.006
				c-0.216-0.89-10.313-40.621-46.12-49.279c2.067,1.367,4.211,2.917,6.504,4.673c23.04,17.629,36.171,35.864,34.361,66.457
				c-1.514,25.667-14.309,46.532-34.223,58.071c-0.225,0.127-0.451,0.262-0.685,0.386c-0.226,0.129-0.455,0.256-0.682,0.382
				c-7.994,4.396-17.085,7.308-27.016,8.47c-0.259,0.035-0.512,0.063-0.747,0.095c3.28,0.06,6.558,0,9.808-0.221
				c6.07-0.385,12.075-1.712,17.82-3.857c0.247-0.085,0.5-0.186,0.741-0.284c0.25-0.09,0.498-0.192,0.748-0.288
				C225.803,221.713,232.331,217.756,238.119,212.834"/>
		</g>
	</g>
	<path fill-rule="evenodd" clip-rule="evenodd" d="M347.565,200.038c-0.225-1.447-14.073-85.197-13.116-86.071
		c0.075-0.063,68.503-4.022,69.476-3.025c2.702,2.759-10.091,79.612-11.291,89.529c-0.055,0.498-0.504,0.854-1,0.793
		c-0.497-0.064-0.841-0.522-0.779-1.028c3.956-27.77,10.648-60.27,11.655-87.856c-22.279,0.346-44.384,2.64-66.564,2.979
		l6.449,41.776l6.484,42.691c0.052,0.367-0.191,0.708-0.554,0.781C347.969,200.654,347.625,200.405,347.565,200.038"/>
	<path fill-rule="evenodd" clip-rule="evenodd" d="M348.474,198.706c11.55,1.933,30.756-0.211,43.277-0.499
		c0.478,0,0.857,0.388,0.857,0.877c0,0.483-0.379,0.879-0.857,0.879c-12.931,0.309-31.734,2.513-43.778,0.347
		c-0.424-0.148-0.669-0.618-0.538-1.049C347.573,198.818,348.034,198.569,348.474,198.706"/>
	<path fill-rule="evenodd" clip-rule="evenodd" d="M365.98,112.38c0.164,21.051,1.964,39.538,1.217,61.034
		c-0.275,7.973,0.288,13.764-0.767,21.88c0.708,1.415,0.495,2.518,0.464,4.215c0,0.471-0.382,0.857-0.854,0.857
		c-0.459,0-0.835-0.386-0.835-0.857c0.157-2.16-0.315-4.123-0.315-4.123c0.754-8.494,0.482-13.923,0.77-22.08
		c0.741-21.383-1.051-39.957-1.205-60.927c0-0.433,0.344-0.785,0.766-0.785C365.643,111.595,365.98,111.947,365.98,112.38"/>
	<path fill-rule="evenodd" clip-rule="evenodd" d="M356.51,113.563c-7.309,0.343-22.051,1.733-21.186-10.088
		c0.514-6.997,7.816-8.238,13.681-6.478c-2.501-4.289-4.045-9.785-1.214-14.263c3.049-4.807,10.745-2.404,15.29,2.087
		c-0.153-8.091,4.507-15.568,11.57-10.957c4.36,2.853,5.434,7.448,5.186,12.163c3.369-6.687,8.876-13.622,12.982-3.037
		c1.415,3.652-0.221,8.312-2.33,11.759c5.26-1.847,12.631-1.818,12.847,5.211c0.223,6.961-5.372,10.584-10.895,12.822
		c-0.441,0.15-0.929-0.1-1.084-0.547c-0.151-0.448,0.089-0.948,0.528-1.101c2.733-1.082,5.713-2.241,7.578-4.696
		c7.026-9.217-2.99-15.872-12.79-7.147l-0.052-0.047c-0.826,0.508-1.38,0.413-1.364-0.566c0.01-0.67,0.626-1.421,1.617-2.128
		c2.969-3.498,6.205-8.332,4.417-12.938c-3.941-10.194-8.688,0.39-11.086,5.543c-0.023,0.044-1.627,5.78-2.881,3.626
		c0,0,0.059-0.313,0.15-0.864l-0.122-0.051c0.072-0.198,0.147-0.413,0.23-0.637c0.667-4.468,1.812-17.019-6.945-16.826
		c-6.471,0.146-6.093,8.098-5.035,13.73c0.744,1.402,1.119,2.868,0.984,4.309c-0.093,1.014-1.161,1.201-1.626,0.301
		c-0.785-1.559-1.312-3.258-1.607-4.993c-1.124-1.905-2.821-3.371-5.179-4.549c-11.294-5.659-12.3,6.578-6.666,14.775
		c2.349,1.156,4.166,2.849,4.679,4.817c0.722,2.727-2.599,0.649-5.577-3.38c-4.897-2.593-11.99-1.888-13.357,2.715
		c-3.352,11.276,13.727,10.015,19.256,9.9c0.416,0,0.754,0.352,0.754,0.774C357.264,113.224,356.926,113.563,356.51,113.563"/>
	<path fill-rule="evenodd" clip-rule="evenodd" d="M358.782,113.1c-4.75-0.899-13.218-1.84-9.803-9.288
		c1.472-3.201,4.94-2.128,7.711-0.518c-1.458-3.659-1.755-9.152,4.223-10.582c4.181-1.012,7.538,1.693,9.15,4.874
		c2.045-4.599,7.18-7.761,8.712-0.704c0.318,1.444,0.335,2.775,0.253,4.139c2.49-2.593,6.705-6.037,7.507-0.747
		c0.313,2.071-0.25,3.758-1.248,5.397c4.598-1.739,12.95,0.399,5.738,6.174c-0.919,0.739-1.467,0.892-2.595,0.957
		c-0.466,0-0.83-0.385-0.83-0.852c0-0.469,0.364-0.851,0.83-0.851c0.761-0.016,0.957-0.067,1.594-0.544
		c5.774-4.391-0.816-3.719-5.312-3.999l-0.076,0.103l0.022-0.109c-0.481-0.028-0.937-0.07-1.356-0.137
		c-0.203-1.009,1.376-1.789,1.727-4.298c1.046-7.458-6.301,1.67-6.34,1.709c-2.698,2.573-0.021-6.396-2.547-8.911
		c-2.644-2.625-4.648,4.174-5.061,7.278c-0.017,0.105-0.026,0.205-0.035,0.298c-0.021,0.153-0.03,0.304-0.04,0.445h-0.05
		c-0.047,0.195-0.11,0.391-0.188,0.573c-0.766,0.326-0.381,0.332-1.148,0c-0.076-0.192-0.144-0.378-0.196-0.573h-0.037l-0.026-0.266
		c-0.088-0.399-0.134-0.806-0.144-1.22c-0.535-3.741-2.059-7.339-6.58-7.275c-6.96,0.09-5.495,6.715-2.961,11.097l-0.076,0.04
		c0.065,0.051,0.125,0.108,0.184,0.146c-0.01,1.508-0.706,1.469-1.515,0.573l-0.014,0.003c-1.139-0.667-6.161-4.145-7.612-1.805
		c-3.6,5.792,5.643,6.763,8.584,7.422c0.386,0.125,0.602,0.55,0.488,0.951C359.589,113,359.169,113.228,358.782,113.1"/>
	<path fill-rule="evenodd" clip-rule="evenodd" d="M382.491,112.872c-5.106,57.808-2.533,28.903-7.709,86.717
		c-0.044,0.487-0.463,0.844-0.938,0.787c-0.473-0.038-0.825-0.471-0.779-0.95l3.997-43.347l4.041-43.344
		c0.041-0.384,0.379-0.676,0.763-0.64C382.242,112.137,382.522,112.473,382.491,112.872"/>
	<path fill-rule="evenodd" clip-rule="evenodd" fill="#F7941E" d="M365.659,173.307c0.725-20.769-0.954-38.904-1.186-59.154
		c-9.506,0.557-19.017,1.062-28.524,1.206l6.445,41.776l5.451,35.876c0.203,0.081,0.375,0.243,0.45,0.473
		c0.117,0.318,0,0.67-0.247,0.872l0.669,4.39c1.993,0.325,4.216,0.524,6.585,0.638c0.068-0.303,0.334-0.528,0.655-0.528
		c0.338,0,0.613,0.25,0.66,0.579c1.917,0.075,3.913,0.084,5.968,0.065c0.163-0.087,0.325-0.183,0.491-0.264
		c0.334-0.121,0.678-0.013,0.894,0.233c0.41,0,0.823-0.016,1.236-0.025c0.141-2.138-0.317-4.058-0.317-4.058
		C365.643,186.896,365.371,181.464,365.659,173.307"/>
	<path fill-rule="evenodd" clip-rule="evenodd" fill="#F7941E" d="M382.473,113.116c-5.064,57.299-2.537,28.921-7.637,85.924
		c5.841-0.306,11.534-0.689,16.312-0.824c3.989-27.325,10.377-58.918,11.359-85.836c-3.25,0.047-6.499,0.137-9.742,0.262
		c-0.106,0.042-0.216,0.083-0.322,0.141c-0.259,0.079-0.529,0.039-0.741-0.109C388.624,112.809,385.543,112.946,382.473,113.116"/>
	<path fill-rule="evenodd" clip-rule="evenodd" fill="#27C4F0" d="M377.061,156.079l4.004-42.89
		c-5.024,0.279-10.046,0.573-15.063,0.877c0.232,20.356,1.924,38.425,1.196,59.348c-0.279,7.973,0.289,13.764-0.771,21.88
		c0.686,1.376,0.506,2.479,0.466,4.1c2.055-0.07,4.126-0.157,6.198-0.269L377.061,156.079z"/>
	<path fill-rule="evenodd" clip-rule="evenodd" fill="#346897" d="M365.961,112.2c7.69-0.39,15.588-0.771,22.177-1.043
		c0.095-0.032,0.182-0.058,0.294-0.058c0.758-0.016,0.957-0.07,1.589-0.544c5.779-4.391-0.815-3.719-5.308-3.999l-0.075,0.103
		l0.022-0.109c-0.482-0.028-0.938-0.073-1.357-0.137c-0.203-1.009,1.374-1.786,1.727-4.302c1.042-7.455-6.301,1.674-6.345,1.712
		c-2.693,2.573-0.016-6.396-2.546-8.911c-2.645-2.625-4.645,4.174-5.057,7.278c-0.02,0.105-0.029,0.205-0.041,0.298
		c-0.015,0.153-0.025,0.3-0.038,0.442h-0.047c-0.052,0.198-0.115,0.394-0.189,0.576c-0.767,0.326-0.38,0.332-1.147,0
		c-0.08-0.192-0.149-0.378-0.196-0.576h-0.041l-0.026-0.263c-0.086-0.399-0.13-0.806-0.143-1.22
		c-0.532-3.741-2.061-7.339-6.577-7.275c-6.964,0.09-5.495,6.715-2.961,11.097l-0.079,0.04l0.182,0.146
		c-0.006,1.508-0.704,1.469-1.51,0.573l-0.013,0.003c-1.145-0.667-6.162-4.145-7.616-1.805c-3.6,5.792,5.643,6.763,8.583,7.422
		c0.368,0.122,0.581,0.503,0.505,0.886c1.558-0.089,3.136-0.169,4.733-0.259c0.04-0.387,0.363-0.682,0.756-0.682
		C365.581,111.595,365.89,111.861,365.961,112.2"/>
	<path fill-rule="evenodd" clip-rule="evenodd" fill="#27C4F0" d="M370.065,97.585c2.045-4.599,7.177-7.764,8.71-0.704
		c0.318,1.444,0.332,2.775,0.253,4.139c1.923-2.007,4.87-4.51,6.484-3.122c0.268-0.441,0.74-0.901,1.36-1.35
		c2.97-3.498,6.204-8.332,4.418-12.938c-3.943-10.194-8.688,0.39-11.088,5.543c-0.022,0.044-1.622,5.78-2.88,3.626
		c0,0,0.059-0.313,0.153-0.864l-0.12-0.051c0.072-0.198,0.147-0.413,0.225-0.637c0.672-4.468,1.817-17.019-6.945-16.826
		c-6.466,0.146-6.093,8.098-5.035,13.73c0.744,1.402,1.119,2.868,0.984,4.309c-0.044,0.477-0.315,0.775-0.63,0.858
		C367.744,94.209,369.176,95.829,370.065,97.585"/>
	<path fill-rule="evenodd" clip-rule="evenodd" fill="#27C4F0" d="M364.96,92.74c-0.785-1.556-1.312-3.255-1.607-4.99
		c-1.126-1.905-2.825-3.371-5.177-4.549c-11.296-5.659-12.302,6.578-6.67,14.775c2.353,1.156,4.169,2.849,4.682,4.817
		c0.021,0.092,0.04,0.173,0.06,0.247c0.148,0.083,0.299,0.163,0.446,0.253c-1.458-3.659-1.76-9.152,4.22-10.582
		c1.503-0.362,2.905-0.247,4.156,0.205C365.028,92.861,364.991,92.798,364.96,92.74"/>
	<path fill-rule="evenodd" clip-rule="evenodd" fill="#27C4F0" d="M350.609,99.413c-4.897-2.593-11.989-1.888-13.356,2.715
		c-2.927,9.855,9.729,10.136,16.667,9.977c-3.897-1.054-7.328-3.079-4.938-8.293c0.781-1.69,2.11-2.189,3.608-2.048
		C351.938,101.1,351.266,100.31,350.609,99.413"/>
	<path fill-rule="evenodd" clip-rule="evenodd" fill="#27C4F0" d="M386.537,100.274c0.308,2.071-0.255,3.758-1.248,5.397
		c4.373-1.661,12.126,0.191,6.702,5.338c0.075-0.003,0.149-0.003,0.229-0.007c2.642-1.049,5.454-2.217,7.243-4.564
		c7.024-9.217-2.989-15.872-12.789-7.15l-0.056-0.044c-0.094,0.047-0.181,0.103-0.269,0.153
		C386.421,99.654,386.484,99.948,386.537,100.274"/>
	<g opacity="0.24">
		<g>
			<defs>
				<rect id="SVGID_33_" x="88.626" y="86.713" width="50.274" height="131.482"/>
			</defs>
			<clipPath id="SVGID_34_">
				<use xlink:href="#SVGID_33_"  overflow="visible"/>
			</clipPath>
			<path clip-path="url(#SVGID_34_)" fill-rule="evenodd" clip-rule="evenodd" d="M113.688,151.402
				c-0.505-29.005-7.105-39.793,6.98-64.683l0.007-0.006c-9.254,4.532-26.571,16.74-31.719,46.11l5.26-0.452l-0.575,1.137
				c-0.097,0.198-9.742,19.687-2.024,40.111l3.078-1.402l0.15,0.906c0.006,0.063,0.19,1.168,0.76,3.024
				c2.422,7.888,11.708,29.319,43.295,42.048v-0.009c-6.392-11.152-10.166-22.047-13.981-35.167
				c-0.488,1.496-0.599,3.543-0.651,4.894c0.015,0.423,0,0.717-0.044,0.904c-0.216,0.875-1.536,1.093-1.732-0.193
				c-0.043-0.237-0.06-0.49-0.069-0.771c-1.323-9.162-4.769-33.49-1.999-46.412c-2.42,3.515-4.917,7.663-5.002,9.811l-0.236,0.01
				c-0.357,2.105-1.138,1.145-1.392,0.131L113.688,151.402z"/>
		</g>
	</g>
	<text transform="matrix(1 0 0 1 798.665 258.8618)" font-family="'Zhizn'" font-size="44.814"> </text>
</g>
</svg>
